<svg width="17" height="17" viewBox="0 0 17 17" fill="none" xmlns="http://www.w3.org/2000/svg">
<g clip-path="url(#clip0_779_6610)">
<path d="M10.8432 3.63151C11.4943 3.75855 12.0928 4.07702 12.5619 4.54613C13.031 5.01525 13.3495 5.61369 13.4765 6.26484M10.8432 0.964844C12.196 1.11513 13.4576 1.72096 14.4207 2.68285C15.3838 3.64474 15.9912 4.90552 16.1432 6.25818M15.4765 11.5782V13.5782C15.4773 13.7638 15.4392 13.9476 15.3649 14.1177C15.2905 14.2879 15.1814 14.4406 15.0446 14.5661C14.9078 14.6916 14.7462 14.7872 14.5704 14.8466C14.3945 14.9061 14.2081 14.9282 14.0232 14.9115C11.9717 14.6886 10.0012 13.9876 8.26985 12.8648C6.65907 11.8413 5.29341 10.4756 4.26985 8.86484C3.14317 7.12565 2.44201 5.14551 2.22318 3.08484C2.20652 2.90049 2.22843 2.71468 2.28752 2.53926C2.3466 2.36384 2.44157 2.20264 2.56636 2.06592C2.69116 1.92921 2.84305 1.81998 3.01238 1.74519C3.1817 1.6704 3.36475 1.63168 3.54985 1.63151H5.54985C5.87339 1.62833 6.18705 1.7429 6.43236 1.95387C6.67767 2.16483 6.8379 2.45781 6.88318 2.77818C6.9676 3.41822 7.12415 4.04666 7.34985 4.65151C7.43955 4.89013 7.45896 5.14945 7.40579 5.39876C7.35262 5.64807 7.22909 5.87692 7.04985 6.05818L6.20318 6.90484C7.15222 8.57387 8.53415 9.95581 10.2032 10.9048L11.0499 10.0582C11.2311 9.87894 11.46 9.75541 11.7093 9.70224C11.9586 9.64907 12.2179 9.66848 12.4565 9.75818C13.0614 9.98388 13.6898 10.1404 14.3299 10.2248C14.6537 10.2705 14.9495 10.4336 15.1609 10.6832C15.3723 10.9327 15.4846 11.2512 15.4765 11.5782Z" stroke="#C50709" stroke-width="1.3" stroke-linecap="round" stroke-linejoin="round"/>
</g>
<defs>
<clipPath id="clip0_779_6610">
<rect width="16" height="16" fill="white" transform="translate(0.80957 0.298828)"/>
</clipPath>
</defs>
</svg>
