<svg width="14" height="13" viewBox="0 0 14 13" fill="none" xmlns="http://www.w3.org/2000/svg">
<path d="M13.4163 10.2917C13.4163 10.579 13.2934 10.8545 13.0746 11.0577C12.8558 11.2609 12.5591 11.375 12.2497 11.375H1.74967C1.44026 11.375 1.14351 11.2609 0.924717 11.0577C0.705924 10.8545 0.583008 10.579 0.583008 10.2917V4.33333C0.583008 4.04602 0.705924 3.77047 0.924717 3.5673C1.14351 3.36414 1.44026 3.25 1.74967 3.25H4.08301L5.24967 1.625H8.74967L9.91634 3.25H12.2497C12.5591 3.25 12.8558 3.36414 13.0746 3.5673C13.2934 3.77047 13.4163 4.04602 13.4163 4.33333V10.2917Z" stroke="#C50709" stroke-width="0.9" stroke-linecap="round" stroke-linejoin="round"/>
<path d="M7.00033 9.20833C8.28899 9.20833 9.33366 8.23828 9.33366 7.04167C9.33366 5.84505 8.28899 4.875 7.00033 4.875C5.71166 4.875 4.66699 5.84505 4.66699 7.04167C4.66699 8.23828 5.71166 9.20833 7.00033 9.20833Z" stroke="#C50709" stroke-width="0.9" stroke-linecap="round" stroke-linejoin="round"/>
</svg>
