<svg width="21" height="21" viewBox="0 0 21 21" fill="none" xmlns="http://www.w3.org/2000/svg">
<g clip-path="url(#clip0_759_6101)">
<path d="M14.084 0.555664H6.58398C4.92638 0.555664 3.33667 1.21414 2.16457 2.38625C0.992465 3.55835 0.333984 5.14806 0.333984 6.80566L0.333984 14.3057C0.333984 15.9633 0.992465 17.553 2.16457 18.7251C3.33667 19.8972 4.92638 20.5557 6.58398 20.5557H14.084C15.7416 20.5557 17.3313 19.8972 18.5034 18.7251C19.6755 17.553 20.334 15.9633 20.334 14.3057V6.80566C20.334 5.14806 19.6755 3.55835 18.5034 2.38625C17.3313 1.21414 15.7416 0.555664 14.084 0.555664ZM18.459 14.3057C18.459 16.7182 16.4965 18.6807 14.084 18.6807H6.58398C4.17148 18.6807 2.20898 16.7182 2.20898 14.3057V6.80566C2.20898 4.39316 4.17148 2.43066 6.58398 2.43066H14.084C16.4965 2.43066 18.459 4.39316 18.459 6.80566V14.3057Z" fill="#C50709"/>
<path d="M10.334 5.55566C9.0079 5.55566 7.73613 6.08245 6.79845 7.02013C5.86077 7.95781 5.33398 9.22958 5.33398 10.5557C5.33398 11.8817 5.86077 13.1535 6.79845 14.0912C7.73613 15.0289 9.0079 15.5557 10.334 15.5557C11.6601 15.5557 12.9318 15.0289 13.8695 14.0912C14.8072 13.1535 15.334 11.8817 15.334 10.5557C15.334 9.22958 14.8072 7.95781 13.8695 7.02013C12.9318 6.08245 11.6601 5.55566 10.334 5.55566ZM10.334 13.6807C9.50549 13.6797 8.71121 13.3501 8.12537 12.7643C7.53954 12.1784 7.20998 11.3842 7.20898 10.5557C7.20898 8.83191 8.61148 7.43066 10.334 7.43066C12.0565 7.43066 13.459 8.83191 13.459 10.5557C13.459 12.2782 12.0565 13.6807 10.334 13.6807Z" fill="#C50709"/>
<path d="M15.7073 5.84715C16.0752 5.84715 16.3735 5.54886 16.3735 5.1809C16.3735 4.81294 16.0752 4.51465 15.7073 4.51465C15.3393 4.51465 15.041 4.81294 15.041 5.1809C15.041 5.54886 15.3393 5.84715 15.7073 5.84715Z" fill="#C50709"/>
</g>
<defs>
<clipPath id="clip0_759_6101">
<rect width="20" height="20" fill="white" transform="translate(0.333984 0.555664)"/>
</clipPath>
</defs>
</svg>
