<?xml version="1.0" standalone="no"?>
<!DOCTYPE svg PUBLIC "-//W3C//DTD SVG 20010904//EN"
 "http://www.w3.org/TR/2001/REC-SVG-20010904/DTD/svg10.dtd">
<svg version="1.0" xmlns="http://www.w3.org/2000/svg"
 width="36.000000pt" height="25.000000pt" viewBox="0 0 36.000000 25.000000"
 preserveAspectRatio="xMidYMid meet">

<g transform="translate(0.000000,25.000000) scale(0.100000,-0.100000)"
fill="#000000" stroke="none">
<path d="M90 226 c-21 -12 -24 -20 -21 -58 2 -38 -1 -46 -21 -55 -21 -9 -23
-16 -18 -54 l5 -44 3 40 c6 81 78 81 84 0 l3 -40 5 43 c5 40 3 45 -22 58 -23
12 -28 21 -28 52 0 26 6 41 20 50 32 20 60 -4 60 -50 0 -20 -3 -39 -7 -41 -11
-7 -3 -127 8 -127 5 0 9 27 9 60 0 59 1 61 33 76 31 15 36 15 65 0 31 -16 32
-19 32 -76 0 -78 17 -78 22 1 l3 60 -45 25 c-42 24 -47 24 -72 10 -37 -22 -40
-21 -36 20 2 29 -2 38 -22 50 -31 16 -29 16 -60 0z"/>
<path d="M92 148 c3 -7 15 -12 28 -12 13 0 25 5 28 12 2 8 -7 12 -28 12 -21 0
-30 -4 -28 -12z"/>
<path d="M213 113 c15 -2 37 -2 50 0 12 2 0 4 -28 4 -27 0 -38 -2 -22 -4z"/>
<path d="M213 83 c15 -2 37 -2 50 0 12 2 0 4 -28 4 -27 0 -38 -2 -22 -4z"/>
<path d="M52 38 c3 -7 15 -12 28 -12 13 0 25 5 28 12 2 8 -7 12 -28 12 -21 0
-30 -4 -28 -12z"/>
<path d="M192 26 c2 -15 11 -19 43 -19 32 0 41 4 43 19 2 16 -4 19 -43 19 -39
0 -45 -3 -43 -19z m55 -2 c-3 -3 -12 -4 -19 -1 -8 3 -5 6 6 6 11 1 17 -2 13
-5z"/>
</g>
</svg>
