<svg width="15" height="15" viewBox="0 0 15 15" fill="none" xmlns="http://www.w3.org/2000/svg">
<path fill-rule="evenodd" clip-rule="evenodd" d="M6.48385 0.481346C7.00924 -0.160448 7.99076 -0.16045 8.51622 0.481346L9.16749 1.27686L10.1293 0.913573C10.9053 0.620493 11.7552 1.11122 11.8893 1.92976L12.0557 2.94435L13.0703 3.11063C13.8888 3.24479 14.3795 4.09476 14.0865 4.87072L13.7231 5.83251L14.5187 6.48381C15.1604 7.00927 15.1604 7.99072 14.5187 8.51618L13.7231 9.16752L14.0865 10.1293C14.3795 10.9052 13.8888 11.7552 13.0703 11.8894L12.0557 12.0556L11.8894 13.0702C11.7552 13.8888 10.9053 14.3795 10.1293 14.0864L9.16749 13.7232L8.51622 14.5186C7.99076 15.1605 7.00924 15.1605 6.48385 14.5186L5.83252 13.7232L4.87072 14.0864C4.09476 14.3795 3.24479 13.8888 3.11064 13.0702L2.94434 12.0556L1.92976 11.8894C1.11122 11.7552 0.620495 10.9052 0.913575 10.1293L1.27686 9.16752L0.481348 8.51618C-0.160448 7.99072 -0.160451 7.00927 0.481348 6.48381L1.27686 5.83251L0.913575 4.87072C0.620488 4.09476 1.11122 3.24479 1.92976 3.11063L2.94434 2.94435L3.11064 1.92976C3.24479 1.11122 4.09477 0.620493 4.87072 0.913573L5.83252 1.27686L6.48385 0.481346ZM6.97963 10.2626L11.5763 5.66602L10.6476 4.73737L6.5153 8.86966L4.35299 6.70734L3.42433 7.63599L6.05097 10.2626C6.17412 10.3858 6.34116 10.455 6.5153 10.455C6.68945 10.455 6.85651 10.3858 6.97963 10.2626Z" fill="#C50709"/>
</svg>
