<svg width="17" height="19" viewBox="0 0 17 19" fill="none" xmlns="http://www.w3.org/2000/svg">
<path d="M6.12673 13.4867C6.12673 14.5805 5.32727 15.474 4.34862 15.474C3.36308 15.474 2.56592 14.5805 2.56592 13.4867C2.56592 12.9583 2.75374 12.4515 3.08806 12.0778C3.42238 11.7042 3.87582 11.4943 4.34862 11.4943C5.32727 11.4943 6.12673 12.3878 6.12673 13.4867Z" fill="#343434"/>
<path opacity="0.2" d="M6.12673 13.4867C6.12673 14.5805 5.32727 15.474 4.34862 15.474C3.36308 15.474 2.56592 14.5805 2.56592 13.4867C2.56592 12.9583 2.75374 12.4515 3.08806 12.0778C3.42238 11.7042 3.87582 11.4943 4.34862 11.4943C5.32727 11.4943 6.12673 12.3878 6.12673 13.4867Z" fill="#343434"/>
<path d="M4.34582 15.0925C3.55326 15.0925 2.90771 14.3736 2.90771 13.4904C2.90771 12.6045 3.55326 11.8805 4.34582 11.8805C5.13609 11.8805 5.77934 12.602 5.77934 13.4904C5.78163 14.371 5.13839 15.0925 4.34582 15.0925Z" fill="#343434"/>
<path d="M4.34582 15.0925C3.55326 15.0925 2.90771 14.3736 2.90771 13.4904C2.90771 12.6045 3.55326 11.8805 4.34582 11.8805C5.13609 11.8805 5.77934 12.602 5.77934 13.4904C5.78163 14.371 5.13839 15.0925 4.34582 15.0925Z" fill="#343434"/>
<path d="M5.37631 13.4153C5.37631 14.0495 4.91225 14.5681 4.34482 14.5681C3.77509 14.5681 3.31104 14.0495 3.31104 13.4153C3.31104 12.7785 3.77509 12.2599 4.34482 12.2599C4.91225 12.2599 5.37631 12.776 5.37631 13.4153Z" fill="#E6E6E6"/>
<path d="M4.34532 15.6055C3.29775 15.6055 2.44775 14.6555 2.44775 13.4898C2.44775 12.319 3.30005 11.3665 4.34532 11.3665C5.39059 11.3665 6.23829 12.319 6.23829 13.4898C6.24059 14.6555 5.39059 15.6055 4.34532 15.6055ZM4.34532 11.6232C3.42411 11.6232 2.67748 12.4602 2.67748 13.4898C2.67748 14.5143 3.4264 15.3488 4.34532 15.3488C5.26194 15.3488 6.00857 14.5143 6.00857 13.4898C6.01086 12.4602 5.26424 11.6232 4.34532 11.6232Z" fill="black"/>
<path d="M4.34543 14.6943C4.04118 14.6943 3.74937 14.5594 3.53402 14.3192C3.31867 14.079 3.19739 13.7531 3.19678 13.4131C3.19678 12.7044 3.71137 12.1293 4.34543 12.1293C4.64967 12.13 4.94124 12.2655 5.15616 12.5062C5.37108 12.7469 5.49178 13.073 5.49178 13.4131C5.49178 14.1217 4.97718 14.6943 4.34543 14.6943ZM4.34543 12.3886C3.83772 12.3886 3.42651 12.8482 3.42651 13.4156C3.42673 13.6184 3.48072 13.8165 3.58166 13.985C3.68259 14.1535 3.82594 14.2848 3.99359 14.3622C4.16125 14.4397 4.34568 14.4599 4.52361 14.4203C4.70153 14.3807 4.86495 14.283 4.99324 14.1396C5.12152 13.9963 5.20891 13.8136 5.24436 13.6148C5.27981 13.4159 5.26173 13.2098 5.19241 13.0224C5.12308 12.835 5.00563 12.6748 4.85488 12.562C4.70413 12.4492 4.52685 12.3889 4.34543 12.3886Z" fill="black"/>
<path d="M15.3928 13.4867C15.3928 14.5805 14.5934 15.474 13.6147 15.474C12.6292 15.474 11.832 14.5805 11.832 13.4867C11.832 12.9583 12.0199 12.4515 12.3542 12.0778C12.6885 11.7042 13.1419 11.4943 13.6147 11.4943C14.5934 11.4943 15.3928 12.3878 15.3928 13.4867Z" fill="#343434"/>
<path opacity="0.2" d="M15.3928 13.4867C15.3928 14.5805 14.5934 15.474 13.6147 15.474C12.6292 15.474 11.832 14.5805 11.832 13.4867C11.832 12.9583 12.0199 12.4515 12.3542 12.0778C12.6885 11.7042 13.1419 11.4943 13.6147 11.4943C14.5934 11.4943 15.3928 12.3878 15.3928 13.4867Z" fill="#343434"/>
<path d="M13.6142 15.0925C12.8217 15.0925 12.1738 14.3736 12.1738 13.4904C12.1738 12.6045 12.8194 11.8805 13.6142 11.8805C14.4045 11.8805 15.0477 12.602 15.0477 13.4904C15.0477 14.371 14.4045 15.0925 13.6142 15.0925Z" fill="#343434"/>
<path d="M14.6419 13.4153C14.6419 14.0495 14.1779 14.5681 13.6104 14.5681C13.0407 14.5681 12.5767 14.0495 12.5767 13.4153C12.5767 12.7785 13.0407 12.2599 13.6104 12.2599C14.1779 12.2599 14.6419 12.776 14.6419 13.4153Z" fill="#E6E6E6"/>
<path d="M13.6132 15.6055C12.5657 15.6055 11.7134 14.6555 11.7134 13.4898C11.7134 12.319 12.5657 11.3665 13.6132 11.3665C14.6585 11.3665 15.5062 12.319 15.5062 13.4898C15.5062 14.6555 14.6562 15.6055 13.6132 15.6055ZM13.6132 11.6232C12.692 11.6232 11.9431 12.4602 11.9431 13.4898C11.9431 14.5143 12.692 15.3488 13.6132 15.3488C14.5299 15.3488 15.2765 14.5143 15.2765 13.4898C15.2765 12.4602 14.5299 11.6232 13.6132 11.6232Z" fill="black"/>
<path d="M13.6115 14.6943C13.3073 14.6943 13.0155 14.5594 12.8001 14.3192C12.5848 14.079 12.4635 13.7531 12.4629 13.4131C12.4629 12.7044 12.9775 12.1293 13.6115 12.1293C13.9158 12.13 14.2074 12.2655 14.4223 12.5062C14.6372 12.7469 14.7579 13.073 14.7579 13.4131C14.7579 14.1217 14.2433 14.6943 13.6115 14.6943ZM13.6115 12.3886C13.1061 12.3886 12.6926 12.8482 12.6926 13.4156C12.6928 13.6184 12.7468 13.8165 12.8478 13.985C12.9487 14.1535 13.0921 14.2848 13.2597 14.3622C13.4274 14.4397 13.6118 14.4599 13.7897 14.4203C13.9676 14.3807 14.1311 14.283 14.2594 14.1396C14.3876 13.9963 14.475 13.8136 14.5105 13.6148C14.5459 13.4159 14.5278 13.2098 14.4585 13.0224C14.3892 12.835 14.2717 12.6748 14.121 12.562C13.9702 12.4492 13.793 12.3889 13.6115 12.3886Z" fill="black"/>
<path d="M13.608 11.1647H11.8345V7.7627H12.2847C12.542 7.7627 12.7695 7.9527 12.843 8.22999L13.608 11.1647Z" fill="black"/>
<path d="M13.6092 11.2923H11.838C11.7737 11.2923 11.7231 11.2358 11.7231 11.164V7.76192C11.7231 7.69003 11.7737 7.63354 11.838 7.63354H12.2883C12.5961 7.63354 12.8695 7.86463 12.9568 8.19327L13.7218 11.128C13.731 11.1665 13.7241 11.2076 13.7034 11.241C13.6804 11.2718 13.646 11.2923 13.6092 11.2923ZM11.9529 11.0356H13.4576L12.734 8.26517C12.7054 8.15708 12.6464 8.06219 12.5656 7.99465C12.4849 7.9271 12.3868 7.8905 12.286 7.8903H11.9506V11.0356H11.9529Z" fill="black"/>
<path d="M1.83545 9.63879H3.79964V11.0278H1.83545V9.63879Z" fill="black"/>
<path d="M3.80073 11.1555H1.83654C1.77222 11.1555 1.72168 11.099 1.72168 11.0271V9.63802C1.72168 9.56613 1.77222 9.50964 1.83654 9.50964H3.80073C3.86506 9.50964 3.9156 9.56613 3.9156 9.63802V11.0271C3.9156 11.099 3.86276 11.1555 3.80073 11.1555ZM1.95141 10.8987H3.68587V9.7664H1.95141V10.8987Z" fill="black"/>
<path d="M1.41602 9.80786H1.83642V10.8606H1.41602V9.80786Z" fill="#FCC222"/>
<path d="M1.83507 10.9882H1.41467C1.35035 10.9882 1.2998 10.9317 1.2998 10.8598V9.80709C1.2998 9.7352 1.35035 9.67871 1.41467 9.67871H1.83507C1.8994 9.67871 1.94994 9.7352 1.94994 9.80709V10.8598C1.94994 10.9317 1.8994 10.9882 1.83507 10.9882ZM1.52953 10.7314H1.72021V9.93547H1.52953V10.7314Z" fill="black"/>
<path d="M11.3672 13.0173C11.3672 11.6334 12.3734 10.5088 13.6116 10.5088C14.8476 10.5088 15.8515 11.6334 15.8515 13.0173H11.3672Z" fill="black"/>
<path opacity="0.2" d="M11.3672 13.0173C11.3672 11.6334 12.3734 10.5088 13.6116 10.5088C14.8476 10.5088 15.8515 11.6334 15.8515 13.0173H11.3672Z" fill="#343434"/>
<path d="M11.7446 12.6319C11.9077 11.646 12.6819 10.8937 13.6123 10.8937C14.5404 10.8937 15.3146 11.6434 15.4777 12.6319H11.7446Z" fill="black"/>
<path d="M15.8502 13.1463H11.3658C11.3015 13.1463 11.251 13.0898 11.251 13.0179C11.251 11.5646 12.3077 10.381 13.6103 10.381C14.9083 10.381 15.965 11.5646 15.965 13.0179C15.965 13.0898 15.9145 13.1463 15.8502 13.1463ZM11.4853 12.8895H15.733C15.6733 11.6365 14.7429 10.6377 13.6103 10.6377C12.4754 10.6403 11.545 11.6365 11.4853 12.8895Z" fill="black"/>
<path d="M12.1936 7.27063H11.2264L11.5641 10.76C11.6422 11.561 11.0794 12.262 10.358 12.262H8.47884C7.65181 12.262 7.0683 11.3582 7.32789 10.4801L7.77587 8.96522H2.40479V12.262H3.31451C3.31451 12.9373 3.80384 13.4841 4.40803 13.4841H11.5802C12.1844 13.4841 12.6737 12.9373 12.6737 12.262L12.1936 7.27063Z" fill="black"/>
<path opacity="0.2" d="M12.1936 7.27063H11.2264L11.5641 10.76C11.6422 11.561 11.0794 12.262 10.358 12.262H8.47884C7.65181 12.262 7.0683 11.3582 7.32789 10.4801L7.77587 8.96522H2.40479V12.262H3.31451C3.31451 12.9373 3.80384 13.4841 4.40803 13.4841H11.5802C12.1844 13.4841 12.6737 12.9373 12.6737 12.262L12.1936 7.27063Z" fill="#343434"/>
<path d="M4.40963 13.0988C4.211 13.0988 4.02051 13.0106 3.88006 12.8536C3.73961 12.6966 3.66071 12.4837 3.66071 12.2617V11.8766H2.75098V9.35011H7.29962L7.00098 10.3592C6.84246 10.8958 6.92057 11.4684 7.21692 11.9254C7.51327 12.3824 7.97273 12.6469 8.48044 12.6469H10.3596C10.8007 12.6469 11.2234 12.4363 11.5198 12.0692C11.6655 11.887 11.7754 11.6727 11.8423 11.44C11.9092 11.2073 11.9316 10.9616 11.908 10.7186L11.6117 7.65552H11.8873L12.3353 12.2797C12.3307 12.4984 12.2499 12.7065 12.11 12.8596C11.97 13.0126 11.7821 13.0984 11.5864 13.0988H4.40963Z" fill="black"/>
<path d="M11.5836 13.613H4.40912C3.78196 13.613 3.26277 13.0738 3.20534 12.3908H2.40588C2.34156 12.3908 2.29102 12.3343 2.29102 12.2624V8.96568C2.29102 8.89379 2.34156 8.8373 2.40588 8.8373H7.77466C7.81142 8.8373 7.84588 8.85784 7.86885 8.89122C7.88953 8.9246 7.89642 8.96825 7.88493 9.00676L7.43696 10.5216C7.32439 10.8991 7.37953 11.3022 7.58858 11.6257C7.68979 11.7841 7.82361 11.913 7.97874 12.0015C8.13387 12.0899 8.30577 12.1354 8.47993 12.1341H10.3591C10.6716 12.1341 10.9679 11.9851 11.177 11.7258C11.2801 11.5976 11.3579 11.4465 11.405 11.2823C11.4521 11.1181 11.4676 10.9446 11.4503 10.7732L11.1126 7.28392C11.108 7.24798 11.1195 7.21203 11.1425 7.18379C11.1655 7.15554 11.1953 7.14014 11.2275 7.14014H12.1947C12.2232 7.13998 12.2508 7.15173 12.2721 7.17309C12.2933 7.19446 12.3067 7.2239 12.3095 7.25568L12.7943 12.247C12.792 13.007 12.2498 13.613 11.5836 13.613ZM2.52075 12.1341H3.31561C3.37993 12.1341 3.43048 12.1905 3.43048 12.2624C3.43048 12.8658 3.86926 13.3562 4.40912 13.3562H11.5836C12.1234 13.3562 12.5622 12.8658 12.5622 12.2624L12.089 7.39946H11.3516L11.6755 10.7476C11.7168 11.1661 11.5951 11.5846 11.3447 11.8978C11.2201 12.0528 11.0678 12.1767 10.8976 12.2616C10.7274 12.3466 10.5432 12.3906 10.3568 12.3908H8.47764C8.26697 12.3923 8.05907 12.3371 7.87153 12.2299C7.68399 12.1226 7.52232 11.9665 7.4002 11.7746C7.27615 11.5848 7.19471 11.3644 7.16273 11.1321C7.13075 10.8997 7.14916 10.6622 7.21642 10.4395L7.61385 9.09406H2.52075V12.1341Z" fill="black"/>
<path d="M1.14795 13.4851C1.14795 11.5132 2.58146 9.91101 4.34579 9.91101C6.10552 9.91101 7.53903 11.5132 7.53903 13.4851H1.14795Z" fill="black"/>
<path opacity="0.2" d="M1.14795 13.4851C1.14795 11.5132 2.58146 9.91101 4.34579 9.91101C6.10552 9.91101 7.53903 11.5132 7.53903 13.4851H1.14795Z" fill="#343434"/>
<path d="M1.51318 13.0996C1.68318 11.5205 2.88926 10.2958 4.34575 10.2958C5.79994 10.2958 7.00372 11.5231 7.17372 13.0996H1.51318Z" fill="black"/>
<path d="M7.54242 13.6125H1.14904C1.08472 13.6125 1.03418 13.5561 1.03418 13.4842C1.03418 11.443 2.52053 9.78174 4.34688 9.78174C6.17094 9.78174 7.65499 11.443 7.65499 13.4842C7.65729 13.5561 7.60445 13.6125 7.54242 13.6125ZM1.26621 13.3558H7.42526C7.36553 11.5148 6.00783 10.0385 4.34918 10.0385C2.68594 10.0385 1.32594 11.5148 1.26621 13.3558Z" fill="black"/>
<path d="M5.70464 11.4308H2.98694C2.92261 11.4308 2.87207 11.3743 2.87207 11.3025C2.87207 11.2306 2.92261 11.1741 2.98694 11.1741H5.70464C5.76896 11.1741 5.8195 11.2306 5.8195 11.3025C5.8195 11.3743 5.76666 11.4308 5.70464 11.4308ZM5.70464 12.1087H2.98694C2.92261 12.1087 2.87207 12.0522 2.87207 11.9803C2.87207 11.9084 2.92261 11.8519 2.98694 11.8519H5.70464C5.76896 11.8519 5.8195 11.9084 5.8195 11.9803C5.8195 12.0522 5.76666 12.1087 5.70464 12.1087ZM5.70464 12.7865H2.98694C2.92261 12.7865 2.87207 12.73 2.87207 12.6581C2.87207 12.5862 2.92261 12.5297 2.98694 12.5297H5.70464C5.76896 12.5297 5.8195 12.5862 5.8195 12.6581C5.8195 12.73 5.76666 12.7865 5.70464 12.7865Z" fill="black"/>
<path d="M8.24967 8.7885L8.40358 8.26985C8.46561 8.05931 8.32548 7.84106 8.12561 7.84106H2.34791C2.1871 7.84106 2.05615 7.98742 2.05615 8.16715V8.68579C2.05615 8.86552 2.1871 9.01187 2.34791 9.01187H7.97169C8.09804 9.01187 8.20831 8.92201 8.24967 8.7885Z" fill="#343434"/>
<path d="M7.97035 9.14059H2.34656C2.12143 9.14059 1.93994 8.93518 1.93994 8.68613V8.16491C1.93994 7.91329 2.12373 7.71045 2.34656 7.71045H8.12197C8.18658 7.71012 8.25034 7.72698 8.30796 7.75965C8.36559 7.79231 8.41543 7.83983 8.45337 7.89829C8.49131 7.95675 8.51625 8.02446 8.52613 8.09582C8.53602 8.16719 8.53056 8.24016 8.51021 8.3087L8.35629 8.82735C8.30116 9.01478 8.14494 9.14059 7.97035 9.14059ZM2.34656 7.96721C2.29965 7.96721 2.25466 7.98804 2.22148 8.02512C2.18831 8.06219 2.16967 8.11248 2.16967 8.16491V8.68356C2.16967 8.79397 2.25008 8.88126 2.34656 8.88126H7.97035C8.04616 8.88126 8.11508 8.82735 8.13805 8.74518L8.29197 8.22654C8.31035 8.16491 8.30116 8.10072 8.2667 8.04681C8.24999 8.02143 8.22819 8.00079 8.20306 7.98652C8.17793 7.97225 8.15016 7.96476 8.12197 7.96464H2.34656V7.96721Z" fill="black"/>
<path d="M12.228 5.63513C12.7013 5.63513 13.0872 6.05365 13.0872 6.56716C13.0872 7.08067 12.7036 7.49919 12.228 7.49919V5.63513Z" fill="#E6E6E6"/>
<path d="M12.2291 7.62813C12.1648 7.62813 12.1143 7.57165 12.1143 7.49976V5.6357C12.1143 5.56381 12.1648 5.50732 12.2291 5.50732C12.7644 5.50732 13.2009 5.98232 13.2009 6.56773C13.2032 7.15313 12.7667 7.62813 12.2291 7.62813ZM12.344 5.77435V7.36368C12.7001 7.30462 12.9711 6.97084 12.9711 6.5703C12.9734 6.16719 12.7001 5.83341 12.344 5.77435Z" fill="black"/>
<path d="M12.4621 7.68949C11.5202 7.68949 10.7529 7.18625 10.7529 6.56746C10.7529 5.94868 11.5179 5.44543 12.4621 5.44543V7.68949Z" fill="black"/>
<path opacity="0.2" d="M12.4621 7.68949C11.5202 7.68949 10.7529 7.18625 10.7529 6.56746C10.7529 5.94868 11.5179 5.44543 12.4621 5.44543V7.68949Z" fill="#343434"/>
<path d="M12.4622 7.39937C11.7639 7.39937 11.1987 7.02708 11.1987 6.56748C11.1987 6.11046 11.7662 5.73816 12.4622 5.73816V7.39937Z" fill="black"/>
<path d="M12.4632 7.81844C11.4409 7.81844 10.6392 7.26898 10.6392 6.56803C10.6392 5.86709 11.4409 5.31763 12.4632 5.31763C12.5275 5.31763 12.5781 5.37411 12.5781 5.44601V7.69006C12.5781 7.76195 12.5275 7.81844 12.4632 7.81844ZM12.3483 5.57695C11.5351 5.61546 10.8689 6.05195 10.8689 6.56803C10.8689 7.08411 11.5351 7.5206 12.3483 7.55911V5.57695Z" fill="black"/>
<path d="M11.2894 6.9758C11.2894 7.17607 11.1424 7.33782 10.9655 7.33782C10.7886 7.33782 10.6416 7.1735 10.6416 6.9758C10.6416 6.77553 10.7886 6.61377 10.9655 6.61377C11.1424 6.61377 11.2894 6.77809 11.2894 6.9758Z" fill="#343434"/>
<path d="M10.9617 7.4689C10.8454 7.4689 10.7338 7.41723 10.6515 7.32526C10.5692 7.23329 10.5229 7.10855 10.5229 6.97849C10.5229 6.84843 10.5692 6.72369 10.6515 6.63172C10.7338 6.53975 10.8454 6.48809 10.9617 6.48809C11.0781 6.48809 11.1897 6.53975 11.272 6.63172C11.3543 6.72369 11.4005 6.84843 11.4005 6.97849C11.4005 7.10855 11.3543 7.23329 11.272 7.32526C11.1897 7.41723 11.0781 7.4689 10.9617 7.4689ZM10.9617 6.74227C10.8469 6.74227 10.7527 6.84755 10.7527 6.97592C10.7527 7.1043 10.8469 7.20957 10.9617 7.20957C11.0766 7.20957 11.1708 7.1043 11.1708 6.97592C11.1708 6.84755 11.0789 6.74227 10.9617 6.74227ZM11.7681 6.76538C11.7198 6.76538 11.6739 6.72944 11.6578 6.67552L11.2971 5.39944C11.2917 5.38097 11.2813 5.36486 11.2673 5.35335C11.2533 5.34184 11.2364 5.33551 11.219 5.33525H10.964C10.8997 5.33525 10.8492 5.27876 10.8492 5.20687C10.8492 5.13498 10.8997 5.07849 10.964 5.07849H11.219C11.3569 5.07849 11.4763 5.17606 11.5177 5.32241L11.8784 6.59849C11.8967 6.66525 11.8646 6.73714 11.8025 6.76025C11.7911 6.76538 11.7796 6.76538 11.7681 6.76538Z" fill="black"/>
<path d="M10.6392 4.54797C10.9332 4.54797 11.1721 4.8073 11.1721 5.12824C11.1721 5.44662 10.9332 5.70595 10.6392 5.70595V4.54797Z" fill="#343434"/>
<path d="M10.6378 5.83355C10.5735 5.83355 10.5229 5.77707 10.5229 5.70517V4.5472C10.5229 4.47531 10.5735 4.41882 10.6378 4.41882C10.9962 4.41882 11.2857 4.7372 11.2857 5.12747C11.2857 5.51774 10.9939 5.83355 10.6378 5.83355ZM10.7527 4.69355V5.56139C10.9273 5.50747 11.0559 5.33288 11.0559 5.12747C11.0559 4.92207 10.9273 4.74747 10.7527 4.69355Z" fill="black"/>
</svg>
