<svg width="15" height="14" viewBox="0 0 15 14" fill="none" xmlns="http://www.w3.org/2000/svg">
<path d="M1.875 3.5H3.125H13.125" stroke="#C50709" stroke-linecap="round" stroke-linejoin="round"/>
<path d="M11.875 3.49935V11.666C11.875 11.9754 11.7433 12.2722 11.5089 12.491C11.2745 12.7098 10.9565 12.8327 10.625 12.8327H4.375C4.04348 12.8327 3.72554 12.7098 3.49112 12.491C3.2567 12.2722 3.125 11.9754 3.125 11.666V3.49935M5 3.49935V2.33268C5 2.02326 5.1317 1.72652 5.36612 1.50772C5.60054 1.28893 5.91848 1.16602 6.25 1.16602H8.75C9.08152 1.16602 9.39946 1.28893 9.63388 1.50772C9.8683 1.72652 10 2.02326 10 2.33268V3.49935" stroke="#C50709" stroke-linecap="round" stroke-linejoin="round"/>
<path d="M6.25 6.41602V9.91602" stroke="#C50709" stroke-linecap="round" stroke-linejoin="round"/>
<path d="M8.75 6.41602V9.91602" stroke="#C50709" stroke-linecap="round" stroke-linejoin="round"/>
</svg>
