<svg width="15" height="14" viewBox="0 0 15 14" fill="none" xmlns="http://www.w3.org/2000/svg">
<g clip-path="url(#clip0_673_1011)">
<path fill-rule="evenodd" clip-rule="evenodd" d="M12.8784 12.111H12.1387V13.2141C12.139 13.3176 12.1178 13.4201 12.0763 13.5159C12.0348 13.6116 11.9739 13.6987 11.8969 13.7721C11.82 13.8455 11.7285 13.9038 11.6278 13.9437C11.527 13.9836 11.419 14.0043 11.3098 14.0046H10.8215C10.602 14.0037 10.3917 13.9206 10.2365 13.7734C10.0813 13.6262 9.99364 13.4268 9.99268 13.2187V12.1157H4.98291V13.2187C4.98194 13.4274 4.8938 13.6273 4.73778 13.7746C4.58176 13.9219 4.37056 14.0046 4.15039 14.0046H3.66211C3.44269 14.0037 3.23256 13.9205 3.07752 13.7733C2.92248 13.6261 2.83511 13.4267 2.83447 13.2187V12.1157H2.20947C1.77734 12.1087 1.56982 11.8842 1.53809 11.5034V2.49068C1.29395 2.51383 1.17798 2.56707 1.11938 2.68512V5.26035H0.594482C0.436915 5.26005 0.285893 5.20056 0.174476 5.09492C0.0630589 4.98928 0.000322555 4.84609 0 4.6967L0 3.17586C0.000549443 3.02931 0.061032 2.88868 0.168721 2.78355C0.27641 2.67842 0.422909 2.617 0.577393 2.61221C0.627441 2.17008 0.828857 2.0416 1.55396 2.0092C1.65731 1.23759 2.21191 0.666989 3.21777 0.29739C5.38208 -0.078767 9.48852 -0.115804 11.7822 0.29739C12.793 0.666603 13.3447 1.23721 13.4448 2.0092C14.1772 2.04392 14.3738 2.17355 14.4214 2.61221C14.5759 2.617 14.7224 2.67842 14.8301 2.78355C14.9377 2.88868 14.9982 3.02931 14.9988 3.17586V4.6967C14.9985 4.84609 14.9357 4.98928 14.8243 5.09492C14.7129 5.20056 14.5619 5.26005 14.4043 5.26035H13.8794V2.67818C13.8208 2.56244 13.7 2.51151 13.4607 2.48952V11.4108C13.4607 11.927 13.2849 12.1053 12.8772 12.1053L12.8784 12.111ZM1.96899 9.82285L2.00317 9.04855C2.02271 8.91313 2.09839 8.85295 2.23389 8.87494C2.91807 9.22123 3.57453 9.61465 4.198 10.052C4.33105 10.1354 4.27856 10.2962 4.10278 10.2661L2.25586 10.1388C2.17585 10.1279 2.10271 10.0899 2.04997 10.0318C1.99723 9.97373 1.96847 9.8995 1.96899 9.82285ZM6.34766 10.8159H8.70361C8.73405 10.8159 8.76323 10.8274 8.78475 10.8478C8.80627 10.8682 8.81836 10.8959 8.81836 10.9247V11.2997C8.81836 11.3286 8.80627 11.3562 8.78475 11.3766C8.76323 11.397 8.73405 11.4085 8.70361 11.4085H6.34766C6.31722 11.4085 6.28804 11.397 6.26652 11.3766C6.245 11.3562 6.23291 11.3286 6.23291 11.2997V10.9247C6.23291 10.8959 6.245 10.8682 6.26652 10.8478C6.28804 10.8274 6.31722 10.8159 6.34766 10.8159ZM12.4939 10.8159C12.5542 10.8164 12.613 10.8337 12.6629 10.8657C12.7129 10.8977 12.7518 10.9429 12.7747 10.9958C12.7977 11.0486 12.8037 11.1067 12.792 11.1628C12.7803 11.2189 12.7514 11.2704 12.7089 11.311C12.6665 11.3516 12.6123 11.3794 12.5533 11.3909C12.4942 11.4025 12.4329 11.3972 12.377 11.3759C12.3211 11.3546 12.273 11.318 12.2389 11.2709C12.2047 11.2238 12.186 11.1682 12.1851 11.111C12.1851 11.0342 12.2172 10.9605 12.2744 10.906C12.3316 10.8516 12.4092 10.8208 12.4902 10.8205L12.4939 10.8159ZM2.40479 10.8159C2.46501 10.8166 2.52369 10.8341 2.57349 10.8662C2.62328 10.8984 2.66198 10.9437 2.68475 10.9966C2.70752 11.0495 2.71334 11.1075 2.7015 11.1635C2.68966 11.2195 2.66067 11.271 2.61816 11.3114C2.57566 11.3519 2.52151 11.3796 2.4625 11.391C2.40349 11.4025 2.34223 11.3972 2.28638 11.3758C2.23053 11.3544 2.18256 11.3179 2.14847 11.2708C2.11438 11.2237 2.09569 11.1682 2.09473 11.111C2.09473 11.034 2.12701 10.9601 2.18447 10.9056C2.24193 10.8511 2.31986 10.8205 2.40112 10.8205L2.40479 10.8159ZM13.0347 9.81707L13.0005 9.04276C12.981 8.90734 12.9053 8.84716 12.771 8.86915C12.0863 9.21517 11.4294 9.6086 10.8057 10.0462C10.6726 10.1296 10.7251 10.2904 10.9009 10.2604L12.7478 10.133C12.8279 10.1224 12.9012 10.0844 12.954 10.0263C13.0068 9.96814 13.0355 9.89378 13.0347 9.81707ZM5.88257 0.707113H9.11743C9.16978 0.707416 9.21989 0.727268 9.25691 0.762366C9.29393 0.797463 9.31487 0.844978 9.31519 0.894613V1.38883C9.31487 1.43846 9.29393 1.48598 9.25691 1.52107C9.21989 1.55617 9.16978 1.57602 9.11743 1.57633H5.88257C5.83022 1.57602 5.78011 1.55617 5.74309 1.52107C5.70607 1.48598 5.68513 1.43846 5.68481 1.38883V0.894613C5.68513 0.844978 5.70607 0.797463 5.74309 0.762366C5.78011 0.727268 5.83022 0.707416 5.88257 0.707113ZM2.48047 2.18859H12.4756C12.5403 2.18859 12.6024 2.21298 12.6482 2.25639C12.694 2.2998 12.7197 2.35868 12.7197 2.42008V7.41776C12.7197 7.54276 12.6111 7.61336 12.4756 7.64924C9.04663 8.63651 5.9082 8.596 2.48047 7.64924C2.34497 7.61452 2.23633 7.54508 2.23633 7.41776V2.41776C2.23633 2.35637 2.26205 2.29749 2.30784 2.25408C2.35362 2.21067 2.41572 2.18628 2.48047 2.18628V2.18859Z" fill="black"/>
</g>
<defs>
<clipPath id="clip0_673_1011">
<rect width="15" height="14" fill="white"/>
</clipPath>
</defs>
</svg>
