<svg width="18" height="26" viewBox="0 0 18 26" fill="none" xmlns="http://www.w3.org/2000/svg">
<path d="M16.4658 22.53C16.4658 22.8981 16.315 23.2511 16.0464 23.5114C15.7779 23.7717 15.4137 23.9179 15.034 23.9179H2.14764C1.7679 23.9179 1.40371 23.7717 1.13519 23.5114C0.866672 23.2511 0.71582 22.8981 0.71582 22.53V14.8963C0.71582 14.5282 0.866672 14.1752 1.13519 13.9149C1.40371 13.6546 1.7679 13.5084 2.14764 13.5084H5.01127L6.44309 11.4265H10.7385L12.1704 13.5084H15.034C15.4137 13.5084 15.7779 13.6546 16.0464 13.9149C16.315 14.1752 16.4658 14.5282 16.4658 14.8963V22.53Z" stroke="#C50709" stroke-linecap="round" stroke-linejoin="round"/>
<path d="M8.59118 21.1421C10.1727 21.1421 11.4548 19.8993 11.4548 18.3662C11.4548 16.8331 10.1727 15.5903 8.59118 15.5903C7.00963 15.5903 5.72754 16.8331 5.72754 18.3662C5.72754 19.8993 7.00963 21.1421 8.59118 21.1421Z" stroke="#C50709" stroke-linecap="round" stroke-linejoin="round"/>
<path d="M14.3641 11.2884V5.89347H15.0928V11.2884H14.3641ZM12.0289 8.95312V8.22869H17.428V8.95312H12.0289Z" fill="#C50709"/>
</svg>
