<svg width="14" height="15" viewBox="0 0 14 15" fill="none" xmlns="http://www.w3.org/2000/svg">
<path d="M13.9133 11.4512C13.8969 11.5713 13.8695 11.6885 13.8285 11.7793C13.7547 11.9404 13.6836 11.9551 13.4047 11.9404C13.0438 11.9229 12.527 11.9404 11.9801 11.9639C11.9801 12.125 11.9855 12.2012 11.9855 12.2012C12.0211 12.6436 12.207 12.6582 12.2809 12.6582H13.4566C13.5605 12.6582 13.6562 12.6582 13.7301 12.6055C13.8258 12.5381 13.8668 12.3418 13.9023 11.999C13.9078 11.9492 13.9105 11.8848 13.9133 11.8086V11.8057C13.9133 11.7822 13.916 11.7529 13.916 11.7207V11.6885C13.916 11.6094 13.916 11.5215 13.9133 11.4512ZM0.0828125 11.4512C0.0992187 11.5713 0.126562 11.6885 0.167578 11.7793C0.241406 11.9404 0.3125 11.9551 0.591406 11.9404C0.952344 11.9229 1.46914 11.9404 2.01602 11.9639C2.01602 12.125 2.01055 12.2012 2.01055 12.2012C1.975 12.6436 1.78906 12.6582 1.71523 12.6582H0.539453C0.435547 12.6582 0.348047 12.6582 0.266016 12.6055C0.167578 12.5439 0.129297 12.3418 0.09375 11.999C0.0882812 11.9492 0.0855469 11.8848 0.0828125 11.8086V11.8057C0.0828125 11.7822 0.0800781 11.7529 0.0800781 11.7207V11.6885C0.0828125 11.6094 0.0828125 11.5215 0.0828125 11.4512Z" fill="#990002"/>
<path d="M14 8.68945C14 7.79004 13.8906 6.91113 13.8469 6.81445C13.8141 6.74414 13.6035 6.55957 13.125 6.21094C12.641 5.85645 12.652 5.90918 12.5645 5.67773C12.6438 5.65137 12.7203 5.60156 12.7668 5.5957C12.8707 5.58398 12.8762 5.68945 13.0922 5.68945C13.3082 5.68945 13.7758 5.62793 13.8715 5.52539C13.9672 5.42285 13.9973 5.3877 13.9973 5.29688C13.9973 5.20606 13.948 5.01855 13.8551 4.90723C13.7621 4.7959 13.3656 4.74023 13.1332 4.70801C12.9008 4.67578 12.868 4.70801 12.8078 4.74902C12.7121 4.81348 12.7066 5.40234 12.7066 5.40234L12.4797 5.4082C12.332 5.01856 12.127 4.2334 11.807 3.61523C11.457 2.94141 11.0906 2.73047 10.9375 2.67773C10.7871 2.62793 10.6504 2.59277 9.625 2.48145C8.57773 2.36426 7.74375 2.34961 7 2.34961C6.25625 2.34961 5.42227 2.36719 4.375 2.48145C3.34961 2.5957 3.21289 2.62793 3.0625 2.67773C2.91211 2.72754 2.54297 2.94141 2.19297 3.61523C1.87305 4.2334 1.66797 5.01856 1.52031 5.4082L1.29336 5.40234C1.29336 5.40234 1.29062 4.81348 1.19219 4.74902C1.13203 4.70801 1.09922 4.67285 0.866797 4.70801C0.634375 4.74316 0.237891 4.7959 0.144922 4.90723C0.0519531 5.01855 0.00273437 5.20606 0.00273437 5.29688C0.00273437 5.3877 0.0328125 5.42578 0.128516 5.52539C0.224219 5.62793 0.691797 5.68945 0.907813 5.68945C1.12383 5.68945 1.1293 5.58398 1.2332 5.5957C1.27969 5.60156 1.35898 5.65137 1.43555 5.67773C1.34531 5.90918 1.35898 5.85645 0.875 6.21094C0.396484 6.5625 0.183203 6.74414 0.153125 6.81445C0.109375 6.91113 0 7.79004 0 8.68945C0 9.58887 0.0601563 10.3975 0.0601563 10.6846C0.0601563 10.8047 0.0601562 11.0156 0.0847656 11.2178C0.101172 11.3379 0.125781 11.4551 0.169531 11.5459C0.243359 11.707 0.311719 11.7217 0.593359 11.707C0.954297 11.6895 1.47656 11.707 2.01523 11.7305C2.37617 11.7451 2.74531 11.7598 3.07344 11.7686C3.89375 11.7861 3.65312 11.6396 4.00312 11.6455C4.35312 11.6514 5.73398 11.7129 6.99727 11.7129C8.26055 11.7129 9.64414 11.6514 9.99141 11.6455C10.3414 11.6396 10.1008 11.7861 10.9211 11.7686C11.2492 11.7627 11.6184 11.7451 11.9793 11.7305C12.518 11.71 13.043 11.6895 13.4012 11.707C13.6828 11.7217 13.7512 11.707 13.825 11.5459C13.866 11.4551 13.8934 11.3379 13.9098 11.2178C13.9371 11.0156 13.9344 10.8047 13.9344 10.6846C13.9398 10.4004 14 9.58887 14 8.68945ZM2.35703 4.25391C2.48828 3.92578 2.88203 3.2666 3.07344 3.14941C3.11992 3.12012 3.52734 2.98242 4.54727 2.90918C5.48516 2.8418 6.52148 2.81543 7.00273 2.81543C7.48398 2.81543 8.52031 2.8418 9.4582 2.90918C10.4754 2.98242 10.8883 3.11719 10.932 3.14941C11.1781 3.33105 11.5172 3.92578 11.6484 4.25391C11.7797 4.58203 11.9547 5.22656 11.9219 5.31445C11.8891 5.40234 11.9547 5.44629 11.5117 5.4082C11.0715 5.37305 8.30703 5.33496 7.00547 5.33496C5.70664 5.33496 2.94219 5.37305 2.49922 5.4082C2.05625 5.44336 2.12188 5.40234 2.08906 5.31445C2.05078 5.22656 2.22578 4.58496 2.35703 4.25391ZM3.36328 7.92188C3.16641 7.97461 3.04883 8.08887 2.80273 8.08594C2.55664 8.08594 1.89219 7.96582 1.75 7.95996C1.60781 7.9541 1.48203 8.0625 1.4082 8.08301C1.33438 8.10352 1.18945 8.04785 0.970703 7.97461C0.751953 7.90137 0.623438 7.92188 0.552344 7.60254C0.478516 7.28613 0.552344 6.83203 0.552344 6.83203C1.02539 6.80859 1.48203 6.85547 2.33789 7.11328C3.19375 7.37109 3.66953 7.86621 3.66953 7.86621C3.66953 7.86621 3.56016 7.86914 3.36328 7.92188ZM9.79453 10.2305C9.40352 10.2861 7.76562 10.3008 7 10.3008C6.23438 10.3008 4.59648 10.2832 4.20547 10.2305C3.80625 10.1748 3.28672 9.66211 3.64492 9.25488C4.12891 8.70117 4.03867 8.71875 5.13789 8.56641C6.08945 8.43457 6.81133 8.42871 7 8.42871C7.18594 8.42871 7.91055 8.4375 8.86211 8.56641C9.96133 8.71875 9.87109 8.70117 10.3551 9.25488C10.7133 9.66211 10.1938 10.1748 9.79453 10.2305ZM13.4477 7.60547C13.3738 7.92188 13.248 7.9043 13.0293 7.97754C12.8105 8.05078 12.6656 8.10352 12.5918 8.08594C12.518 8.06836 12.3922 7.95996 12.25 7.96289C12.1078 7.96875 11.4434 8.08887 11.1973 8.08887C10.9512 8.08887 10.8336 7.97754 10.6367 7.92481C10.4398 7.87207 10.3305 7.87207 10.3305 7.87207C10.3305 7.87207 10.8035 7.37402 11.6621 7.11914C12.518 6.86133 12.9746 6.81445 13.4477 6.83789C13.4477 6.83203 13.5215 7.28613 13.4477 7.60547Z" fill="#990002"/>
</svg>
