<svg width="17" height="18" viewBox="0 0 17 18" fill="none" xmlns="http://www.w3.org/2000/svg">
<rect width="17" height="18" fill="white"/>
<path d="M16.8941 13.7418C16.8742 13.886 16.841 14.0266 16.7912 14.1356C16.7016 14.3289 16.6152 14.3465 16.2766 14.3289C15.8383 14.3078 15.2107 14.3289 14.5467 14.3571C14.5467 14.5504 14.5533 14.6418 14.5533 14.6418C14.5965 15.1727 14.8223 15.1903 14.9119 15.1903H16.3396C16.4658 15.1903 16.582 15.1903 16.6717 15.127C16.7879 15.0461 16.8377 14.8106 16.8809 14.3992C16.8875 14.3395 16.8908 14.2621 16.8941 14.1707V14.1672C16.8941 14.1391 16.8975 14.1039 16.8975 14.0653V14.0266C16.8975 13.9317 16.8975 13.8262 16.8941 13.7418ZM0.1 13.7418C0.119922 13.886 0.153125 14.0266 0.20293 14.1356C0.292578 14.3289 0.378906 14.3465 0.717578 14.3289C1.15586 14.3078 1.7834 14.3289 2.44746 14.3571C2.44746 14.5504 2.44082 14.6418 2.44082 14.6418C2.39766 15.1727 2.17188 15.1903 2.08223 15.1903H0.654492C0.52832 15.1903 0.42207 15.1903 0.322461 15.127C0.20293 15.0531 0.156445 14.8106 0.113281 14.3992C0.106641 14.3395 0.10332 14.2621 0.1 14.1707V14.1672C0.1 14.1391 0.0966797 14.1039 0.0966797 14.0653V14.0266C0.1 13.9317 0.1 13.8262 0.1 13.7418Z" fill="#130F0F"/>
<path d="M17 10.4274C17 9.3481 16.8672 8.29341 16.8141 8.17739C16.7742 8.09302 16.5186 7.87153 15.9375 7.45317C15.3498 7.02778 15.3631 7.09106 15.2568 6.81333C15.3531 6.78169 15.4461 6.72192 15.5025 6.71489C15.6287 6.70083 15.6354 6.82739 15.8977 6.82739C16.16 6.82739 16.7277 6.75356 16.8439 6.63052C16.9602 6.50747 16.9967 6.46528 16.9967 6.3563C16.9967 6.24731 16.9369 6.02231 16.824 5.88872C16.7111 5.75513 16.2297 5.68833 15.9475 5.64966C15.6652 5.61099 15.6254 5.64966 15.5523 5.69888C15.4361 5.77622 15.4295 6.48286 15.4295 6.48286L15.1539 6.48989C14.9746 6.02231 14.7256 5.08013 14.3371 4.33833C13.9121 3.52974 13.4672 3.27661 13.2812 3.21333C13.0986 3.15356 12.9326 3.11138 11.6875 2.97778C10.4158 2.83716 9.40312 2.81958 8.5 2.81958C7.59688 2.81958 6.58418 2.84067 5.3125 2.97778C4.06738 3.11489 3.90137 3.15356 3.71875 3.21333C3.53613 3.2731 3.08789 3.52974 2.66289 4.33833C2.27441 5.08013 2.02539 6.02231 1.84609 6.48989L1.57051 6.48286C1.57051 6.48286 1.56719 5.77622 1.44766 5.69888C1.37461 5.64966 1.33477 5.60747 1.05254 5.64966C0.770313 5.69185 0.288867 5.75513 0.175977 5.88872C0.0630859 6.02231 0.00332031 6.24731 0.00332031 6.3563C0.00332031 6.46528 0.0398437 6.51099 0.156055 6.63052C0.272266 6.75356 0.840039 6.82739 1.10234 6.82739C1.36465 6.82739 1.37129 6.70083 1.49746 6.71489C1.55391 6.72192 1.6502 6.78169 1.74316 6.81333C1.63359 7.09106 1.6502 7.02778 1.0625 7.45317C0.481445 7.87505 0.222461 8.09302 0.185937 8.17739C0.132812 8.29341 0 9.3481 0 10.4274C0 11.5067 0.0730469 12.477 0.0730469 12.8215C0.0730469 12.9657 0.0730469 13.2188 0.10293 13.4614C0.122852 13.6055 0.152734 13.7461 0.205859 13.8551C0.295508 14.0485 0.378516 14.0661 0.720508 14.0485C1.15879 14.0274 1.79297 14.0485 2.44707 14.0766C2.88535 14.0942 3.33359 14.1118 3.73203 14.1223C4.72813 14.1434 4.43594 13.9676 4.86094 13.9747C5.28594 13.9817 6.9627 14.0555 8.49668 14.0555C10.0307 14.0555 11.7107 13.9817 12.1324 13.9747C12.5574 13.9676 12.2652 14.1434 13.2613 14.1223C13.6598 14.1153 14.108 14.0942 14.5463 14.0766C15.2004 14.052 15.8379 14.0274 16.2729 14.0485C16.6148 14.0661 16.6979 14.0485 16.7875 13.8551C16.8373 13.7461 16.8705 13.6055 16.8904 13.4614C16.9236 13.2188 16.9203 12.9657 16.9203 12.8215C16.927 12.4805 17 11.5067 17 10.4274ZM2.86211 5.10474C3.02148 4.71099 3.49961 3.91997 3.73203 3.77935C3.78848 3.74419 4.2832 3.57896 5.52168 3.49106C6.66055 3.41021 7.91895 3.37856 8.50332 3.37856C9.0877 3.37856 10.3461 3.41021 11.485 3.49106C12.7201 3.57896 13.2215 3.74067 13.2746 3.77935C13.5734 3.99731 13.9852 4.71099 14.1445 5.10474C14.3039 5.49849 14.5164 6.27192 14.4766 6.37739C14.4367 6.48286 14.5164 6.5356 13.9785 6.48989C13.4439 6.44771 10.0871 6.402 8.50664 6.402C6.92949 6.402 3.57266 6.44771 3.03477 6.48989C2.49688 6.53208 2.57656 6.48286 2.53672 6.37739C2.49023 6.27192 2.70273 5.502 2.86211 5.10474ZM4.08398 9.5063C3.84492 9.56958 3.70215 9.70669 3.40332 9.70317C3.10449 9.70317 2.29766 9.55903 2.125 9.552C1.95234 9.54497 1.79961 9.67505 1.70996 9.69966C1.62031 9.72427 1.44434 9.65747 1.17871 9.56958C0.913086 9.48169 0.757031 9.5063 0.670703 9.1231C0.581055 8.74341 0.670703 8.19849 0.670703 8.19849C1.24512 8.17036 1.79961 8.22661 2.83887 8.53599C3.87812 8.84536 4.45586 9.4395 4.45586 9.4395C4.45586 9.4395 4.32305 9.44302 4.08398 9.5063ZM11.8934 12.2766C11.4186 12.3434 9.42969 12.361 8.5 12.361C7.57031 12.361 5.58145 12.3399 5.10664 12.2766C4.62188 12.2098 3.99102 11.5946 4.42598 11.1059C5.01367 10.4415 4.9041 10.4625 6.23887 10.2797C7.39434 10.1215 8.2709 10.1145 8.5 10.1145C8.72578 10.1145 9.60566 10.125 10.7611 10.2797C12.0959 10.4625 11.9863 10.4415 12.574 11.1059C13.009 11.5946 12.3781 12.2098 11.8934 12.2766ZM16.3293 9.12661C16.2396 9.5063 16.0869 9.4852 15.8213 9.5731C15.5557 9.66099 15.3797 9.72427 15.29 9.70317C15.2004 9.68208 15.0477 9.552 14.875 9.55552C14.7023 9.56255 13.8955 9.70669 13.5967 9.70669C13.2979 9.70669 13.1551 9.5731 12.916 9.50981C12.677 9.44653 12.5441 9.44653 12.5441 9.44653C12.5441 9.44653 13.1186 8.84888 14.1611 8.54302C15.2004 8.23364 15.7549 8.17739 16.3293 8.20552C16.3293 8.19849 16.4189 8.74341 16.3293 9.12661Z" fill="#130F0F"/>
</svg>
