<svg width="17" height="12" viewBox="0 0 17 12" fill="none" xmlns="http://www.w3.org/2000/svg">
<path d="M17 7.84727C17 6.82793 16.8672 5.83184 16.8141 5.72227C16.7742 5.64258 16.5186 5.4334 15.9375 5.03828C15.3498 4.63652 15.3631 4.69629 15.2568 4.43398C15.3531 4.4041 15.4461 4.34766 15.5025 4.34102C15.6287 4.32773 15.6354 4.44727 15.8977 4.44727C16.16 4.44727 16.7277 4.37754 16.8439 4.26133C16.9602 4.14512 16.9967 4.10527 16.9967 4.00234C16.9967 3.89941 16.9369 3.68691 16.824 3.56074C16.7111 3.43457 16.2297 3.37148 15.9475 3.33496C15.6652 3.29844 15.6254 3.33496 15.5523 3.38145C15.4361 3.45449 15.4295 4.12187 15.4295 4.12187L15.1539 4.12852C14.9746 3.68691 14.7256 2.79707 14.3371 2.09648C13.9121 1.33281 13.4672 1.09375 13.2812 1.03398C13.0986 0.977539 12.9326 0.937695 11.6875 0.811523C10.4158 0.678711 9.40312 0.662109 8.5 0.662109C7.59688 0.662109 6.58418 0.682031 5.3125 0.811523C4.06738 0.941016 3.90137 0.977539 3.71875 1.03398C3.53613 1.09043 3.08789 1.33281 2.66289 2.09648C2.27441 2.79707 2.02539 3.68691 1.84609 4.12852L1.57051 4.12187C1.57051 4.12187 1.56719 3.45449 1.44766 3.38145C1.37461 3.33496 1.33477 3.29512 1.05254 3.33496C0.770313 3.3748 0.288867 3.43457 0.175977 3.56074C0.0630859 3.68691 0.00332031 3.89941 0.00332031 4.00234C0.00332031 4.10527 0.0398437 4.14844 0.156055 4.26133C0.272266 4.37754 0.840039 4.44727 1.10234 4.44727C1.36465 4.44727 1.37129 4.32773 1.49746 4.34102C1.55391 4.34766 1.6502 4.4041 1.74316 4.43398C1.63359 4.69629 1.6502 4.63652 1.0625 5.03828C0.481445 5.43672 0.222461 5.64258 0.185937 5.72227C0.132812 5.83184 0 6.82793 0 7.84727C0 8.8666 0.0730469 9.78301 0.0730469 10.1084C0.0730469 10.2445 0.0730469 10.4836 0.10293 10.7127C0.122852 10.8488 0.152734 10.9816 0.205859 11.0846C0.295508 11.2672 0.378516 11.2838 0.720508 11.2672C1.15879 11.2473 1.79297 11.2672 2.44707 11.2938C2.88535 11.3104 3.33359 11.327 3.73203 11.3369C4.72813 11.3568 4.43594 11.1908 4.86094 11.1975C5.28594 11.2041 6.9627 11.2738 8.49668 11.2738C10.0307 11.2738 11.7107 11.2041 12.1324 11.1975C12.5574 11.1908 12.2652 11.3568 13.2613 11.3369C13.6598 11.3303 14.108 11.3104 14.5463 11.2938C15.2004 11.2705 15.8379 11.2473 16.2729 11.2672C16.6148 11.2838 16.6979 11.2672 16.7875 11.0846C16.8373 10.9816 16.8705 10.8488 16.8904 10.7127C16.9236 10.4836 16.9203 10.2445 16.9203 10.1084C16.927 9.78633 17 8.8666 17 7.84727ZM2.86211 2.82031C3.02148 2.44844 3.49961 1.70137 3.73203 1.56855C3.78848 1.53535 4.2832 1.3793 5.52168 1.29629C6.66055 1.21992 7.91895 1.19004 8.50332 1.19004C9.0877 1.19004 10.3461 1.21992 11.485 1.29629C12.7201 1.3793 13.2215 1.53203 13.2746 1.56855C13.5734 1.77441 13.9852 2.44844 14.1445 2.82031C14.3039 3.19219 14.5164 3.92266 14.4766 4.02227C14.4367 4.12187 14.5164 4.17168 13.9785 4.12852C13.4439 4.08867 10.0871 4.04551 8.50664 4.04551C6.92949 4.04551 3.57266 4.08867 3.03477 4.12852C2.49688 4.16836 2.57656 4.12187 2.53672 4.02227C2.49023 3.92266 2.70273 3.19551 2.86211 2.82031ZM4.08398 6.97734C3.84492 7.03711 3.70215 7.1666 3.40332 7.16328C3.10449 7.16328 2.29766 7.02715 2.125 7.02051C1.95234 7.01387 1.79961 7.13672 1.70996 7.15996C1.62031 7.1832 1.44434 7.12012 1.17871 7.03711C0.913086 6.9541 0.757031 6.97734 0.670703 6.61543C0.581055 6.25684 0.670703 5.74219 0.670703 5.74219C1.24512 5.71562 1.79961 5.76875 2.83887 6.06094C3.87812 6.35313 4.45586 6.91426 4.45586 6.91426C4.45586 6.91426 4.32305 6.91758 4.08398 6.97734ZM11.8934 9.59375C11.4186 9.65684 9.42969 9.67344 8.5 9.67344C7.57031 9.67344 5.58145 9.65352 5.10664 9.59375C4.62188 9.53066 3.99102 8.94961 4.42598 8.48809C5.01367 7.86055 4.9041 7.88047 6.23887 7.70781C7.39434 7.5584 8.2709 7.55176 8.5 7.55176C8.72578 7.55176 9.60566 7.56172 10.7611 7.70781C12.0959 7.88047 11.9863 7.86055 12.574 8.48809C13.009 8.94961 12.3781 9.53066 11.8934 9.59375ZM16.3293 6.61875C16.2396 6.97734 16.0869 6.95742 15.8213 7.04043C15.5557 7.12344 15.3797 7.1832 15.29 7.16328C15.2004 7.14336 15.0477 7.02051 14.875 7.02383C14.7023 7.03047 13.8955 7.1666 13.5967 7.1666C13.2979 7.1666 13.1551 7.04043 12.916 6.98066C12.677 6.9209 12.5441 6.9209 12.5441 6.9209C12.5441 6.9209 13.1186 6.35645 14.1611 6.06758C15.2004 5.77539 15.7549 5.72227 16.3293 5.74883C16.3293 5.74219 16.4189 6.25684 16.3293 6.61875Z" fill="#C50709"/>
</svg>
