<svg width="14" height="10" viewBox="0 0 14 10" fill="none" xmlns="http://www.w3.org/2000/svg">
<path d="M14 6.68945C14 5.79004 13.8906 4.91113 13.8469 4.81445C13.8141 4.74414 13.6035 4.55957 13.125 4.21094C12.641 3.85645 12.652 3.90918 12.5645 3.67773C12.6438 3.65137 12.7203 3.60156 12.7668 3.5957C12.8707 3.58398 12.8762 3.68945 13.0922 3.68945C13.3082 3.68945 13.7758 3.62793 13.8715 3.52539C13.9672 3.42285 13.9973 3.3877 13.9973 3.29688C13.9973 3.20606 13.948 3.01855 13.8551 2.90723C13.7621 2.7959 13.3656 2.74023 13.1332 2.70801C12.9008 2.67578 12.868 2.70801 12.8078 2.74902C12.7121 2.81348 12.7066 3.40234 12.7066 3.40234L12.4797 3.4082C12.332 3.01856 12.127 2.2334 11.807 1.61523C11.457 0.941406 11.0906 0.730469 10.9375 0.677735C10.7871 0.62793 10.6504 0.592773 9.625 0.481445C8.57773 0.364258 7.74375 0.349609 7 0.349609C6.25625 0.349609 5.42227 0.367187 4.375 0.481445C3.34961 0.595703 3.21289 0.62793 3.0625 0.677735C2.91211 0.727539 2.54297 0.941406 2.19297 1.61523C1.87305 2.2334 1.66797 3.01856 1.52031 3.4082L1.29336 3.40234C1.29336 3.40234 1.29062 2.81348 1.19219 2.74902C1.13203 2.70801 1.09922 2.67285 0.866797 2.70801C0.634375 2.74316 0.237891 2.7959 0.144922 2.90723C0.0519531 3.01855 0.00273437 3.20606 0.00273437 3.29688C0.00273437 3.3877 0.0328125 3.42578 0.128516 3.52539C0.224219 3.62793 0.691797 3.68945 0.907813 3.68945C1.12383 3.68945 1.1293 3.58398 1.2332 3.5957C1.27969 3.60156 1.35898 3.65137 1.43555 3.67773C1.34531 3.90918 1.35898 3.85645 0.875 4.21094C0.396484 4.5625 0.183203 4.74414 0.153125 4.81445C0.109375 4.91113 0 5.79004 0 6.68945C0 7.58887 0.0601563 8.39746 0.0601563 8.68457C0.0601563 8.80469 0.0601562 9.01563 0.0847656 9.21777C0.101172 9.33789 0.125781 9.45508 0.169531 9.5459C0.243359 9.70703 0.311719 9.72168 0.593359 9.70703C0.954297 9.68945 1.47656 9.70703 2.01523 9.73047C2.37617 9.74512 2.74531 9.75977 3.07344 9.76856C3.89375 9.78613 3.65312 9.63965 4.00312 9.64551C4.35312 9.65137 5.73398 9.71289 6.99727 9.71289C8.26055 9.71289 9.64414 9.65137 9.99141 9.64551C10.3414 9.63965 10.1008 9.78613 10.9211 9.76856C11.2492 9.7627 11.6184 9.74512 11.9793 9.73047C12.518 9.70996 13.043 9.68945 13.4012 9.70703C13.6828 9.72168 13.7512 9.70703 13.825 9.5459C13.866 9.45508 13.8934 9.33789 13.9098 9.21777C13.9371 9.01563 13.9344 8.80469 13.9344 8.68457C13.9398 8.40039 14 7.58887 14 6.68945ZM2.35703 2.25391C2.48828 1.92578 2.88203 1.2666 3.07344 1.14941C3.11992 1.12012 3.52734 0.982422 4.54727 0.90918C5.48516 0.841797 6.52148 0.81543 7.00273 0.81543C7.48398 0.81543 8.52031 0.841797 9.4582 0.90918C10.4754 0.982422 10.8883 1.11719 10.932 1.14941C11.1781 1.33105 11.5172 1.92578 11.6484 2.25391C11.7797 2.58203 11.9547 3.22656 11.9219 3.31445C11.8891 3.40234 11.9547 3.44629 11.5117 3.4082C11.0715 3.37305 8.30703 3.33496 7.00547 3.33496C5.70664 3.33496 2.94219 3.37305 2.49922 3.4082C2.05625 3.44336 2.12188 3.40234 2.08906 3.31445C2.05078 3.22656 2.22578 2.58496 2.35703 2.25391ZM3.36328 5.92188C3.16641 5.97461 3.04883 6.08887 2.80273 6.08594C2.55664 6.08594 1.89219 5.96582 1.75 5.95996C1.60781 5.9541 1.48203 6.0625 1.4082 6.08301C1.33438 6.10352 1.18945 6.04785 0.970703 5.97461C0.751953 5.90137 0.623438 5.92188 0.552344 5.60254C0.478516 5.28613 0.552344 4.83203 0.552344 4.83203C1.02539 4.80859 1.48203 4.85547 2.33789 5.11328C3.19375 5.37109 3.66953 5.86621 3.66953 5.86621C3.66953 5.86621 3.56016 5.86914 3.36328 5.92188ZM9.79453 8.23047C9.40352 8.28613 7.76562 8.30078 7 8.30078C6.23438 8.30078 4.59648 8.2832 4.20547 8.23047C3.80625 8.17481 3.28672 7.66211 3.64492 7.25488C4.12891 6.70117 4.03867 6.71875 5.13789 6.56641C6.08945 6.43457 6.81133 6.42871 7 6.42871C7.18594 6.42871 7.91055 6.4375 8.86211 6.56641C9.96133 6.71875 9.87109 6.70117 10.3551 7.25488C10.7133 7.66211 10.1938 8.17481 9.79453 8.23047ZM13.4477 5.60547C13.3738 5.92188 13.248 5.9043 13.0293 5.97754C12.8105 6.05078 12.6656 6.10352 12.5918 6.08594C12.518 6.06836 12.3922 5.95996 12.25 5.96289C12.1078 5.96875 11.4434 6.08887 11.1973 6.08887C10.9512 6.08887 10.8336 5.97754 10.6367 5.92481C10.4398 5.87207 10.3305 5.87207 10.3305 5.87207C10.3305 5.87207 10.8035 5.37402 11.6621 5.11914C12.518 4.86133 12.9746 4.81445 13.4477 4.83789C13.4477 4.83203 13.5215 5.28613 13.4477 5.60547Z" fill="#990002"/>
</svg>
