<svg width="18" height="18" viewBox="0 0 18 18" fill="none" xmlns="http://www.w3.org/2000/svg">
<g clip-path="url(#clip0_116_4260)">
<path d="M6.75 16.5007C7.16421 16.5007 7.5 16.1649 7.5 15.7507C7.5 15.3365 7.16421 15.0007 6.75 15.0007C6.33579 15.0007 6 15.3365 6 15.7507C6 16.1649 6.33579 16.5007 6.75 16.5007Z" stroke="#990002" stroke-width="1.5" stroke-linecap="round" stroke-linejoin="round"/>
<path d="M15 16.5007C15.4142 16.5007 15.75 16.1649 15.75 15.7507C15.75 15.3365 15.4142 15.0007 15 15.0007C14.5858 15.0007 14.25 15.3365 14.25 15.7507C14.25 16.1649 14.5858 16.5007 15 16.5007Z" stroke="#990002" stroke-width="1.5" stroke-linecap="round" stroke-linejoin="round"/>
<path d="M0.75 0.749268H3.75L5.76 10.7918C5.82858 11.1371 6.01643 11.4472 6.29066 11.668C6.56489 11.8887 6.90802 12.006 7.26 11.9993H14.55C14.902 12.006 15.2451 11.8887 15.5193 11.668C15.7936 11.4472 15.9814 11.1371 16.05 10.7918L17.25 4.49927H4.5" stroke="#990002" stroke-width="1.5" stroke-linecap="round" stroke-linejoin="round"/>
</g>
<defs>
<clipPath id="clip0_116_4260">
<rect width="18" height="18" fill="white"/>
</clipPath>
</defs>
</svg>
