<svg width="18" height="15" viewBox="0 0 18 15" fill="none" xmlns="http://www.w3.org/2000/svg">
<path d="M14.4452 7.51022C16.2706 7.51022 17.8117 5.95819 17.8117 4.08226C17.8117 2.20633 16.2905 0.654297 14.4452 0.654297C12.6065 0.654297 11.0852 2.20633 11.0852 4.08226C11.0852 5.97168 12.6065 7.51022 14.4452 7.51022ZM5.37726 11.721H13.0959C13.3538 11.721 13.5787 11.505 13.5787 11.2149C13.5787 10.9247 13.3538 10.7088 13.0959 10.7088H5.4897C5.11269 10.7088 4.8812 10.4388 4.82166 10.0272L4.72246 9.31868H13.1092C13.797 9.31868 14.2401 9.02176 14.4915 8.44145C13.9226 8.44145 13.3869 8.32674 12.8908 8.10407C12.7917 8.23903 12.666 8.29974 12.4808 8.29974L4.57033 8.30649L4.00814 4.39268H10.1989C10.1659 4.08226 10.1857 3.67738 10.232 3.37374H3.86263L3.74358 2.51676C3.67083 1.99713 3.49224 1.73399 2.81762 1.73399H0.48944C0.224873 1.73399 0 1.97016 0 2.24008C0 2.51676 0.224873 2.75293 0.48944 2.75293H2.725L3.78327 10.1622C3.92214 11.1204 4.41823 11.721 5.37726 11.721ZM14.4518 6.3091C14.2204 6.3091 14.0153 6.14714 14.0153 5.89747V4.49389H12.752C12.5271 4.49389 12.3485 4.30497 12.3485 4.08226C12.3485 3.85959 12.5271 3.67063 12.752 3.67063H14.0153V2.27383C14.0153 2.01738 14.2204 1.85545 14.4518 1.85545C14.6833 1.85545 14.8817 2.01738 14.8817 2.27383V3.67063H16.145C16.3699 3.67063 16.5551 3.85959 16.5551 4.08226C16.5551 4.30497 16.3699 4.49389 16.145 4.49389H14.8817V5.89747C14.8817 6.14714 14.6833 6.3091 14.4518 6.3091ZM5.89978 15.0005C6.49504 15.0005 6.97125 14.5214 6.97125 13.9073C6.97125 13.3 6.49504 12.8141 5.89978 12.8141C5.29787 12.8141 4.82828 13.3 4.82828 13.9073C4.82828 14.5214 5.29787 15.0005 5.89978 15.0005ZM12.0906 15.0005C12.6859 15.0005 13.162 14.5214 13.162 13.9073C13.162 13.3 12.6859 12.8141 12.0906 12.8141C11.4887 12.8141 11.0059 13.3 11.0059 13.9073C11.0059 14.5214 11.4887 15.0005 12.0906 15.0005Z" fill="white"/>
</svg>
