<svg width="16" height="20" viewBox="0 0 16 20" fill="none" xmlns="http://www.w3.org/2000/svg">
<path d="M11.5 7.13636C11.5 6.97633 11.4505 6.83783 11.3516 6.72088C11.2526 6.60393 11.1354 6.54545 11 6.54545H10V5.36364C10 5.2036 9.95052 5.0651 9.85156 4.94815C9.7526 4.8312 9.63542 4.77273 9.5 4.77273C9.36458 4.77273 9.2474 4.8312 9.14844 4.94815C9.04948 5.0651 9 5.2036 9 5.36364V6.54545H8C7.86458 6.54545 7.7474 6.60393 7.64844 6.72088C7.54948 6.83783 7.5 6.97633 7.5 7.13636C7.5 7.2964 7.54948 7.4349 7.64844 7.55185C7.7474 7.6688 7.86458 7.72727 8 7.72727H9V8.90909C9 9.06913 9.04948 9.20762 9.14844 9.32457C9.2474 9.44152 9.36458 9.5 9.5 9.5C9.63542 9.5 9.7526 9.44152 9.85156 9.32457C9.95052 9.20762 10 9.06913 10 8.90909V7.72727H11C11.1354 7.72727 11.2526 7.6688 11.3516 7.55185C11.4505 7.4349 11.5 7.2964 11.5 7.13636ZM7 14.8182C7 15.1444 6.90234 15.4229 6.70703 15.6538C6.51172 15.8846 6.27604 16 6 16C5.72396 16 5.48828 15.8846 5.29297 15.6538C5.09766 15.4229 5 15.1444 5 14.8182C5 14.492 5.09766 14.2134 5.29297 13.9826C5.48828 13.7518 5.72396 13.6364 6 13.6364C6.27604 13.6364 6.51172 13.7518 6.70703 13.9826C6.90234 14.2134 7 14.492 7 14.8182ZM14 14.8182C14 15.1444 13.9023 15.4229 13.707 15.6538C13.5117 15.8846 13.276 16 13 16C12.724 16 12.4883 15.8846 12.293 15.6538C12.0977 15.4229 12 15.1444 12 14.8182C12 14.492 12.0977 14.2134 12.293 13.9826C12.4883 13.7518 12.724 13.6364 13 13.6364C13.276 13.6364 13.5117 13.7518 13.707 13.9826C13.9023 14.2134 14 14.492 14 14.8182ZM15 4.77273V9.5C15 9.64773 14.9583 9.77853 14.875 9.8924C14.7917 10.0063 14.6849 10.0724 14.5547 10.0909L6.39844 11.2173C6.40365 11.2604 6.41536 11.3266 6.43359 11.4158C6.45182 11.5051 6.46745 11.5866 6.48047 11.6605C6.49349 11.7344 6.5 11.8021 6.5 11.8636C6.5 11.9621 6.4375 12.1591 6.3125 12.4545H13.5C13.6354 12.4545 13.7526 12.513 13.8516 12.63C13.9505 12.7469 14 12.8854 14 13.0455C14 13.2055 13.9505 13.344 13.8516 13.4609C13.7526 13.5779 13.6354 13.6364 13.5 13.6364H5.5C5.36458 13.6364 5.2474 13.5779 5.14844 13.4609C5.04948 13.344 5 13.2055 5 13.0455C5 12.9593 5.02865 12.8377 5.08594 12.6808C5.14323 12.5238 5.22005 12.3407 5.31641 12.1314C5.41276 11.9221 5.46615 11.8052 5.47656 11.7805L4.09375 4.18182H2.5C2.36458 4.18182 2.2474 4.12334 2.14844 4.00639C2.04948 3.88944 2 3.75095 2 3.59091C2 3.43087 2.04948 3.29238 2.14844 3.17543C2.2474 3.05848 2.36458 3 2.5 3H4.5C4.58333 3 4.65755 3.02 4.72266 3.06001C4.78776 3.10002 4.83984 3.14773 4.87891 3.20312C4.91797 3.25852 4.95182 3.33393 4.98047 3.42933C5.00911 3.52474 5.02865 3.6063 5.03906 3.67401C5.04948 3.74171 5.0638 3.8325 5.08203 3.94638C5.10026 4.06025 5.11198 4.13873 5.11719 4.18182H14.5C14.6354 4.18182 14.7526 4.24029 14.8516 4.35724C14.9505 4.4742 15 4.61269 15 4.77273Z" fill="white"/>
</svg>
