<svg width="16" height="13" viewBox="0 0 16 13" fill="none" xmlns="http://www.w3.org/2000/svg">
<path d="M12.3607 5.99837C13.9227 5.99837 15.2414 4.64046 15.2414 2.99918C15.2414 1.3579 13.9397 0 12.3607 0C10.7873 0 9.48555 1.3579 9.48555 2.99918C9.48555 4.65227 10.7873 5.99837 12.3607 5.99837ZM4.60129 9.68241H11.2061C11.4268 9.68241 11.6192 9.49349 11.6192 9.23964C11.6192 8.98577 11.4268 8.79682 11.2061 8.79682H4.6975C4.3749 8.79682 4.17682 8.56066 4.12587 8.20054L4.04098 7.58062H11.2175C11.8061 7.58062 12.1852 7.32084 12.4003 6.81311C11.9135 6.81311 11.4551 6.71275 11.0306 6.51793C10.9458 6.63601 10.8382 6.68913 10.6798 6.68913L3.9108 6.69503L3.42975 3.27077H8.72716C8.69888 2.99918 8.71584 2.64494 8.75546 2.37928H3.30523L3.20336 1.6295C3.14111 1.17486 2.98829 0.944639 2.41102 0.944639H0.418811C0.192422 0.944639 0 1.15127 0 1.38743C0 1.6295 0.192422 1.83613 0.418811 1.83613H2.33177L3.23732 8.31862C3.35615 9.15697 3.78065 9.68241 4.60129 9.68241ZM12.3664 4.94749C12.1683 4.94749 11.9928 4.80578 11.9928 4.58734V3.35933H10.9118C10.7194 3.35933 10.5665 3.19403 10.5665 2.99918C10.5665 2.80436 10.7194 2.63904 10.9118 2.63904H11.9928V1.41696C11.9928 1.19258 12.1683 1.05091 12.3664 1.05091C12.5644 1.05091 12.7341 1.19258 12.7341 1.41696V2.63904H13.8152C14.0076 2.63904 14.1661 2.80436 14.1661 2.99918C14.1661 3.19403 14.0076 3.35933 13.8152 3.35933H12.7341V4.58734C12.7341 4.80578 12.5644 4.94749 12.3664 4.94749ZM5.04841 12.5517C5.55777 12.5517 5.96526 12.1325 5.96526 11.5953C5.96526 11.0639 5.55777 10.6389 5.04841 10.6389C4.53336 10.6389 4.13153 11.0639 4.13153 11.5953C4.13153 12.1325 4.53336 12.5517 5.04841 12.5517ZM10.3458 12.5517C10.8552 12.5517 11.2627 12.1325 11.2627 11.5953C11.2627 11.0639 10.8552 10.6389 10.3458 10.6389C9.8308 10.6389 9.41765 11.0639 9.41765 11.5953C9.41765 12.1325 9.8308 12.5517 10.3458 12.5517Z" fill="white"/>
</svg>
