<svg width="484" height="460" viewBox="0 0 484 460" fill="none" xmlns="http://www.w3.org/2000/svg">
<path d="M245 0C245.33 0.99 245.66 1.98 246 3C248.283 4.56698 248.283 4.56698 251.152 6.00391C252.768 6.85976 252.768 6.85976 254.417 7.73291C256.16 8.63856 256.16 8.63856 257.938 9.5625C259.136 10.1947 260.335 10.828 261.532 11.4624C263.335 12.4172 265.138 13.3715 266.942 14.3224C271.75 16.8565 276.51 19.4662 281.25 22.125C287.583 25.6648 293.939 29.158 300.312 32.625C312.657 39.3442 324.96 46.1394 337.262 52.9355C340.933 54.9634 344.605 56.9898 348.277 59.0156C348.874 59.3447 349.47 59.6738 350.085 60.0129C353.095 61.6737 356.106 63.3342 359.117 64.9946C364.584 68.0103 370.051 71.0273 375.514 74.0512C389.005 81.5182 402.525 88.9187 416.113 96.208C422.307 99.5357 428.468 102.911 434.584 106.38C441.007 110.018 447.462 113.598 453.922 117.17C455.205 117.879 456.487 118.589 457.769 119.3C470.024 126.433 470.024 126.433 483 132C485.151 140.678 482.572 147.779 479.541 155.834C478.745 157.95 477.982 160.076 477.223 162.205C473.021 173.75 473.021 173.75 470 176C465.436 177.342 462.729 177.146 458.562 175.062C457.365 174.392 456.174 173.71 455 173C455.33 173.99 455.66 174.98 456 176C456.069 178.228 456.085 180.458 456.062 182.688C456.053 183.867 456.044 185.046 456.035 186.262C456.018 187.617 456.018 187.617 456 189C456.619 189.083 457.238 189.165 457.875 189.25C460 190 460 190 461.211 191.672C465.192 203.418 463.074 218.499 462.963 230.815C462.957 231.84 462.957 231.84 462.95 232.885C462.938 234.764 462.92 236.643 462.902 238.522C462.932 241.999 462.932 241.999 463.496 245.4C464.076 249.542 464.144 253.541 464.133 257.715C464.134 258.937 464.134 258.937 464.136 260.183C464.136 261.897 464.135 263.61 464.13 265.324C464.125 267.926 464.13 270.529 464.137 273.131C464.136 274.805 464.135 276.479 464.133 278.152C464.135 278.92 464.137 279.688 464.139 280.479C464.124 283.93 463.976 287.176 463.5 290.604C462.609 297.088 462.857 303.659 462.867 310.191C462.867 311.665 462.866 313.139 462.864 314.613C462.863 317.69 462.865 320.767 462.87 323.844C462.875 327.774 462.872 331.703 462.866 335.632C462.862 338.672 462.864 341.712 462.866 344.751C462.867 346.2 462.866 347.648 462.864 349.096C462.861 351.125 462.866 353.153 462.871 355.182C462.871 356.332 462.872 357.483 462.873 358.668C463.007 362.172 463.484 365.535 464 369C464.08 370.51 464.128 372.023 464.129 373.536C464.133 374.354 464.136 375.172 464.139 376.016C464.136 377.311 464.136 377.311 464.133 378.633C464.134 380.003 464.134 380.003 464.136 381.402C464.136 383.33 464.135 385.258 464.13 387.186C464.125 390.095 464.13 393.005 464.137 395.914C464.139 404.814 464.069 413.618 463.166 422.48C462.958 425.643 463.354 428.553 463.805 431.676C464.345 438.101 463.352 444.723 462 451C461.01 451 460.02 451 459 451C456.812 452.938 456.812 452.938 455 455C454.67 454.67 454.34 454.34 454 454C452.481 453.928 450.958 453.916 449.438 453.938C448.198 453.951 448.198 453.951 446.934 453.965C446.296 453.976 445.657 453.988 445 454C447.31 454.66 449.62 455.32 452 456C452 456.66 452 457.32 452 458C447.341 458.025 442.682 458.043 438.023 458.055C436.442 458.06 434.861 458.067 433.281 458.075C424.781 458.121 416.449 458.075 408 457C408.33 456.34 408.66 455.68 409 455C409.99 455 410.98 455 412 455C412 454.34 412 453.68 412 453C409.36 453.33 406.72 453.66 404 454C404.99 454.66 405.98 455.32 407 456C404.394 456.931 403.358 457.149 400.75 456.062C400.173 455.712 399.595 455.361 399 455C399.33 454.01 399.66 453.02 400 452C400.66 451.67 401.32 451.34 402 451C402 450.01 402 449.02 402 448C401.34 448.99 400.68 449.98 400 451C397.933 448.933 398.743 444.52 398.688 441.674C398.667 440.757 398.647 439.841 398.626 438.897C398.558 435.701 398.501 432.505 398.445 429.309C398.424 428.163 398.403 427.018 398.382 425.838C397.668 385.35 397.85 344.848 397.871 304.355C397.876 295.198 397.873 286.041 397.868 276.884C397.863 267.869 397.863 258.855 397.865 249.84C397.867 244.531 397.867 239.222 397.864 233.914C397.852 212.561 397.944 191.212 398.327 169.863C398.364 167.755 398.398 165.647 398.429 163.539C398.473 160.633 398.53 157.727 398.591 154.821C398.602 153.953 398.613 153.085 398.624 152.19C398.771 146.229 398.771 146.229 401 144C399.706 143.316 399.706 143.316 398.387 142.617C343.759 113.714 343.759 113.714 317.449 99.5996C311.424 96.3676 305.395 93.1422 299.359 89.9297C298.72 89.5892 298.08 89.2488 297.421 88.898C293.57 86.8478 293.57 86.8478 289.719 84.7984C280.525 79.9057 271.361 74.9604 262.262 69.8918C259.856 68.5641 257.435 67.2745 255 66C254.074 65.5016 253.147 65.0032 252.193 64.4897C246.489 61.5731 246.489 61.5731 240.215 61.4609C236.89 63.0526 233.721 64.7218 230.562 66.625C225.629 69.5391 220.649 72.2363 215.5 74.75C209.049 77.9145 202.733 81.2869 196.438 84.75C188.839 88.9293 181.2 93.0116 173.5 97C165.243 101.281 157.055 105.671 148.902 110.148C139.957 115.05 130.946 119.825 121.93 124.595C112.025 129.837 102.16 135.141 92.3711 140.598C91.55 141.051 90.7288 141.505 89.8828 141.973C89.1753 142.367 88.4677 142.762 87.7388 143.168C86 144 86 144 84 144C84 163.47 84 182.94 84 203C84 200 84 200 85 198C85.1313 195.724 85.2029 193.444 85.2461 191.164C85.279 189.776 85.3122 188.388 85.3457 187C85.3931 184.812 85.4375 182.624 85.4768 180.437C85.5166 178.325 85.5681 176.213 85.6211 174.102C85.6587 172.204 85.6587 172.204 85.697 170.268C85.9767 167.252 86.4114 165.532 88 163C89 164 89 164 89.0625 167.562C89.0419 168.697 89.0213 169.831 89 171C89.66 171 90.32 171 91 171C91 171.66 91 172.32 91 173C90.34 173 89.68 173 89 173C89 227.45 89 281.9 89 338C89.99 338.33 90.98 338.66 92 339C92.0232 346.51 92.0409 354.021 92.0518 361.531C92.057 365.019 92.0641 368.506 92.0754 371.993C92.0884 376.002 92.0932 380.011 92.0977 384.02C92.1028 385.273 92.108 386.526 92.1133 387.817C92.1134 388.978 92.1134 390.139 92.1135 391.335C92.1157 392.359 92.118 393.383 92.1203 394.437C92 397 92 397 91 400C90.34 400 89.68 400 89 400C89 400.66 89 401.32 89 402C89.66 402 90.32 402 91 402C91 402.99 91 403.98 91 405C90.34 405 89.68 405 89 405C89 405.66 89 406.32 89 407C89.66 407 90.32 407 91 407C91 407.99 91 408.98 91 410C90.34 410 89.68 410 89 410C89 410.66 89 411.32 89 412C89.66 412 90.32 412 91 412C91 412.99 91 413.98 91 415C90.34 415 89.68 415 89 415C89 415.66 89 416.32 89 417C89.66 417 90.32 417 91 417C91 417.99 91 418.98 91 420C90.34 420 89.68 420 89 420C89 420.66 89 421.32 89 422C89.66 422 90.32 422 91 422C91 422.99 91 423.98 91 425C90.34 425 89.68 425 89 425C89 425.66 89 426.32 89 427C89.66 427 90.32 427 91 427C91 427.99 91 428.98 91 430C90.34 430 89.68 430 89 430C89 430.66 89 431.32 89 432C89.66 432 90.32 432 91 432C92.125 436.75 92.125 436.75 91 439C90.34 439 89.68 439 89 439C89 440.98 89 442.96 89 445C88.34 445 87.68 445 87 445C86.8672 444.362 86.7345 443.724 86.5977 443.066C86.3328 441.827 86.3328 441.827 86.0625 440.562C85.8885 439.739 85.7145 438.915 85.5352 438.066C85.1925 436.023 85.1925 436.023 84 435C83.7915 441.406 83.8417 446.93 86 453C85.34 453.66 84.68 454.32 84 455C83.67 454.67 83.34 454.34 83 454C80.667 453.959 78.3329 453.958 76 454C77.98 454.66 79.96 455.32 82 456C82 456.66 82 457.32 82 458C46.9327 459.501 46.9327 459.501 30 457C30 456.67 30 456.34 30 456C32.31 456 34.62 456 37 456C37 455.34 37 454.68 37 454C35.8553 454.031 35.8553 454.031 34.6875 454.062C32 454 32 454 29 453C29 453.66 29 454.32 29 455C28.34 455 27.68 455 27 455C26.67 430.91 26.34 406.82 26 382C25.34 382 24.68 382 24 382C24.0058 381.005 24.0116 380.01 24.0176 378.986C24.0487 371.264 23.9518 363.57 23.644 355.853C22.9619 338.497 22.8858 321.141 22.8766 303.774C22.875 301.753 22.8714 299.732 22.8674 297.711C22.8615 293.886 22.863 290.06 22.8672 286.234C22.8652 285.074 22.8632 283.914 22.8612 282.719C22.8643 281.643 22.8674 280.568 22.8706 279.46C22.8714 278.522 22.8722 277.585 22.873 276.619C23.0006 273.988 23.4154 271.565 24 269C24.66 269.33 25.32 269.66 26 270C26.33 241.95 26.66 213.9 27 185C26.01 185 25.02 185 24 185C24 184.34 24 183.68 24 183C23.34 182.67 22.68 182.34 22 182C24.97 181.01 24.97 181.01 28 180C28.33 178.35 28.66 176.7 29 175C28.1338 175.351 27.2675 175.701 26.375 176.062C22.6041 177.11 20.7151 177.186 17 176C13.9384 173.415 12.2719 171.816 11 168C10.01 167.67 9.02 167.34 8 167C7.89688 166.216 7.79375 165.433 7.6875 164.625C7.22405 161.67 7.22405 161.67 4 160C4.33 158.35 4.66 156.7 5 155C4.34 155 3.68 155 3 155C2.375 152.188 2.375 152.188 2 149C2.66 148.01 3.32 147.02 4 146C3.34 145.01 2.68 144.02 2 143C1.34 143 0.68 143 0 143C0.28875 142.319 0.5775 141.639 0.875 140.938C2.12597 137.671 3.07448 134.372 4 131C4.99 131 5.98 131 7 131C8.68724 130.26 10.3415 129.443 11.9727 128.586C12.9556 128.072 13.9385 127.557 14.9512 127.027C15.9779 126.482 17.0046 125.937 18.0625 125.375C19.0622 124.853 20.0618 124.331 21.0918 123.793C26.7771 120.801 32.3167 117.644 37.804 114.304C40.5682 112.663 43.409 111.253 46.3125 109.875C52.2722 106.974 58.0139 103.756 63.75 100.438C72.9676 95.1072 82.3044 90.028 91.6919 85.0039C97.5371 81.8726 103.36 78.7148 109.125 75.4375C115.474 71.8287 121.885 68.3417 128.312 64.875C138.098 59.5943 147.833 54.2282 157.546 48.8159C163.601 45.4426 169.662 42.0795 175.734 38.7383C176.38 38.3831 177.025 38.028 177.69 37.662C180.208 36.2762 182.726 34.8905 185.246 33.5079C192.328 29.622 199.354 25.664 206.302 21.5422C209.032 19.982 211.801 18.5672 214.625 17.1875C222.928 13.1245 230.947 8.53224 239 4C239 3.01 239 2.02 239 1C241.076 0.446524 242.844 0 245 0ZM402 145C402 147.97 402 150.94 402 154C402.33 154 402.66 154 403 154C403 151.03 403 148.06 403 145C402.67 145 402.34 145 402 145ZM5 149C6 151 6 151 6 151L5 149ZM6 152C7 154 7 154 7 154L6 152ZM7 155C8 157 8 157 8 157L7 155ZM8 157C9 160 9 160 9 160L8 157ZM10 163C11 166 11 166 11 166L10 163ZM11 166C12 168 12 168 12 168L11 166ZM28 182C29 184 29 184 29 184L28 182ZM28 187C29 190 29 190 29 190L28 187ZM85 207C86 209 86 209 86 209L85 207ZM83 242C84 244 84 244 84 244L83 242ZM462 245C463 247 463 247 463 247L462 245ZM462 250C463 252 463 252 463 252L462 250ZM462 255C463 257 463 257 463 257L462 255ZM462 260C463 262 463 262 463 262L462 260ZM462 265C463 267 463 267 463 267L462 265ZM462 270C463 272 463 272 463 272L462 270ZM26 275C27 277 27 277 27 277L26 275ZM462 275C463 277 463 277 463 277L462 275ZM26 280C27 282 27 282 27 282L26 280ZM462 280C463 282 463 282 463 282L462 280ZM26 285C27 287 27 287 27 287L26 285ZM462 285C463 287 463 287 463 287L462 285ZM26 290C27 292 27 292 27 292L26 290ZM89 340C90 342 90 342 90 342L89 340ZM89 345C90 347 90 347 90 347L89 345ZM26 350C27 352 27 352 27 352L26 350ZM89 350C90 352 90 352 90 352L89 350ZM26 355C27 357 27 357 27 357L26 355ZM89 355C90 357 90 357 90 357L89 355ZM26 360C27 362 27 362 27 362L26 360ZM89 360C90 362 90 362 90 362L89 360ZM26 365C27 367 27 367 27 367L26 365ZM89 365C90 367 90 367 90 367L89 365ZM462 365C463 367 463 367 463 367L462 365ZM26 370C27 372 27 372 27 372L26 370ZM89 370C90 372 90 372 90 372L89 370ZM462 370C463 372 463 372 463 372L462 370ZM89 375C90 377 90 377 90 377L89 375ZM462 375C463 377 463 377 463 377L462 375ZM89 380C90 382 90 382 90 382L89 380ZM462 380C463 382 463 382 463 382L462 380ZM89 385C90 387 90 387 90 387L89 385ZM462 385C463 387 463 387 463 387L462 385ZM89 390C90 392 90 392 90 392L89 390ZM462 390C463 392 463 392 463 392L462 390ZM89 395C90 397 90 397 90 397L89 395ZM462 395C463 397 463 397 463 397L462 395ZM83 397C84 399 84 399 84 399L83 397ZM462 400C463 402 463 402 463 402L462 400ZM83 402C84 404 84 404 84 404L83 402ZM462 405C463 407 463 407 463 407L462 405ZM462 410C463 412 463 412 463 412L462 410ZM462 430C463 432 463 432 463 432L462 430ZM89 435C90 437 90 437 90 437L89 435ZM455 435C456 437 456 437 456 437L455 435ZM462 435C463 437 463 437 463 437L462 435ZM455 439C456 442 456 442 456 442L455 439Z" fill="#171717"/>
<path d="M225 253C227.979 252.973 230.958 252.953 233.937 252.937C234.768 252.929 235.599 252.921 236.455 252.912C241.375 252.893 246.134 253.173 251.015 253.779C253.461 254.051 255.854 254.064 258.312 254C260.649 253.94 262.619 253.9 264.882 254.496C267.051 255.012 268.927 255.129 271.152 255.133C271.929 255.134 272.706 255.135 273.506 255.137C274.308 255.133 275.111 255.129 275.937 255.125C276.736 255.129 277.535 255.133 278.357 255.137C282.383 255.13 286.064 254.941 290 254C290.66 254 291.32 254 292 254C292 254.66 292 255.32 292 256C295.621 257.014 299.278 257.499 303 258C303.33 258.99 303.66 259.98 304 261C305.607 261.41 307.215 261.816 308.828 262.199C312.553 263.573 315.524 266.06 318.668 268.441C320.827 270.116 320.827 270.116 323.051 270.34C326.272 271.431 327.267 274.185 329 277C330.43 278.839 331.867 280.673 333.312 282.5C343.176 295.64 347.706 310.08 351 326C352.32 325.34 353.64 324.68 355 324C355.33 324.99 355.66 325.98 356 327C357.663 328.006 359.33 329.006 361 330C365.083 334.521 365.125 338.668 365.129 344.601C365.132 345.582 365.132 345.582 365.135 346.583C365.139 348.741 365.136 350.898 365.133 353.055C365.133 354.559 365.134 356.064 365.136 357.568C365.137 360.72 365.135 363.873 365.13 367.025C365.125 371.055 365.128 375.086 365.134 379.116C365.138 382.223 365.136 385.331 365.134 388.438C365.133 389.924 365.134 391.409 365.136 392.895C365.139 394.976 365.135 397.058 365.129 399.14C365.129 400.323 365.128 401.505 365.127 402.724C364.8 411.16 364.8 411.16 362.434 413.644C357.519 416.52 353.7 417.695 348 418C348.66 418.99 349.32 419.98 350 421C345.545 421.99 345.545 421.99 341 423C340.98 423.676 340.96 424.352 340.94 425.048C340.845 428.116 340.735 431.183 340.625 434.25C340.594 435.313 340.563 436.377 340.531 437.473C340.473 439.01 340.473 439.01 340.414 440.578C340.383 441.521 340.351 442.463 340.319 443.435C339.987 446.103 339.455 447.75 338 450C331.406 454.193 324.017 453.443 316.437 453.375C315.136 453.387 313.835 453.398 312.494 453.41C311.237 453.406 309.979 453.402 308.684 453.398C307.545 453.395 306.406 453.392 305.232 453.388C300.752 452.85 297.298 451.438 294.25 448.062C293.051 446.085 292.034 444.067 291 442C290.34 441.34 289.68 440.68 289 440C288.694 437.266 288.489 434.617 288.375 431.875C288.317 430.744 288.317 430.744 288.258 429.59C288.163 427.727 288.081 425.863 288 424C287.01 423.67 286.02 423.34 285 423C284.312 420.937 284.312 420.937 284 419C286.64 419.33 289.28 419.66 292 420C292 419.01 292 418.02 292 417C290.934 417.03 289.868 417.061 288.769 417.092C259.777 417.908 230.985 418.15 202 417C202 417.66 202 418.32 202 419C228.07 419 254.14 419 281 419C281 419.66 281 420.32 281 421C279.519 421.015 279.519 421.015 278.008 421.031C268.722 421.129 259.436 421.231 250.151 421.339C245.377 421.395 240.602 421.448 235.828 421.497C231.224 421.545 226.621 421.597 222.017 421.653C220.257 421.673 218.497 421.692 216.736 421.709C214.279 421.733 211.822 421.763 209.365 421.795C208.63 421.8 207.895 421.806 207.138 421.812C203.783 421.57 203.783 421.57 201 423C199.334 423.041 197.666 423.043 196 423C195.962 424.021 195.962 424.021 195.924 425.064C195.808 428.147 195.685 431.23 195.562 434.312C195.523 435.384 195.484 436.456 195.443 437.56C195.401 438.589 195.36 439.617 195.316 440.676C195.28 441.624 195.243 442.571 195.205 443.548C195 446 195 446 194 449C186.871 454.01 179.546 453.216 171.125 453.25C169.224 453.281 169.224 453.281 167.285 453.312C166.059 453.318 164.833 453.323 163.57 453.328C162.454 453.337 161.338 453.347 160.188 453.356C155.6 452.843 152.262 451.262 149 448C148.34 448.33 147.68 448.66 147 449C142.441 442.162 143.537 431.031 143 423C143.66 422.67 144.32 422.34 145 422C146.133 419.983 146.133 419.983 147 418C145.903 417.963 144.806 417.925 143.676 417.887C142.221 417.821 140.767 417.755 139.312 417.687C138.231 417.654 138.231 417.654 137.127 417.619C131.516 417.337 128.064 416.064 124 412C121.931 411.357 121.931 411.357 120 411C120.33 409.02 120.66 407.04 121 405C120.01 405.33 119.02 405.66 118 406C117.024 403.071 116.879 401.21 116.886 398.161C116.887 397.181 116.887 396.2 116.887 395.189C116.892 394.133 116.897 393.077 116.902 391.988C116.904 390.905 116.905 389.821 116.907 388.705C116.912 385.241 116.925 381.777 116.937 378.312C116.943 375.965 116.947 373.618 116.951 371.271C116.962 365.514 116.979 359.757 117 354C117.33 354 117.66 354 118 354C118.049 353.085 118.098 352.169 118.148 351.227C118.223 350.038 118.298 348.849 118.375 347.625C118.479 345.85 118.479 345.85 118.586 344.039C119 341 119 341 121 339C121.761 337.356 122.463 335.686 123.125 334C123.655 332.67 123.655 332.67 124.195 331.312C125.11 329.093 125.11 329.093 125 327C128.435 324.71 129.985 324.822 134 325C134.495 323.515 134.495 323.515 135 322C135.495 322.495 135.495 322.495 136 323C136.506 321.085 137.004 319.168 137.5 317.25C137.778 316.183 138.057 315.115 138.344 314.016C139.142 310.863 139.142 310.863 139 307C139.66 307 140.32 307 141 307C140.773 306.402 140.546 305.804 140.312 305.187C140.209 304.466 140.106 303.744 140 303C141 302 142 301 143 300C143.144 299.031 143.289 298.061 143.437 297.062C144.125 293.32 145.316 292.608 148 290C149.278 288.27 150.527 286.519 151.75 284.75C159.319 274.297 168.442 266.779 180 261C179.01 260.67 178.02 260.34 177 260C180.83 258.198 183.781 257.804 188 258C188 257.34 188 256.68 188 256C188.99 256 189.98 256 191 256C191 256.66 191 257.32 191 258C196.61 258 202.22 258 208 258C208 257.34 208 256.68 208 256C208.99 256 209.98 256 211 256C211 256.66 211 257.32 211 258C211.66 258 212.32 258 213 258C213.66 256.68 214.32 255.36 215 254C215.495 255.98 215.495 255.98 216 258C216.66 256.68 217.32 255.36 218 254C220.31 254.33 222.62 254.66 225 255C225 254.34 225 253.68 225 253ZM169.871 290.004C159.741 300.81 152.788 315.082 153 330C161.243 332.324 169.393 334 178 334C178 334.33 178 334.66 178 335C185.055 336.204 191.834 337.281 199 337C198.01 336.34 197.02 335.68 196 335C197.123 335.084 198.246 335.168 199.402 335.254C207.075 335.789 214.367 336.249 222 335C222.33 335.66 222.66 336.32 223 337C223 336.34 223 335.68 223 335C223.99 335 224.98 335 226 335C226.33 335.66 226.66 336.32 227 337C227.66 336.67 228.32 336.34 229 336C230.554 336.241 232.107 336.483 233.659 336.733C238.95 337.336 244.307 337.142 249.625 337.125C250.839 337.129 252.054 337.133 253.305 337.137C255.06 337.135 255.06 337.135 256.852 337.133C257.912 337.132 258.972 337.13 260.065 337.129C262.825 337.008 265.305 336.572 268 336C270 336 272 336 274 336C274.66 335.67 275.32 335.34 276 335C276 335.66 276 336.32 276 337C275.01 337.495 275.01 337.495 274 338C283.698 338.365 292.873 337.418 302.44 335.974C304.759 335.624 307.081 335.287 309.402 334.953C316.666 333.894 323.863 332.743 331 331C330.01 327.04 330.01 327.04 329 323C329.66 323 330.32 323 331 323C330.67 322.01 330.34 321.02 330 320C329.34 320 328.68 320 328 320C328.33 318.68 328.66 317.36 329 316C328.34 316 327.68 316 327 316C327.351 315.257 327.701 314.515 328.062 313.75C329.068 310.801 329.043 309.845 328 307C327.67 306.01 327.34 305.02 327 304C320.761 293.819 312.759 284.185 301.25 280C298.298 280 297.125 281.032 295 283C296.65 283.33 298.3 283.66 300 284C290.173 285.422 280.495 286.157 270.562 286.094C269.458 286.09 268.353 286.087 267.214 286.083C252.373 286.014 237.532 285.771 222.692 285.536C218.762 285.475 214.832 285.415 210.902 285.355C203.268 285.239 195.634 285.12 188 285C188.66 283.35 189.32 281.7 190 280C182.195 280 175.445 284.789 169.871 290.004ZM192 280C192 280.33 192 280.66 192 281C193.65 281 195.3 281 197 281C197 280.67 197 280.34 197 280C195.35 280 193.7 280 192 280ZM293 280C297 281 297 281 297 281L293 280ZM329 314C329.66 314.66 330.32 315.32 331 316C331 315.34 331 314.68 331 314C330.34 314 329.68 314 329 314ZM331 317C330.67 317.99 330.34 318.98 330 320C330.66 320 331.32 320 332 320C331.67 319.01 331.34 318.02 331 317ZM332 321C332 322.65 332 324.3 332 326C332.33 326 332.66 326 333 326C333 324.35 333 322.7 333 321C332.67 321 332.34 321 332 321ZM202 336C201.34 336.66 200.68 337.32 200 338C203.96 338 207.92 338 212 338C212 337.67 212 337.34 212 337C210.377 336.778 208.751 336.573 207.125 336.375C206.22 336.259 205.315 336.143 204.383 336.023C203.203 336.012 203.203 336.012 202 336ZM272 337C270.35 337.33 268.7 337.66 267 338C267 338.33 267 338.66 267 339C268.98 339 270.96 339 273 339C272.67 338.34 272.34 337.68 272 337ZM118 357C119 360 119 360 119 360L118 357ZM153.187 369.437C149.414 373.858 148.6 377.036 148.75 382.754C149.26 387.337 151.084 390.132 154.375 393.25C159.268 396.512 163.069 397.704 169 397C173.471 394.933 177.525 392.367 180 388C181.735 382.793 181.663 377.851 179.812 372.687C176.624 367.96 173.614 365.937 168.125 364.562C161.795 363.509 158.003 365.264 153.187 369.437ZM310.687 371.187C308.354 375.076 307.806 378.49 308 383C309.568 388.227 311.768 391.556 316 395C320.928 397.464 325.786 397.668 331 396C334.695 393.623 338.175 391.058 339.844 386.894C339.895 386.269 339.947 385.644 340 385C339.34 384.34 338.68 383.68 338 383C338.234 380.863 338.234 380.863 338.75 378.312C339.144 375.226 339.314 373.592 337.844 370.82C334.725 367.136 332.498 365.239 327.512 364.762C319.863 364.561 316.307 365.871 310.687 371.187ZM198.006 373.402C196.109 376.414 196.502 379.582 197 383C197.833 385.167 197.833 385.167 200 386C202.719 386.231 205.26 386.135 208 386C208 385.34 208 384.68 208 384C209.423 384.031 209.423 384.031 210.875 384.062C213.907 384.225 213.907 384.225 216 383C217.704 382.774 219.413 382.591 221.125 382.437C222.035 382.354 222.945 382.27 223.883 382.184C224.581 382.123 225.28 382.062 226 382C225.361 381.732 224.721 381.464 224.062 381.187C222 380 222 380 221 377C219.126 376.198 219.126 376.198 216.937 375.812C216.204 375.654 215.471 375.495 214.715 375.332C214.149 375.222 213.583 375.113 213 375C214.669 375.017 214.669 375.017 216.371 375.035C236.254 375.166 256.126 374.534 276 374C276 374.66 276 375.32 276 376C273.36 376 270.72 376 268 376C267.711 376.619 267.422 377.237 267.125 377.875C266 380 266 380 264 382C265.622 382.53 267.248 383.048 268.875 383.562C269.78 383.852 270.685 384.143 271.617 384.441C273.998 385.267 273.998 385.267 276 384C276 384.66 276 385.32 276 386C277.791 386.054 279.583 386.093 281.375 386.125C282.373 386.148 283.37 386.171 284.398 386.195C287.163 386.272 287.163 386.272 289 384C289.319 381.63 289.319 381.63 289.25 379C289.255 378.113 289.26 377.226 289.266 376.312C289.221 373.806 289.221 373.806 287 372C284.245 371.796 281.591 371.717 278.834 371.725C277.568 371.718 277.568 371.718 276.277 371.71C273.477 371.696 270.678 371.697 267.879 371.699C265.938 371.695 263.998 371.691 262.057 371.686C257.986 371.679 253.915 371.679 249.843 371.684C244.62 371.69 239.397 371.673 234.173 371.65C230.164 371.635 226.155 371.634 222.147 371.637C220.22 371.637 218.294 371.632 216.368 371.622C213.677 371.609 210.986 371.616 208.295 371.628C207.496 371.62 206.696 371.612 205.872 371.604C201.683 371.611 201.683 371.611 198.006 373.402ZM339 375C340 377 340 377 340 377L339 375ZM264 378C265 380 265 380 265 380L264 378ZM339 378C339 379.98 339 381.96 339 384C339.66 383.01 340.32 382.02 341 381C340.34 380.01 339.68 379.02 339 378ZM293 417C293 417.33 293 417.66 293 418C309.5 418 326 418 343 418C343 417.67 343 417.34 343 417C326.5 417 310 417 293 417ZM147 422C147 424.31 147 426.62 147 429C147.33 429 147.66 429 148 429C148 426.69 148 424.38 148 422C147.67 422 147.34 422 147 422ZM147 441C148 445 148 445 148 445L147 441Z" fill="#191919"/>
<path d="M143.125 128.437C144.256 128.516 144.256 128.516 145.41 128.596C147.274 128.725 149.137 128.862 151 129C151 129.66 151 130.32 151 131C151.66 130.856 152.32 130.711 153 130.562C161.163 129.032 169.037 128.867 177.328 128.902C178.595 128.904 179.861 128.905 181.166 128.907C184.512 128.911 187.857 128.92 191.203 128.931C194.609 128.942 198.015 128.946 201.422 128.951C207.405 128.961 213.388 128.975 219.371 128.993C221.581 128.999 223.79 129 226 129C226 129.66 226 130.32 226 131C226.66 131 227.32 131 228 131C228.33 130.34 228.66 129.68 229 129C229.923 129.162 230.846 129.325 231.797 129.492C236.935 130.224 242.07 130.145 247.25 130.125C248.243 130.129 249.235 130.133 250.258 130.137C251.209 130.135 252.16 130.134 253.141 130.133C254.002 130.132 254.863 130.131 255.751 130.129C258.17 130.088 258.17 130.088 261 129C261 129.66 261 130.32 261 131C271.23 131 281.46 131 292 131C292.33 130.34 292.66 129.68 293 129C296.125 128.971 299.25 128.953 302.375 128.937C303.709 128.925 303.709 128.925 305.07 128.912C305.921 128.909 306.772 128.906 307.648 128.902C308.434 128.897 309.219 128.892 310.029 128.886C312 129 312 129 314 130C315.808 130.193 317.623 130.326 319.438 130.437C321.288 130.563 321.288 130.563 323.176 130.691C325.863 130.867 328.551 131.032 331.24 131.191C334.869 131.407 338.497 131.64 342.125 131.875C343.323 131.941 344.521 132.008 345.756 132.076C347.458 132.189 347.458 132.189 349.195 132.305C350.727 132.397 350.727 132.397 352.29 132.492C355.319 133.06 356.601 134.148 359 136C360.32 136 361.64 136 363 136C365.191 137.172 365.191 137.172 367 139C368.409 143.837 368.655 149.216 366.938 154C364.618 157.592 363.004 158.587 359 160C355.625 160.687 355.625 160.687 353 161C353.99 161.66 354.98 162.32 356 163C355.67 163.99 355.34 164.98 355 166C354.187 166.049 353.373 166.098 352.535 166.148C342.975 166.772 333.504 167.815 324 169C327.956 169.698 331.873 170.221 335.875 170.562C336.842 170.646 337.809 170.73 338.805 170.816C339.891 170.907 339.891 170.907 341 171C341 171.66 341 172.32 341 173C341.66 173 342.32 173 343 173C343 172.34 343 171.68 343 171C344.145 171.278 344.145 171.278 345.312 171.562C348.09 172.228 348.09 172.228 351 171C351 171.66 351 172.32 351 173C351.576 172.785 352.152 172.569 352.746 172.348C355.726 171.888 356.643 172.718 359.062 174.437C362.179 176.682 362.179 176.682 366 177C366.353 178.663 366.68 180.331 367 182C367.371 183.671 367.371 183.671 367.75 185.375C368.059 189.858 367.295 192.151 365 196C362.188 197.812 362.188 197.812 359 199C358.051 199.392 357.103 199.784 356.125 200.187C352.255 201.194 348.99 201.138 345 201C347.31 201.66 349.62 202.32 352 203C351.67 204.32 351.34 205.64 351 207C348.953 207.512 346.906 208.023 344.859 208.535C344.246 208.689 343.632 208.842 343 209C343.904 209.026 344.807 209.052 345.738 209.078C346.918 209.135 348.097 209.192 349.312 209.25C350.484 209.296 351.656 209.343 352.863 209.391C356 210 356 210 357.762 211.941C358.17 212.621 358.579 213.3 359 214C361.672 215.803 363.937 216.979 367 218C368.099 224.583 368.557 229.19 365 235C360.554 238.51 355.835 239.096 350.302 239.205C348.951 239.235 348.951 239.235 347.573 239.266C346.614 239.282 345.656 239.299 344.668 239.316C343.676 239.337 342.684 239.358 341.663 239.379C338.504 239.445 335.346 239.504 332.188 239.562C330.042 239.606 327.897 239.649 325.752 239.693C320.501 239.8 315.251 239.902 310 240C310.937 239.992 310.937 239.992 311.893 239.984C314.762 239.963 317.631 239.95 320.5 239.937C321.482 239.929 322.465 239.921 323.477 239.912C329.087 239.893 334.452 240.161 340 241C340 241.33 340 241.66 340 242C334.956 242.813 330.017 243.183 324.906 243.281C324.156 243.3 323.406 243.318 322.632 243.337C319.454 243.415 316.276 243.483 313.097 243.552C310.763 243.604 308.428 243.661 306.094 243.719C305.386 243.732 304.679 243.746 303.95 243.76C300.809 243.837 297.78 244.033 294.671 244.5C289.83 245.159 285.048 245.214 280.168 245.281C279.136 245.3 278.104 245.318 277.041 245.337C273.757 245.395 270.472 245.448 267.188 245.5C262.868 245.568 258.549 245.642 254.23 245.719C253.254 245.732 252.278 245.746 251.272 245.76C245.867 245.856 240.555 246.17 235.183 246.791C233 247 233 247 229 247C229 246.34 229 245.68 229 245C227.971 245.173 226.943 245.345 225.883 245.523C219.555 246.312 213.229 245.889 206.875 245.625C205.626 245.581 204.377 245.537 203.09 245.492C197.628 245.282 192.387 244.956 187 244C185.494 243.808 183.986 243.629 182.477 243.465C181.684 243.378 180.891 243.291 180.074 243.201C179.266 243.114 178.458 243.027 177.625 242.937C176.794 242.847 175.962 242.756 175.105 242.662C173.07 242.44 171.035 242.22 169 242C169 241.67 169 241.34 169 241C177.58 240.67 186.16 240.34 195 240C193.103 239.985 191.206 239.971 189.252 239.956C182.961 239.904 176.671 239.839 170.381 239.764C166.57 239.72 162.759 239.68 158.947 239.654C155.264 239.627 151.581 239.587 147.899 239.537C146.499 239.52 145.099 239.509 143.698 239.502C136.203 239.465 129.765 239.428 123 236C120.688 233.375 120.688 233.375 119 231C118.01 230.67 117.02 230.34 116 230C116.33 228.35 116.66 226.7 117 225C117.66 225 118.32 225 119 225C119 223.35 119 221.7 119 220C119.66 220 120.32 220 121 220C121 219.34 121 218.68 121 218C128.286 213.571 128.286 213.571 133 213C133 212.01 133 211.02 133 210C139.435 209.505 139.435 209.505 146 209C143.36 208.67 140.72 208.34 138 208C136.956 204.866 137.066 204.01 138 201C135.36 201 132.72 201 130 201C130 200.34 130 199.68 130 199C129.299 198.897 128.598 198.794 127.875 198.687C124.609 197.906 121.953 196.579 119 195C119 192.69 119 190.38 119 188C118.34 189.32 117.68 190.64 117 192C116.67 192 116.34 192 116 192C116 190.35 116 188.7 116 187C116.99 186.505 116.99 186.505 118 186C118.021 185.092 118.041 184.185 118.062 183.25C119 180 119 180 120.922 178.562C123.249 177.285 125.592 176.117 128 175C128.592 174.644 129.183 174.288 129.793 173.922C135.686 171.46 142.471 171.888 148.75 172C153.99 172.22 153.99 172.22 159.114 171.371C160.048 171.187 160.048 171.187 161 171C161.66 171.66 162.32 172.32 163 173C163 172.34 163 171.68 163 171C163.58 171.01 164.159 171.021 164.757 171.032C167.4 171.073 170.044 171.099 172.688 171.125C173.6 171.142 174.512 171.158 175.451 171.176C180.265 171.211 183.524 170.815 188 169C190.342 169.262 192.677 169.603 195 170C197.645 170.065 200.292 170.086 202.938 170.062C203.621 170.058 204.305 170.053 205.01 170.049C206.673 170.037 208.337 170.019 210 170C210 169.34 210 168.68 210 168C209.332 168.167 208.665 168.334 207.977 168.505C204.408 169.098 200.974 169.038 197.375 168.914C196.639 168.893 195.904 168.872 195.146 168.851C192.764 168.781 190.382 168.704 188 168.625C186.361 168.575 184.723 168.524 183.084 168.475C139.22 167.11 139.22 167.11 135 165C133.334 164.96 131.666 164.956 130 165C129.67 164.34 129.34 163.68 129 163C131.475 162.505 131.475 162.505 134 162C134 161.67 134 161.34 134 161C133.408 160.902 132.817 160.804 132.207 160.703C127.176 159.751 123.684 158.799 120 155C118.647 150.94 118.463 147.245 119 143C121.321 138.959 123.572 137.353 128 136C126.68 136 125.36 136 124 136C124 135.34 124 134.68 124 134C126.64 133.67 129.28 133.34 132 133C132.124 132.361 132.248 131.721 132.375 131.062C132.684 130.042 132.684 130.042 133 129C136.213 127.393 139.63 128.175 143.125 128.437ZM151 160C155 161 155 161 155 161L151 160ZM160 160C160 160.33 160 160.66 160 161C161.98 161 163.96 161 166 161C166 160.67 166 160.34 166 160C164.02 160 162.04 160 160 160ZM340 162C340 162.33 340 162.66 340 163C341.65 163 343.3 163 345 163C345 162.67 345 162.34 345 162C343.35 162 341.7 162 340 162ZM213 168C213 168.66 213 169.32 213 170C212.01 170.495 212.01 170.495 211 171C213.31 171 215.62 171 218 171C217.01 170.67 216.02 170.34 215 170C215 169.34 215 168.68 215 168C214.34 168 213.68 168 213 168ZM223 168C223 168.66 223 169.32 223 170C223.99 169.67 224.98 169.34 226 169C225.01 168.67 224.02 168.34 223 168ZM229 168C228.67 168.66 228.34 169.32 228 170C228.99 170.33 229.98 170.66 231 171C230.67 170.01 230.34 169.02 230 168C229.67 168 229.34 168 229 168ZM233 168C233 168.66 233 169.32 233 170C233.66 170 234.32 170 235 170C235 169.34 235 168.68 235 168C234.34 168 233.68 168 233 168ZM238 168C238 168.66 238 169.32 238 170C242.256 171.161 245.684 170.762 250 170C250 169.34 250 168.68 250 168C246.04 168 242.08 168 238 168ZM253 168C253 168.66 253 169.32 253 170C253.66 170 254.32 170 255 170C255 169.34 255 168.68 255 168C254.34 168 253.68 168 253 168ZM273 168C273 168.66 273 169.32 273 170C283.288 170.895 293.55 171.135 303.875 171.187C305.13 171.2 306.384 171.213 307.677 171.227C308.853 171.228 310.03 171.229 311.242 171.23C312.303 171.235 313.364 171.239 314.457 171.243C317.168 171.256 317.168 171.256 319 169C316.252 168.084 314.665 167.882 311.84 167.902C310.65 167.907 310.65 167.907 309.436 167.912C308.611 167.92 307.787 167.929 306.938 167.937C306.109 167.942 305.281 167.946 304.428 167.951C302.896 167.96 301.364 167.971 299.832 167.984C290.889 168.062 281.943 168 273 168ZM321 169C321 169.66 321 170.32 321 171C321.66 171 322.32 171 323 171C323 170.34 323 169.68 323 169C322.34 169 321.68 169 321 169ZM168 201C168 201.33 168 201.66 168 202C176.91 202 185.82 202 195 202C195 201.67 195 201.34 195 201C186.09 201 177.18 201 168 201ZM196 201C200 202 200 202 200 202L196 201ZM216 201C216 201.33 216 201.66 216 202C219.63 202 223.26 202 227 202C227 201.67 227 201.34 227 201C223.37 201 219.74 201 216 201ZM236 201C236 201.33 236 201.66 236 202C238.97 202 241.94 202 245 202C245 201.67 245 201.34 245 201C242.03 201 239.06 201 236 201ZM303 201C303 201.33 303 201.66 303 202C305.31 202 307.62 202 310 202C310 201.67 310 201.34 310 201C307.69 201 305.38 201 303 201ZM149 209C149 209.33 149 209.66 149 210C151.97 210 154.94 210 158 210C158 209.67 158 209.34 158 209C155.03 209 152.06 209 149 209ZM333 209C333 209.33 333 209.66 333 210C335.64 210 338.28 210 341 210C340.67 209.34 340.34 208.68 340 208C337.572 208 335.371 208.501 333 209ZM118 228C119 230 119 230 119 230L118 228Z" fill="#151515"/>
<path d="M130 199C204.25 199 278.5 199 355 199C353 201 353 201 351.055 201.195C349.036 201.13 347.018 201.065 345 201C347.31 201.66 349.62 202.32 352 203C351.67 204.32 351.34 205.64 351 207C348.953 207.512 346.906 208.023 344.859 208.535C343.939 208.765 343.939 208.765 343 209C343.904 209.026 344.807 209.052 345.738 209.078C346.918 209.135 348.097 209.192 349.312 209.25C350.484 209.296 351.656 209.343 352.863 209.391C356 210 356 210 357.762 211.941C358.17 212.621 358.579 213.3 359 214C361.672 215.803 363.937 216.979 367 218C368.099 224.583 368.557 229.19 365 235C360.554 238.51 355.835 239.096 350.302 239.205C348.951 239.235 348.951 239.235 347.573 239.266C346.135 239.291 346.135 239.291 344.668 239.316C343.676 239.337 342.684 239.358 341.663 239.379C338.504 239.445 335.346 239.504 332.188 239.562C330.042 239.606 327.897 239.649 325.752 239.693C320.501 239.8 315.251 239.902 310 240C310.937 239.992 310.937 239.992 311.893 239.984C314.762 239.963 317.631 239.95 320.5 239.938C321.482 239.929 322.465 239.921 323.477 239.912C329.087 239.893 334.452 240.161 340 241C340 241.33 340 241.66 340 242C334.956 242.813 330.017 243.183 324.906 243.281C324.156 243.3 323.406 243.318 322.632 243.337C319.454 243.415 316.276 243.483 313.097 243.552C310.763 243.604 308.428 243.661 306.094 243.719C305.386 243.732 304.679 243.746 303.95 243.76C300.809 243.837 297.78 244.033 294.671 244.5C289.83 245.159 285.048 245.214 280.168 245.281C279.136 245.3 278.104 245.318 277.041 245.337C273.757 245.395 270.472 245.448 267.188 245.5C262.868 245.568 258.549 245.642 254.23 245.719C252.766 245.739 252.766 245.739 251.272 245.76C245.867 245.856 240.555 246.17 235.183 246.791C233 247 233 247 229 247C229 246.34 229 245.68 229 245C227.971 245.173 226.943 245.345 225.883 245.523C219.555 246.312 213.229 245.889 206.875 245.625C205.626 245.581 204.377 245.537 203.09 245.492C197.628 245.282 192.387 244.956 187 244C185.494 243.808 183.986 243.629 182.477 243.465C181.684 243.378 180.891 243.291 180.074 243.201C179.266 243.114 178.458 243.027 177.625 242.938C176.794 242.847 175.962 242.756 175.105 242.662C173.07 242.44 171.035 242.22 169 242C169 241.67 169 241.34 169 241C177.58 240.67 186.16 240.34 195 240C192.155 239.978 192.155 239.978 189.252 239.956C182.961 239.904 176.671 239.839 170.381 239.764C166.57 239.72 162.759 239.68 158.947 239.654C155.264 239.627 151.581 239.587 147.899 239.537C146.499 239.52 145.099 239.509 143.698 239.502C136.203 239.465 129.765 239.428 123 236C120.688 233.375 120.688 233.375 119 231C118.01 230.67 117.02 230.34 116 230C116.33 228.35 116.66 226.7 117 225C117.66 225 118.32 225 119 225C119 223.35 119 221.7 119 220C119.66 220 120.32 220 121 220C121 219.34 121 218.68 121 218C128.286 213.571 128.286 213.571 133 213C133 212.01 133 211.02 133 210C139.435 209.505 139.435 209.505 146 209C143.36 208.67 140.72 208.34 138 208C136.956 204.867 137.066 204.01 138 201C135.36 201 132.72 201 130 201C130 200.34 130 199.68 130 199ZM168 201C168 201.33 168 201.66 168 202C176.91 202 185.82 202 195 202C195 201.67 195 201.34 195 201C186.09 201 177.18 201 168 201ZM196 201C200 202 200 202 200 202L196 201ZM216 201C216 201.33 216 201.66 216 202C219.63 202 223.26 202 227 202C227 201.67 227 201.34 227 201C223.37 201 219.74 201 216 201ZM236 201C236 201.33 236 201.66 236 202C238.97 202 241.94 202 245 202C245 201.67 245 201.34 245 201C242.03 201 239.06 201 236 201ZM303 201C303 201.33 303 201.66 303 202C305.31 202 307.62 202 310 202C310 201.67 310 201.34 310 201C307.69 201 305.38 201 303 201ZM149 209C149 209.33 149 209.66 149 210C151.97 210 154.94 210 158 210C158 209.67 158 209.34 158 209C155.03 209 152.06 209 149 209ZM333 209C333 209.33 333 209.66 333 210C335.64 210 338.28 210 341 210C340.67 209.34 340.34 208.68 340 208C337.572 208 335.371 208.501 333 209ZM118 228C119 230 119 230 119 230L118 228Z" fill="#191919"/>
<path d="M134.533 175.512C135.487 175.508 136.44 175.504 137.422 175.5C140.611 175.491 143.801 175.51 146.99 175.53C149.279 175.529 151.567 175.527 153.855 175.523C160.068 175.518 166.281 175.537 172.493 175.561C178.992 175.583 185.49 175.582 191.989 175.584C202.901 175.591 213.814 175.612 224.726 175.643C235.952 175.676 247.178 175.697 258.404 175.705C259.441 175.705 259.441 175.705 260.5 175.706C263.28 175.708 266.059 175.71 268.839 175.712C280.188 175.72 291.536 175.737 302.884 175.756C305.47 175.76 308.055 175.763 310.641 175.767C318.012 175.777 325.382 175.791 332.753 175.814C334.987 175.82 337.222 175.824 339.456 175.827C342.502 175.831 345.548 175.841 348.594 175.853C349.481 175.853 350.369 175.852 351.284 175.852C355.34 175.874 359.031 176.072 363 177C363.99 177 364.98 177 366 177C366.353 178.663 366.68 180.331 367 182C367.248 183.114 367.495 184.227 367.75 185.375C368.059 189.858 367.295 192.151 365 196C359.892 199.393 355.423 199.426 349.511 199.381C348.563 199.386 347.615 199.39 346.638 199.395C343.464 199.407 340.291 199.398 337.117 199.388C334.84 199.392 332.564 199.398 330.287 199.404C324.105 199.418 317.923 199.412 311.742 199.403C305.274 199.395 298.807 199.402 292.339 199.407C280.782 199.413 269.225 199.404 257.668 199.388C247.194 199.375 236.719 199.377 226.244 199.391C214.075 199.407 201.906 199.413 189.736 199.404C183.296 199.4 176.856 199.399 170.416 199.409C164.362 199.417 158.308 199.411 152.254 199.394C150.031 199.39 147.808 199.391 145.586 199.398C142.553 199.406 139.521 199.396 136.489 199.381C135.608 199.388 134.727 199.394 133.819 199.401C128.768 199.353 125.427 198.69 121 196C120.34 195.67 119.68 195.34 119 195C119 192.69 119 190.38 119 188C118.34 189.32 117.68 190.64 117 192C116.67 192 116.34 192 116 192C116 190.35 116 188.7 116 187C116.66 186.67 117.32 186.34 118 186C118.083 185.072 118.165 184.144 118.25 183.187C119 180 119 180 121.451 177.831C126.02 175.474 129.473 175.45 134.533 175.512Z" fill="#191919"/>
<path d="M225 253C227.979 252.973 230.958 252.953 233.938 252.937C234.768 252.929 235.599 252.921 236.455 252.912C241.375 252.893 246.134 253.173 251.015 253.779C253.461 254.051 255.854 254.064 258.312 254C260.649 253.94 262.619 253.9 264.882 254.496C267.051 255.012 268.927 255.129 271.152 255.133C271.929 255.134 272.706 255.135 273.506 255.137C274.308 255.133 275.111 255.129 275.938 255.125C276.736 255.129 277.535 255.133 278.357 255.137C282.383 255.13 286.064 254.941 290 254C290.66 254 291.32 254 292 254C292 254.66 292 255.32 292 256C295.621 257.014 299.278 257.499 303 258C303.33 258.99 303.66 259.98 304 261C305.607 261.41 307.215 261.816 308.828 262.199C312.553 263.573 315.524 266.06 318.668 268.441C320.827 270.116 320.827 270.116 323.051 270.34C326.272 271.431 327.267 274.185 329 277C330.43 278.839 331.867 280.673 333.312 282.5C345.834 299.257 345.834 299.257 344.938 309.375C344.667 310.925 344.371 312.471 344 314C343.01 314.33 342.02 314.66 341 315C340.876 314.361 340.752 313.721 340.625 313.062C340.419 312.382 340.213 311.701 340 311C339.34 310.67 338.68 310.34 338 310C337.67 311.32 337.34 312.64 337 314C335.68 314 334.36 314 333 314C333.217 315.321 333.217 315.321 333.438 316.668C333.623 317.829 333.809 318.991 334 320.187C334.186 321.336 334.371 322.485 334.562 323.668C334.936 326.512 335.034 329.142 335 332C331.19 332.679 327.376 333.341 323.562 334C322.493 334.191 321.424 334.382 320.322 334.578C314.113 335.641 308.298 336.212 302 336C302 335.67 302 335.34 302 335C302.777 334.884 303.554 334.768 304.355 334.649C307.862 334.123 311.369 333.593 314.875 333.062C316.098 332.88 317.322 332.698 318.582 332.51C319.749 332.332 320.915 332.155 322.117 331.973C323.196 331.81 324.275 331.648 325.386 331.481C327.97 331.131 327.97 331.131 330 330C329.67 329.01 329.34 328.02 329 327C329 325.68 329 324.36 329 323C329.66 323 330.32 323 331 323C330.526 322.67 330.051 322.34 329.562 322C327.194 318.969 327.099 315.775 327 312C327.438 309.5 327.438 309.5 328 308C327.34 308 326.68 308 326 308C325.969 306.793 325.969 306.793 325.938 305.562C323.6 296.679 315.212 289.278 308 284C304.969 282.587 302.27 281.791 299 281C298.67 281.33 298.34 281.66 298 282C298.99 282.99 299.98 283.98 301 285C290.686 286.392 280.522 287.157 270.109 287.09C268.993 287.086 267.877 287.082 266.727 287.078C254.741 287.023 242.756 286.845 230.772 286.628C227.079 286.562 223.385 286.502 219.691 286.443C217.297 286.401 214.902 286.359 212.508 286.316C210.886 286.291 210.886 286.291 209.231 286.266C202.121 286.129 195.079 285.673 188 285C188.33 283.68 188.66 282.36 189 281C184.515 281.656 180.331 282.701 176 284C174 281 174 281 174 278C173.34 278 172.68 278 172 278C171.67 278.66 171.34 279.32 171 280C170.67 277.36 170.34 274.72 170 272C168.35 272.66 166.7 273.32 165 274C165 272 165 272 167 269.687C170.775 266.042 175.322 263.339 180 261C179.01 260.67 178.02 260.34 177 260C180.83 258.198 183.781 257.804 188 258C188 257.34 188 256.68 188 256C188.99 256 189.98 256 191 256C191 256.66 191 257.32 191 258C196.61 258 202.22 258 208 258C208 257.34 208 256.68 208 256C208.99 256 209.98 256 211 256C211 256.66 211 257.32 211 258C211.66 258 212.32 258 213 258C213.66 256.68 214.32 255.36 215 254C215.495 255.98 215.495 255.98 216 258C216.66 256.68 217.32 255.36 218 254C220.31 254.33 222.62 254.66 225 255C225 254.34 225 253.68 225 253ZM192 280C192 280.33 192 280.66 192 281C193.65 281 195.3 281 197 281C197 280.67 197 280.34 197 280C195.35 280 193.7 280 192 280ZM293 280C297 281 297 281 297 281L293 280ZM329 314C329.66 314.66 330.32 315.32 331 316C331 315.34 331 314.68 331 314C330.34 314 329.68 314 329 314ZM331 317C330.67 317.99 330.34 318.98 330 320C330.66 320 331.32 320 332 320C331.67 319.01 331.34 318.02 331 317ZM332 321C332 322.65 332 324.3 332 326C332.33 326 332.66 326 333 326C333 324.35 333 322.7 333 321C332.67 321 332.34 321 332 321Z" fill="#171717"/>
</svg>
