<svg width="17" height="17" viewBox="0 0 17 17" fill="none" xmlns="http://www.w3.org/2000/svg">
<g clip-path="url(#clip0_850_3084)">
<path d="M8.50033 15.5837C12.4123 15.5837 15.5837 12.4123 15.5837 8.50033C15.5837 4.58831 12.4123 1.41699 8.50033 1.41699C4.58831 1.41699 1.41699 4.58831 1.41699 8.50033C1.41699 12.4123 4.58831 15.5837 8.50033 15.5837Z" stroke="#C10306" stroke-linecap="round" stroke-linejoin="round"/>
<path d="M6.43945 6.37492C6.60599 5.90151 6.93469 5.50232 7.36734 5.24805C7.79999 4.99378 8.30867 4.90083 8.80329 4.98567C9.2979 5.07051 9.74653 5.32766 10.0697 5.71158C10.3929 6.0955 10.5698 6.58141 10.569 7.08325C10.569 8.49992 8.44404 9.20825 8.44404 9.20825V11" stroke="#C10306" stroke-linecap="round" stroke-linejoin="round"/>
<path d="M8.5 13.041H8.50625" stroke="#C10306" stroke-linecap="round" stroke-linejoin="round"/>
</g>
<defs>
<clipPath id="clip0_850_3084">
<rect width="17" height="17" fill="white"/>
</clipPath>
</defs>
</svg>
