<?xml version="1.0" encoding="UTF-8"?>
<svg version="1.1" viewBox="0 0 2048 464" width="1280" height="1280" xmlns="http://www.w3.org/2000/svg">
<path transform="translate(262,150)" d="m0 0 5 2 47 32 17 12 20 14 18 13 18 12v-25l-5-5-7-6-5-8-1-3v-12l5-10 9-8 14-7h3l1 28 9 4h8l8-3 2-3v-25l2-1 11 5 9 6 5 5 4 6 1 5v7l-3 9-7 8-8 6-2 28 22-15 18-13 38-26 12-8 20-14 13-9 3-1 1 1v237h-52v-139l-1-14-16 10-46 32-8 6-2 2-1 10v93l5 2 10 9 3 6 1 11-3 10-7 7-11 7-8 3h-3v-28l-9-3-7-1-10 4-1 1v25l-2 2-6-1-12-7-8-7-4-8v-13l3-8 5-5 10-7v-101l-5-5-20-14-16-11-23-16-9-5-1 153h-51zm12 21v207l1 1h24l1-13v-117l-1-35-1-2 14 7 38 28 14 10 13 9 19 13 15 10 5 1 16-11 22-15 18-13 20-14 19-14 15-10 3-1-1 4-1 36v95l1 30 1 2h25l1-208-4 1-12 8-20 14-17 12-23 16-16 11-34 23-13 9-5-1-16-11-24-16-17-12-19-13-16-11-20-14-17-12zm113-1-4 3-1 3v12l6 8 11 7 1 42 9 7 3 2 5-1 9-6 3-5v-38l11-8 6-7 1-3v-8l-4-7-2-1-1 15-9 3-13 5h-7l-19-7-3-2-1-14zm13 124-1 98-9 5-7 8-1 2v12l4 6 2 1 1-15 8-4 14-5 9 1 19 7 1 2v14l3-1 4-7v-9l-3-6-9-8-6-3v-98l-4 2-10 6-4-1-10-7z" fill="#8A1C1C"/>
<path transform="translate(772,224)" d="m0 0 6 1 2 2 1 47v57l-1 10-2 1h-9l-3-3-1-17v-52l-8 16-15 36-4 5h-5l-4-5-16-37-8-17v70l-3 4h-10l-2-1v-115l1-1h10l5 6 7 15 13 31 8 18 2 3 6-12 11-27 12-29 4-5z" fill="#841111"/>
<path transform="translate(936,225)" d="m0 0h34l17 2 7 3 6 7 4 11 1 10-4 13-4 7 2 5 6 9 4 12v11l-3 10-6 9-9 5-8 2h-47zm15 17v32h27l6-3 4-5 1-3v-8l-3-8-6-4-3-1zm0 49-1 3v19l1 10 1 1h28l8-4 4-5v-16l-6-7-9-1z" fill="#840F0F"/>
<path transform="translate(856,223)" d="m0 0h7l12 4 11 8 8 11 5 12 3 16 1 15-3 16-5 13-6 9-6 7-10 6-7 2-10 1-12-3-9-5-6-5-7-11-5-12-3-12-1-16 4-20 5-13 7-9 7-7 10-5zm-3 19-8 4-8 8-5 10-2 9v21l3 10 5 9 9 8 12 3 11-3 7-6 8-16 2-9v-15l-4-14-6-10-8-6-6-3z" fill="#841010"/>
<path transform="translate(1545,225)" d="m0 0h30l14 2 10 5 7 9 4 10 1 6v18l-2 10-4 8-9 10 3 9 12 23 1 5-3 2h-10l-6-7-12-24-1-3-5-1h-16l-1 33-2 2h-8l-4-1-1-2v-108zm14 17-1 1v47h20l9-3 6-7 4-10v-7l-5-12-7-6-11-3z" fill="#841111"/>
<path transform="translate(1858,225)" d="m0 0h56l3 5v8l-2 4-7 1h-34l-1 26v2l39 1 1 1v17l-1 2h-39v19l1 9 45 1 1 2v13l-1 5h-62l-1-3v-106z" fill="#891A1A"/>
<path transform="translate(1786,223)" d="m0 0h8l12 4 9 7 4 5 1 7-7 8-9-5-6-4-6-2h-9l-9 6-4 2-7 14-3 12v12l3 12 6 12 7 6 8 3 6 1 11-2 3-5 1-33 1-2h13l1 1v46l-4 5-10 6-7 2h-21l-11-4-10-9-7-12-5-15-1-6v-23l3-14 8-16 9-10 7-5 9-3z" fill="#841111"/>
<path transform="translate(1187,225)" d="m0 0h53l4 1 1 2v13l-1 1h-44v27l1 3h36l2 2v12l-2 6h-37v29h44l1 1v19h-59l-1-4v-105z" fill="#861313"/>
<path transform="translate(1367,223)" d="m0 0h7l12 4 6 4 6 5 2 4-1 6-7 9-3-1-5-6-10-5h-11l-11 7-6 8-4 10-1 5v19l4 13 6 9 7 6 7 2h9l9-3 2-5 1-32 3-2h8l2 1 1 3v38l-1 8-8 7-11 4-13 1-13-2-8-4-10-11-8-16-2-6-2-14v-13l3-16 4-11 5-9 9-9 12-6z" fill="#841010"/>
<path transform="translate(1674,225)" d="m0 0h11l5 10 16 50 17 54v3h-9l-7-1-8-24-1-2-39-1-3 10-5 14-2 3h-14l1-8 12-37 16-51 5-15zm4 23-11 36-3 10v3h27l1-5-4-15-6-19-2-9z" fill="#830E0E"/>
<path transform="translate(1465,225)" d="m0 0h11l4 5 11 33 17 54 7 22v3h-9l-7-2-7-19-2-7-39 1-9 25-1 1h-13v-7l12-38 17-54 4-12zm5 25-4 11-8 26-2 10h28l-1-10-9-30-3-7z" fill="#830F0F"/>
<path transform="translate(1099,225)" d="m0 0h11l1 1 1 95h40l3 2v14l-2 4h-55l-1-4 1-110z" fill="#841010"/>
<path transform="translate(1046,224)" d="m0 0h6l5 4v112l-1 1h-14l-1-2v-110l2-4z" fill="#891B1B"/>
<path transform="translate(273,169)" d="m0 0 2 2v207l24 1v-130l-1-37h3v168h-27l-1-1z" fill="#FFFFFE"/>
<path transform="translate(1873,271)" d="m0 0 39 1 1 2h-39z" fill="#FFFFFE"/>
</svg>
