<svg width="18" height="19" viewBox="0 0 18 19" fill="none" xmlns="http://www.w3.org/2000/svg">
<g clip-path="url(#clip0_118_11901)">
<path d="M15.534 14.0216V4.93957C15.534 4.73057 15.3767 4.55957 15.1845 4.55957H2.60196C2.40972 4.55957 2.25244 4.73057 2.25244 4.93957V14.0596C2.25244 14.5346 2.82914 14.4396 2.60196 14.4396H15.1845C15.7088 14.4396 15.4641 13.5656 15.534 14.0216ZM3.30099 13.6796L7.14565 8.22657L10.3612 12.8056L10.9728 13.6796H3.30099ZM11.8641 13.6796L11.0777 12.5776L12.3884 10.7156L14.468 13.6796H11.8641ZM14.835 12.9196L12.668 9.84157C12.5282 9.63257 12.2486 9.63257 12.1088 9.84157L10.6408 11.9316L7.42526 7.37157C7.28545 7.16257 7.00584 7.16257 6.86603 7.37157L2.95147 12.9386V5.31957H14.835V12.9196ZM10.8155 6.45957C10.134 6.45957 9.59225 7.04857 9.59225 7.78957C9.59225 8.53057 10.134 9.11957 10.8155 9.11957C11.4971 9.11957 12.0388 8.53057 12.0388 7.78957C12.0388 7.04857 11.4796 6.45957 10.8155 6.45957ZM10.8155 8.35957C10.5359 8.35957 10.2913 8.11257 10.2913 7.78957C10.2913 7.46657 10.5185 7.21957 10.8155 7.21957C11.1126 7.21957 11.3398 7.46657 11.3398 7.78957C11.3398 8.11257 11.0952 8.35957 10.8155 8.35957Z" fill="#C50709"/>
<path d="M165.126 -123.5V196.46H-146.641V-123.5H165.126ZM166.524 -125.02H-148.04V197.98H166.524V-125.02Z" fill="#C50709"/>
</g>
<defs>
<clipPath id="clip0_118_11901">
<rect width="17.4757" height="19" fill="white" transform="translate(0.155273)"/>
</clipPath>
</defs>
</svg>
