<svg width="21" height="22" viewBox="0 0 21 22" fill="none" xmlns="http://www.w3.org/2000/svg">
<path d="M3 0.25C4.51878 0.25 5.75 1.48122 5.75 3H4.25C4.25 2.30964 3.69036 1.75 3 1.75V0.25ZM3 0.25V1.75C2.30964 1.75 1.75 2.30964 1.75 3H0.25C0.25 1.48122 1.48122 0.25 3 0.25ZM0.25 3H1.75C1.75 3.69036 2.30964 4.25 3 4.25V5.75C1.48122 5.75 0.25 4.51878 0.25 3ZM4.25 3H5.75C5.75 4.51878 4.51878 5.75 3 5.75V4.25C3.69036 4.25 4.25 3.69036 4.25 3Z" fill="#28303F"/>
<path d="M1 7.5V6.75C0.801088 6.75 0.610322 6.82902 0.46967 6.96967C0.329018 7.11032 0.25 7.30109 0.25 7.5H1ZM5 7.5H5.75C5.75 7.30109 5.67098 7.11032 5.53033 6.96967C5.38968 6.82902 5.19891 6.75 5 6.75V7.5ZM5 21V21.75C5.19891 21.75 5.38968 21.671 5.53033 21.5303C5.67098 21.3897 5.75 21.1989 5.75 21H5ZM1 21H0.25C0.25 21.1989 0.329018 21.3897 0.46967 21.5303C0.610322 21.671 0.801088 21.75 1 21.75V21ZM1 8.25H5V6.75H1V8.25ZM4.25 7.5V21H5.75V7.5H4.25ZM5 20.25H1V21.75H5V20.25ZM1.75 21V7.5H0.25V21H1.75Z" fill="#28303F"/>
<path d="M8 7.5V6.75C7.80109 6.75 7.61032 6.82902 7.46967 6.96967C7.32902 7.11032 7.25 7.30109 7.25 7.5H8ZM12 7.5H12.75C12.75 7.30109 12.671 7.11032 12.5303 6.96967C12.3897 6.82902 12.1989 6.75 12 6.75V7.5ZM12 21V21.75C12.1989 21.75 12.3897 21.671 12.5303 21.5303C12.671 21.3897 12.75 21.1989 12.75 21H12ZM8 21H7.25C7.25 21.1989 7.32902 21.3897 7.46967 21.5303C7.61032 21.671 7.80109 21.75 8 21.75V21ZM20 21V21.75C20.1989 21.75 20.3897 21.671 20.5303 21.5303C20.671 21.3897 20.75 21.1989 20.75 21H20ZM16 21H15.25C15.25 21.1989 15.329 21.3897 15.4697 21.5303C15.6103 21.671 15.8011 21.75 16 21.75V21ZM12 8.341H11.25C11.2497 8.46115 11.2783 8.57961 11.3333 8.68641C11.3883 8.79321 11.4682 8.88523 11.5662 8.95472C11.6642 9.02421 11.7775 9.06914 11.8965 9.08572C12.0155 9.1023 12.1367 9.09005 12.25 9.05L12 8.341ZM8 8.25H12V6.75H8V8.25ZM12 20.25H8V21.75H12V20.25ZM8.75 21V7.5H7.25V21H8.75ZM8.75 21V14H7.25V21H8.75ZM19.25 14V21H20.75V14H19.25ZM20 20.25H16V21.75H20V20.25ZM11.25 14V21H12.75V14H11.25ZM15.25 14V21H16.75V14H15.25ZM14 12.75C14.3315 12.75 14.6495 12.8817 14.8839 13.1161C15.1183 13.3505 15.25 13.6685 15.25 14H16.75C16.75 13.2707 16.4603 12.5712 15.9445 12.0555C15.4288 11.5397 14.7293 11.25 14 11.25V12.75ZM14 11.25C13.2707 11.25 12.5712 11.5397 12.0555 12.0555C11.5397 12.5712 11.25 13.2707 11.25 14H12.75C12.75 13.6685 12.8817 13.3505 13.1161 13.1161C13.3505 12.8817 13.6685 12.75 14 12.75V11.25ZM20.75 14C20.75 12.2098 20.0388 10.4929 18.773 9.22703C17.5071 7.96116 15.7902 7.25 14 7.25V8.75C15.3924 8.75 16.7277 9.30312 17.7123 10.2877C18.6969 11.2723 19.25 12.6076 19.25 14H20.75ZM12.25 9.05C12.812 8.8512 13.4039 8.74974 14 8.75V7.25C13.2336 7.24915 12.4727 7.37901 11.75 7.634L12.25 9.05ZM11.25 7.5V8.341H12.75V7.5H11.25Z" fill="#28303F"/>
</svg>
