<svg width="14" height="15" viewBox="0 0 14 15" fill="none" xmlns="http://www.w3.org/2000/svg">
<path d="M11.6667 6.84961H2.33333C1.59695 6.84961 1 7.43164 1 8.14961V12.6996C1 13.4176 1.59695 13.9996 2.33333 13.9996H11.6667C12.403 13.9996 13 13.4176 13 12.6996V8.14961C13 7.43164 12.403 6.84961 11.6667 6.84961Z" stroke="#C50709" stroke-linecap="round" stroke-linejoin="round"/>
<path d="M3.66797 6.85V4.25C3.66797 3.38805 4.01916 2.5614 4.64428 1.9519C5.2694 1.34241 6.11725 1 7.0013 1C7.88536 1 8.7332 1.34241 9.35832 1.9519C9.98345 2.5614 10.3346 3.38805 10.3346 4.25V6.85" stroke="#C50709" stroke-linecap="round" stroke-linejoin="round"/>
</svg>
