<svg width="39" height="39" viewBox="0 0 39 39" fill="none" xmlns="http://www.w3.org/2000/svg">
<g filter="url(#filter0_i_168_18611)">
<circle cx="19.5" cy="19.5" r="19.5" fill="#FFEAEA"/>
</g>
<path d="M25.75 18.5C25.75 23.75 19 28.25 19 28.25C19 28.25 12.25 23.75 12.25 18.5C12.25 16.7098 12.9612 14.9929 14.227 13.727C15.4929 12.4612 17.2098 11.75 19 11.75C20.7902 11.75 22.5071 12.4612 23.773 13.727C25.0388 14.9929 25.75 16.7098 25.75 18.5Z" stroke="#C50709" stroke-linecap="round" stroke-linejoin="round"/>
<path d="M19 20.75C20.2426 20.75 21.25 19.7426 21.25 18.5C21.25 17.2574 20.2426 16.25 19 16.25C17.7574 16.25 16.75 17.2574 16.75 18.5C16.75 19.7426 17.7574 20.75 19 20.75Z" stroke="#C50709" stroke-linecap="round" stroke-linejoin="round"/>
<defs>
<filter id="filter0_i_168_18611" x="0" y="-2" width="39" height="41" filterUnits="userSpaceOnUse" color-interpolation-filters="sRGB">
<feFlood flood-opacity="0" result="BackgroundImageFix"/>
<feBlend mode="normal" in="SourceGraphic" in2="BackgroundImageFix" result="shape"/>
<feColorMatrix in="SourceAlpha" type="matrix" values="0 0 0 0 0 0 0 0 0 0 0 0 0 0 0 0 0 0 127 0" result="hardAlpha"/>
<feMorphology radius="2" operator="dilate" in="SourceAlpha" result="effect1_innerShadow_168_18611"/>
<feOffset dy="-2"/>
<feGaussianBlur stdDeviation="2"/>
<feComposite in2="hardAlpha" operator="arithmetic" k2="-1" k3="1"/>
<feColorMatrix type="matrix" values="0 0 0 0 0 0 0 0 0 0 0 0 0 0 0 0 0 0 0.25 0"/>
<feBlend mode="normal" in2="shape" result="effect1_innerShadow_168_18611"/>
</filter>
</defs>
</svg>
