<svg version="1.2" xmlns="http://www.w3.org/2000/svg" viewBox="0 0 1095 592" width="1095" height="592"><style>.a{fill:#990002}</style><path fill-rule="evenodd" class="a" d="m420.7 0c0.5 0 5.8 5.1 11.8 11.3 6.1 6.1 28.3 28.7 49.3 50.2 21.1 21.4 39.2 39.3 40.3 39.7 1.4 0.6 2.2 0.2 3-1.5 0.8-1.4 1-6.9 0.4-29.6l-4.7-4.8c-2.5-2.6-5.9-7.3-7.4-10.3-2.2-4.3-2.9-7.3-3.2-14-0.3-4.7 0-10.8 0.7-13.5 0.6-2.8 2.9-7.8 5.1-11.3 2.5-3.9 6.2-7.9 10-10.7 3.3-2.5 6.7-4.5 7.5-4.5 1.2 0 1.6 2 1.9 10.7 0.2 6 0.4 13.3 0.4 16.3 0 3 0.1 5.9 0.1 6.5 0 0.5 2.6 2.2 5.6 3.7 4.8 2.5 6 2.7 9.5 1.8 2.2-0.6 5.1-2.1 6.5-3.5 2.5-2.5 2.5-2.7 2.5-19 0-9.1 0.1-16.5 0.2-16.5 0.2 0 2.1 0.8 4.3 1.9 2.2 1.1 6 3.9 8.5 6.3 2.5 2.5 6 6.7 7.8 9.4 1.8 2.7 3.7 7.4 4.3 10.4 0.6 3 0.9 8.6 0.7 12.5-0.3 3.8-1.4 9-2.4 11.5-1 2.5-4.5 7.6-13.5 18.5l0.1 14.5c0 8 0.4 15.2 0.9 16 0.7 1.2 1.6 0.8 5.2-2.5 2.3-2.2 6.1-6 8.3-8.5 2.2-2.5 21.8-22.5 43.6-44.4 21.7-22 41.1-41.5 42.9-43.4 2-2 3.8-3.1 4.3-2.6 0.4 0.5 0.7 66.4 0.3 291.9l-20 0.2c-14.7 0.2-20.3-0.1-21.3-1-1-1-1.3-13.5-1.2-62.2 0-33.6 0.5-69.1 1-79 0.7-13.2 0.7-18.9-0.1-21.5-0.7-1.9-1.3-7.8-1.4-13-0.2-5.2-0.3-9.8-0.4-10.3 0-0.4-0.9-0.7-1.9-0.7-0.9 0-13.3 11.7-28.3 26.7-14.6 14.8-27.7 28.6-31.7 34.8l-0.6 32.5c-0.4 17.9-0.4 46.2 0.8 93.5l5 5c2.7 2.8 6.1 7.5 7.5 10.5 2.3 4.8 2.6 6.8 2.6 16-0.1 8.7-0.5 11.4-2.3 15.5-1.3 2.7-4.4 7.2-7 9.9-2.6 2.7-6.7 6.1-9.2 7.7-2.5 1.6-5.1 2.9-5.8 2.9-0.9 0-1.2-4-1.2-33l-2.8-1.9c-1.5-1-4.3-2.6-6.2-3.6-3.5-1.8-3.5-1.8-8.8 1.1-4 2.2-5.5 3.7-6.4 6.4-0.7 2.3-0.9 7.9-0.5 16.7 0.6 11.3 0.5 13.4-0.8 13.8-0.8 0.3-3.6-0.7-6.2-2.3-2.6-1.5-7-5.4-9.8-8.8-3.2-3.9-5.7-8.2-6.9-12-1.4-4.6-1.7-7.8-1.3-14.9 0.3-5.5 1.3-11.2 2.6-14.8 1.2-3.2 3.1-6.3 4.3-7.1 1.3-0.8 3.6-3.3 8.3-9.9l0.3-58.6c0.2-32.2 0-60.6-0.3-63.1-0.7-4.2-2.3-6-27.9-32-14.9-15.1-28.4-28.4-29.9-29.5-1.5-1.1-2.9-1.8-3.2-1.5-0.2 0.3-0.8 3.4-1.4 7-0.7 4.2-1.1 36.5-1.1 92.5 0 66.2-0.2 86.3-1.2 87.2-0.9 1-6.5 1.3-40.8 1.3l-0.2-74.3c-0.1-40.8-0.5-67.9-0.8-60.2-0.4 7.8-0.5 2.2-0.3-12.5 0.2-14.6 0.6-53.1 0.7-85.5 0.2-32.5 0.4-59.3 0.5-59.8 0.1-0.4 0.4-0.7 0.8-0.7zm8.3 155.2v123.8c3.5 2.2 6.1 3 8 3.4 1.9 0.3 5.3 0.1 7.5-0.4 2.2-0.5 4.6-1.7 5.3-2.7 1.1-1.4 1.3-7.4 0.8-30.3-0.4-15.7-0.7-46.7-0.8-69-0.1-22.3 0-55 0.2-72.7 0.5-31.7 0.5-32.1 2.5-31 1.1 0.6 7.4 6.7 14 13.6 6.6 6.9 25.7 26.7 42.5 43.9 16.8 17.3 32 32.8 33.7 34.3 1.8 1.6 4.1 2.9 5 2.9 1-0.1 5.6-3.8 10.2-8.3 4.6-4.5 20.5-20.8 35.5-36.2 14.9-15.5 32-33.4 38.1-39.8 6-6.4 11.3-11.7 11.7-11.7 0.5 0 0.5 13.6 0.1 30.2-0.4 16.7-0.6 33.4-0.5 37.3 0.2 3.8 0.4 33.8 0.6 66.5 0.1 32.7 0.3 61.6 0.4 64.2 0.1 3 0.9 5.5 1.9 6.6 1 1 3.7 2.1 6 2.5 2.4 0.4 6.1 0.2 8.3-0.3 2.3-0.6 4.4-1.9 5-3 0.7-1.3 1-45.2 1-125.5 0-67.9-0.2-124.2-0.5-125-0.3-0.8-1.3-1.5-2.3-1.5-0.9 0-6.7 5-12.7 11.2-6.1 6.2-31.3 31.9-56 57.1-26 26.5-45.7 45.8-46.8 45.7-0.9 0-26.3-24.9-56.3-55.3-30.1-30.3-55.8-56-57.3-56.9-1.4-1-2.9-1.8-3.3-1.8-0.3 0-0.9 1-1.2 2.2-0.3 1.3-0.6 58-0.6 126zm91.4-112c0.3 2.7 1.6 6.5 2.7 8.5 1.2 2.1 4.5 5.9 7.3 8.5l5.1 4.6c0.2 36.2 0.3 47.7 0.4 48.9 0.1 1.3 2.2 4.8 4.8 7.8 2.8 3.1 5.7 5.5 6.8 5.5 1.1 0 4.2-2.2 7-5l5-5.1 1-52.4c10.6-10.6 12.4-13.3 13.8-17.5 0.9-3 1.7-6.6 1.7-8 0-1.4-0.4-4.2-0.8-6.3-0.4-2-1.4-4-2.2-4.2-0.8-0.3-1.8 0-2.2 0.7-0.4 0.7-0.8 3.2-0.8 5.5 0 2.4-0.3 5-0.8 5.9-0.4 0.9-4.5 3.9-9.2 6.8-6.1 3.6-9.5 5-12 5-2.2-0.1-6.5-1.8-11.8-4.7-4.5-2.6-8.7-5.6-9.2-6.7-0.6-1.1-1-4.7-1.1-8 0-5.6-0.2-6-2.4-6-2.1 0-2.4 0.6-3.1 5.7-0.3 3.2-0.4 7.9 0 10.5zm15.1 196.1v57.8c-6.2 5.1-9.6 9-11.5 12-3.4 5.1-3.5 5.7-3.5 14.5 0 6.7 0.4 9.5 1.5 10.8 0.8 0.9 1.8 1.3 2.3 0.9 0.4-0.4 1.1-4.2 1.6-8.3 0.4-4.1 1.2-7.6 1.7-7.7 0.5-0.2 4.7-2.6 9.4-5.4 6.6-3.9 9.2-4.9 11.5-4.5 1.6 0.2 6.8 2.6 11.4 5.3 4.6 2.6 8.8 5.6 9.2 6.5 0.5 1 0.9 4.9 0.9 8.8 0 4 0.4 7 1 7 0.5 0 1-0.6 1-1.3 0.1-0.6 0.8-1.7 1.8-2.4 1.4-0.9 1.7-2.7 1.6-9 0-6.7-0.5-8.7-3.2-14.1-1.8-3.4-4.4-7-5.8-8-1.4-0.9-3.4-2.5-4.5-3.5-1.8-1.6-1.9-3.9-1.9-58.5 0-31.2-0.2-57.7-0.5-59-0.4-1.6-1-2-2.3-1.5-0.9 0.3-3.4 2.1-5.5 4-2 1.8-4.2 3.3-4.7 3.3-0.6 0-2.7-1.8-4.8-4-2-2.3-4-4.1-4.4-4-0.4 0-1.1 0.6-1.5 1.2-0.4 0.7-0.8 27.3-0.8 59.1zm-215 192.3c2.2 0.3 4.8 1.3 5.8 2.2 1.6 1.6 1.8 4.4 1.8 36.2 0 31.9-0.2 34.6-1.8 35.8-1 0.7-3.8 1.2-6.3 1.2-2.5 0-5.1-0.5-5.8-1.2-0.9-1-1.3-9.7-1.4-37-0.1-34.3-0.1-35.7 1.8-36.7 1-0.6 3.7-0.8 5.9-0.5zm49.2-0.6c2.3 0 3.8 0.7 4.8 2.2 1.3 1.9 1.5 7 1.5 58.8l2.5 1c1.4 0.5 9.7 1 18.5 1 12.9 0 16.3 0.3 17.5 1.5 0.8 0.8 1.5 2.2 1.5 3 0 0.8-0.7 2.8-1.5 4.5-0.8 1.6-2.1 3-2.8 3.1-0.6 0-11.6 0-24.2 0-12.7 0-23.3-0.4-23.8-0.8-0.4-0.4-0.6-16.9-0.5-36.6 0.3-30.5 0.5-35.9 1.8-36.7 0.8-0.5 3-1 4.7-1zm-364.5 1c2.4 0 5.3 0.7 6.5 1.5 1.3 0.8 4.3 4.5 6.7 8.2 2.4 3.8 5.3 8.6 6.5 10.8 1.2 2.2 4.6 8 7.6 13 3 4.9 5.8 9.5 6.2 10.2 0.5 0.6 1.7 1.3 2.8 1.5 1.6 0.2 3.4-2 9.2-11.7 4-6.6 9.5-16.1 12.3-21 2.8-5 6.1-9.8 7.3-10.8 1.2-1 3.5-1.8 5.2-1.7 1.6 0 3.8 0.8 4.8 1.8 1.6 1.6 1.8 4.4 1.7 36.2 0 25.7-0.3 34.8-1.2 35.7-0.7 0.7-3.4 1.3-6 1.3-4.3 0-4.9-0.3-5.9-2.8-0.6-1.5-1.1-10.2-1.2-19.4-0.1-11.5-0.6-17.1-1.4-18-1-1.1-1.5-1-2.8 0.2-0.9 0.8-1.6 1.8-1.5 2.2 0 0.5-3.5 6.5-7.8 13.5-4.2 7-8.6 13.3-9.7 14-1.1 0.7-2.9 1-4 0.7-1.1-0.4-2.8-1.4-3.8-2.3-1.1-0.9-4.4-6-7.5-11.4-3.2-5.4-6.7-11.5-8-13.7-1.2-2.2-2.9-4-3.7-4-0.8 0-1.7 1-2 2.2-0.2 1.3-0.6 10.1-0.7 19.6-0.2 14.1-0.6 17.5-1.8 18.2-0.8 0.5-3.8 1-11.5 1l-0.6-3.7c-0.3-2.1-0.4-18.7-0.3-36.8 0.1-18.2 0.3-33.3 0.3-33.8 0.1-0.4 2-0.7 4.3-0.7zm147.3 0.4c4.9 0.2 9.2 1.1 14.4 3.2 6 2.4 8.4 4.1 13.2 9.1 4.9 5.2 6.2 7.5 7.9 13 1.1 3.8 2 9.3 2 12.3 0 3-0.9 8.6-2.1 12.5-1.9 6-3 7.8-8.3 13-3.3 3.3-8.4 7.1-11.1 8.5-3.9 1.9-7.1 2.5-14 2.8-5 0.2-11.5-0.1-14.5-0.7-3.2-0.6-8-2.7-11.5-4.9-3.4-2.2-7.8-6.2-10.1-9.3-2.3-3-4.8-7.9-5.8-11.2-0.9-3.1-1.6-8.1-1.6-11 0-2.8 1-8.3 2.3-12.1 1.6-5.3 3.4-8.3 7.2-12.4 2.7-3 6.8-6.5 9-7.8 2.2-1.3 6.7-3 10-3.8 3.4-0.9 9.1-1.4 13-1.2zm-17.9 17.9c-1.6 1.2-3.9 3.8-5.1 5.7-1.2 1.9-2.7 6-3.4 9-0.9 4.3-0.9 6.6 0.1 10.5 0.6 2.7 2.4 6.8 3.8 9 1.5 2.2 4.4 5.1 6.6 6.4 2.1 1.3 6.4 2.8 9.4 3.3 3.9 0.8 7.1 0.7 11-0.1 3.6-0.7 6.9-2.2 9.4-4.4 2.1-1.7 5-5.5 6.4-8.2 2-3.8 2.6-6.5 2.6-11.5 0-5.2-0.6-7.6-3-12.3-1.8-3.6-4.2-6.7-6.4-8.1-1.9-1.3-5.6-3.1-8.3-4-2.6-0.9-6.2-1.6-8-1.6-1.7 0-5.2 1-7.7 2.1-2.5 1.1-5.8 3-7.4 4.2zm95-17.7c4.4 0.2 13.7 0.6 20.9 0.8 8.8 0.2 14.5 0.9 17.5 2 2.5 0.9 5.8 2.9 7.3 4.4 1.5 1.5 3.5 4.5 4.3 6.7 1.1 2.6 1.4 5.4 1 8-0.3 2.2-1.7 5.7-3.1 7.7-1.4 2.1-2.5 4.6-2.5 5.5-0.1 1 1.4 3 3.2 4.4 2.3 1.8 3.8 4.3 5.2 8.5 1.7 5.5 1.7 6.2 0.2 10.9-0.8 2.8-3 6.4-4.8 8.2-1.8 1.8-5.3 4-7.8 4.9-3.7 1.4-8.7 1.8-27 2-16.5 0.2-22.8 0-23.8-0.9-1-0.9-1.3-8.8-1.3-35.9 0-28.6 0.3-35 1.5-36.1 1-1 3.6-1.3 9.2-1.1zm3.4 21.1c0 3.2 0.5 6.6 1.2 7.6 1.1 1.5 3 1.9 10.3 2.1 4.9 0.2 11.1 0 13.7-0.5 3.3-0.6 5.3-1.6 6.2-3.2 0.8-1.2 1.6-3.3 1.7-4.7 0.2-1.4 0-3.5-0.4-4.7-0.4-1.3-2.2-3.1-4-4-2.2-1.1-6.6-1.8-13.8-2.1-9.8-0.4-10.8-0.3-12.8 1.7-1.6 1.6-2.1 3.3-2.1 7.8zm-0.1 31.4c0.1 5.2 0.5 7.3 1.8 8.5 1.5 1.4 3.9 1.6 15 1.3 11.5-0.4 13.5-0.7 16-2.5 1.5-1.2 3.2-3.4 3.7-5 0.5-1.6 0.6-4.1 0.2-5.7-0.3-1.6-1.9-3.5-3.9-4.7-2.8-1.7-5-2-16.4-2-10.6 0-13.5 0.3-14.8 1.6-1.2 1.1-1.6 3.3-1.6 8.5zm234.3-52.3c12.8 0.2 24.3 0.8 25.5 1.3 1.9 0.7 2.3 1.7 2.3 4.9 0 3-0.5 4.1-1.8 4.5-0.9 0.3-9.2 0.5-18.4 0.6-14.6 0.2-16.9 0.4-18.7 2-1.7 1.6-2.1 3.1-2.1 8.4 0 6.2 0.1 6.6 2.7 7.6 1.9 0.7 7.3 0.9 16 0.5 11.8-0.5 13.5-0.4 15.4 1.1 1.8 1.6 2 2.3 0.3 10.8l-15.5 0.5c-11.9 0.4-16 0.9-17.3 2-1.3 1.1-1.7 3.1-1.6 8.2 0 4.3 0.5 7.1 1.2 7.5 0.7 0.5 9.8 1 39.3 1.8l0.3 5c0.1 2.7-0.1 5.4-0.5 5.8-0.5 0.4-12.4 0.9-52.3 1.2l-0.6-3c-0.3-1.7-0.4-18-0.2-36.3 0.2-23.7 0.6-33.5 1.5-34 0.6-0.4 11.6-0.5 24.5-0.4zm139.3-0.4c6 0.3 10.8 1.1 14.5 2.6 3 1.2 6.7 3.3 8.3 4.8 1.5 1.5 2.7 3.4 2.7 4.2 0 0.8-1.6 3.1-3.5 5-3.1 3-3.8 3.3-5.3 2.2-0.9-0.7-4.2-2.4-7.2-3.9-3-1.4-7.3-2.9-9.5-3.1-2.5-0.3-5.7 0.2-8.5 1.2-2.5 1-6.5 3-9 4.6-2.6 1.6-5.6 4.7-7 7.2-2 3.5-2.4 5.6-2.4 11.8 0 6.1 0.5 8.4 2.6 12.5 1.4 2.7 3.7 6 5 7.2 1.2 1.2 4.9 3.2 8 4.3 3.2 1.1 7.4 2 9.3 2 1.9 0 5.6-0.6 8.1-1.3 2.7-0.7 5.1-2 5.7-3.2 0.6-1.1 1.2-5.6 1.3-10 0.1-4.4 0.2-9 0.3-10.3 0.1-2 0.5-2.2 5.5-2 3 0.2 5.8 0.7 6.3 1.1 0.4 0.5 0.8 7.2 0.8 28.9l-2.8 2.4c-1.5 1.3-6 3.4-10 4.6-6.1 1.8-8.8 2-17.2 1.5-5.5-0.3-12-1.3-14.5-2.2-2.5-0.9-6.5-3.4-9-5.4-2.5-2.1-5.9-5.8-7.5-8.2-1.7-2.4-3.8-6.8-4.8-9.9-0.9-3-1.7-8-1.7-11 0-3 0.8-8.4 1.9-12 1.1-3.8 3.6-8.6 5.8-11.5 2.1-2.8 5.7-6.1 7.8-7.5 2.2-1.3 6.9-3.5 10.5-4.7 5.5-2 7.9-2.3 15.5-1.9zm88.7-0.3c0.5 0 2.3 0.5 4 1.2 2.7 1.1 4 2.8 7.2 9.3 2.1 4.3 6.5 14 9.8 21.4 3.3 7.4 7.5 16.6 9.3 20.5 1.8 3.8 4.6 10.3 6.4 14.2 1.7 4 3.1 7.5 3.1 7.8 0 0.3-2.9 0.5-6.5 0.5-6 0-6.7-0.2-8.4-2.8-1.1-1.5-2.9-4.8-4-7.5-1.2-2.6-2.9-5.1-3.9-5.6-0.9-0.5-7.8-1.2-15.2-1.5-8.1-0.4-14.8-0.2-16.8 0.4-2.6 0.8-3.7 2.1-6 7.2-1.6 3.5-3.7 7-4.7 7.8-1 0.8-4.2 1.6-7.2 1.7-4.9 0.3-5.3 0.1-5.3-2 0-1.2 1.3-4.9 2.8-8.2 1.6-3.3 7.4-16.4 13-29 5.7-12.7 11.6-25.5 13.3-28.5 2.2-4 3.8-5.7 5.7-6.1 1.5-0.4 3-0.7 3.4-0.8zm-10.8 40.6c-1.2 2-1.2 2.5 0.1 3.8 1.1 1.1 3.7 1.5 9.5 1.5 4.4 0 8.9-0.5 10-1 1.1-0.6 2-1.8 2-2.8 0-0.9-1.8-5.5-3.9-10.2-2.1-4.7-4.1-9.3-4.5-10.3-0.3-0.9-1.4-1.7-2.5-1.7-1.4 0-2.8 2.2-5.6 9.2-2.1 5.1-4.4 10.3-5.1 11.5zm196.6-40.6c1.4-0.1 3.4 0.5 4.5 1.2 1.1 0.8 5.2 8.3 9.2 16.8 3.9 8.5 11 23.9 15.7 34.4 4.8 10.4 8.6 19.8 8.6 20.7 0 1.5-1 1.8-13 1.8l-3.8-8c-3.2-7-4.1-8.1-6.7-8.6-1.7-0.3-8.9-0.6-16-0.8-7.2-0.1-14 0.1-15.3 0.6-1.4 0.5-3.2 3.1-5.1 7-1.6 3.5-3.5 6.9-4.2 7.5-0.8 0.7-4.1 1.6-13.2 2.8l0.5-3.5c0.3-1.9 5.2-13.6 10.8-26 5.6-12.4 12.1-26.8 14.4-32.1 2.2-5.2 4.7-10.3 5.4-11.2 0.7-0.9 2.3-1.8 3.5-2 1.2-0.2 3.3-0.5 4.7-0.6zm-7.9 32.1c-2.3 5.4-4.1 10-4.1 10.3 0 0.3 0.7 1.2 1.5 2 1.1 1.1 3.7 1.5 9.2 1.5 5.1 0 8.5-0.5 9.8-1.4 2-1.4 1.9-1.6-2.4-12.2-2.4-6-4.9-11.2-5.5-11.6-0.6-0.4-1.4-0.8-1.7-0.8-0.4 0-1.1 0.6-1.7 1.2-0.5 0.7-2.8 5.7-5.1 11zm105.6-32.1c5.2-0.1 9 0.5 13 2.1 3.2 1.2 7.7 3.5 10 5.2 3.3 2.4 4.2 3.7 4 5.6-0.1 1.6-1.4 3.1-7.2 6.3l-7.5-3.4c-5.8-2.5-8.9-3.3-13.5-3.3-4.5 0-7.2 0.6-11 2.6-2.8 1.4-6.2 3.9-7.7 5.5-1.5 1.5-3.4 4.5-4.2 6.5-1 2.3-1.6 6.8-1.6 11 0 6.3 0.5 8.1 3 12.5 1.8 3.2 4.6 6.3 7 7.8 2.2 1.4 6 3.1 8.5 3.7 3.6 1 6 1 11.3 0.1 4.2-0.8 7.2-1.9 8-3 0.8-1.2 1.2-5.1 1.2-11.3-0.1-7.6 0.2-9.8 1.6-11 1.2-1.1 2.8-1.3 6.5-0.8 2.7 0.5 5.2 1 5.6 1.2 0.5 0.2 0.6 6.6 0.1 28.1l-3.1 2.8c-1.8 1.5-6.4 3.7-10.2 4.8-5.9 1.9-8.6 2.1-17 1.6-5.6-0.3-12.2-1.3-15-2.3-3.5-1.2-7-3.7-11.6-8.3-5.8-5.7-6.9-7.5-8.8-13.6-1.2-3.9-2.1-9.6-2.1-12.8 0-3.1 0.9-8.5 2-12 1.1-3.4 3.7-8.2 5.7-10.7 2.1-2.5 4.4-5.1 5.3-5.8 0.8-0.7 3.7-2.4 6.5-3.9 2.7-1.4 7-3.2 9.5-3.9 2.5-0.7 7.8-1.3 11.7-1.3zm-201.1 0.9c11.8 0 18.2 0.5 22.6 1.6 3.5 0.9 7.6 2.4 9.3 3.4 1.6 1 4.2 3.3 5.6 5.1 1.4 1.9 3.4 5.9 4.4 8.9 1.3 4 1.6 6.8 1 10.5-0.3 2.7-1.2 6.3-1.9 8-0.7 1.6-3.4 4.9-6 7.2-2.5 2.4-4.6 5.1-4.6 6 0 1 2.7 5.7 6 10.5 3.3 4.9 6 9.7 6 10.8 0 1.7-0.7 2-5.3 2-3 0-6.2-0.6-7.5-1.5-1.2-0.8-3.2-3-4.5-4.9-1.2-1.8-3.9-5.9-6-9-2.2-3.4-4.6-5.8-6-6-1.2-0.3-4.2-0.7-6.7-0.9-2.6-0.3-5.9 0.1-11 2.3v8.7c0 5.6-0.4 9.3-1.2 10-0.7 0.7-3.4 1.3-6 1.3-3.6 0-5-0.4-5.7-1.8-0.5-0.9-0.8-16.8-0.7-35.2 0.1-18.4 0.5-34.3 1-35.3 0.7-1.5 2.5-1.7 17.2-1.7zm-4.7 26.4c0.1 10.2 0.3 11.8 2 12.8 1.2 0.9 5.2 1.3 11.2 1.2 6.4-0.1 10.4-0.7 12.6-1.8 1.8-0.9 4.2-2.8 5.3-4.4 1.2-1.5 2.3-4.3 2.7-6.2 0.4-2.6 0-4.6-1.8-7.8-1.9-3.3-3.5-4.7-7.4-6.4-3.2-1.3-8.1-2.3-13.6-2.6-7.9-0.4-8.7-0.3-9.8 1.6-0.9 1.4-1.2 6-1.2 13.6zm265.1-26.4h25.2c18.8 0 25.8 0.3 27.1 1.2 1.4 1 1.7 2.3 1.2 9.3l-17.3 0.5c-17.1 0.5-17.4 0.5-19.3 3-1.4 1.7-2 4-1.9 7.2 0 3.6 0.6 5.3 2.2 7 2.2 2.1 2.8 2.1 16.8 1.5 11-0.5 14.8-0.4 15.8 0.6 0.7 0.6 1.3 3.3 1.2 5.9 0 2.8-0.5 5.1-1.3 5.5-0.6 0.4-8.1 0.7-16.5 0.7-14.2 0.1-15.5 0.3-16.8 2.1-0.8 1.1-1.4 4.2-1.4 7 0 2.7 0.6 5.9 1.4 7 1.3 1.8 2.9 2 40.1 3l0.3 5c0.1 2.7-0.1 5.3-0.5 5.7-0.5 0.4-12.7 0.8-27.3 0.9-14.6 0-27.1 0-27.8 0-0.9-0.1-1.2-8.1-1.2-36.6zm-798 119c0.5 0 1.8 1.2 2.7 2.7 1.4 2.3 1.6 4.6 1.2 13.8-0.3 6.6-1.1 12.2-2 13.9-0.8 1.6-2.5 3.8-3.9 4.8-1.4 1.1-4.5 2.2-7 2.4-2.8 0.4-5.8 0-8-0.9-1.9-0.9-4.6-2.7-6-4.2-2.4-2.5-2.5-3.3-2.8-16.6-0.2-11.7 0-14 1.3-14.7 0.9-0.4 2.1-0.1 2.8 0.6 0.7 0.8 1.4 6.4 1.8 14.5 0.4 7.3 0.7 13.3 0.8 13.4 0 0.2 1.6 0.9 3.3 1.7 2.4 1 4.2 1.1 6.8 0.4 1.9-0.5 4.2-1.6 5-2.4 1.1-1.1 1.6-4.5 1.8-14.2 0.2-7 0.5-13.3 0.7-14 0.3-0.6 0.9-1.2 1.5-1.2zm719.3 0c0.7 0 1.8 1.1 2.4 2.5 0.8 1.5 1.3 6.7 1.3 13.2 0 8.3-0.4 11.6-1.8 14.2-0.9 1.9-3 4.4-4.5 5.5-2.1 1.6-4.4 2.1-8.7 2.1-5.1 0-6.3-0.4-9.1-3-1.7-1.7-3.8-4.5-4.5-6.3-0.9-2-1.4-7-1.4-13.7 0-5.8 0.2-11.2 0.5-12 0.3-0.8 1.1-1.5 1.7-1.5 0.7-0.1 1.8 1.2 2.5 2.7 0.6 1.5 1.2 7.3 1.2 12.8 0.1 7 0.6 10.7 1.6 12.2 0.8 1.3 2.5 2.7 3.7 3.2 1.3 0.4 3.6 0.4 5.3 0 1.6-0.5 4-2 5.2-3.4 2.1-2.3 2.3-3.5 2.3-14 0-6.3 0.3-12.2 0.6-13 0.3-0.8 1.1-1.5 1.7-1.5zm-825.3 1c0.5 0 2.4 1.2 4.1 2.7 1.7 1.6 4.5 5.4 6.3 8.6 1.7 3.1 3.8 5.7 4.6 5.7 0.8-0.1 3.7-3.5 6.5-7.8 2.7-4.2 5.8-7.8 6.7-8 1-0.1 1.8 0.2 1.8 0.8 0 0.5-1.2 3.4-2.6 6.2-1.4 2.9-4.1 7.5-6 10.3-2 3.1-3.4 6.2-3.4 8.2 0 1.8-0.5 3.5-1 3.8-0.6 0.3-1 1.8-1 3.5q0 3-1.5 3c-0.8 0-1.7-0.8-1.9-1.8-0.2-0.9-0.4-4-0.5-6.7 0-4.2-0.8-6.3-5.4-13.5-2.9-4.7-5.8-9.7-6.5-11.3-0.6-1.5-1.2-2.9-1.2-3.2 0-0.3 0.4-0.5 1-0.5zm259.5 0.5c1.1 0.2 4.7 0.7 8 1.1 3.3 0.5 7.3 1.7 9 2.9 1.9 1.3 3.5 3.7 4.4 6.5 1.2 4 1.2 4.9-0.3 7.5-0.8 1.6-2.2 3.9-3 5-1.3 1.8-1.3 2.4 0 5.5 0.9 1.9 2 4.3 2.5 5.2 0.5 1 0.7 2.1 0.4 2.5-0.3 0.5-1.7 0.1-3.1-0.7-1.4-0.8-3.6-3-4.7-4.9-1.2-1.9-3.1-4.1-4.2-4.8-1.7-1.1-2.6-1.1-5.4-0.1-2.7 1-3.6 2.1-4.5 5.2-0.6 2.2-1.7 4.1-2.4 4.3-0.8 0.2-1.5-1.4-1.9-4.5-0.4-2.6-0.8-8.1-0.8-12.2 0-4.1 0.2-9.8 0.4-12.5 0.3-3.2 1.1-5.3 2-5.7 0.9-0.4 2.5-0.5 3.6-0.3zm-0.9 13.7c0.4 2.9 0.9 5.6 1.3 6 0.3 0.5 2.2 1.1 4.1 1.5 2.2 0.4 4.7 0.1 6.8-0.8 1.8-0.8 3.7-2.5 4.3-3.9 0.6-1.4 0.8-3.7 0.5-5.3-0.4-1.9-1.7-3.2-4.1-4.2-1.9-0.8-4.3-1.5-5.3-1.5-0.9 0.1-3.2 0.7-5 1.5-3.2 1.5-3.2 1.6-2.6 6.7zm277-14.2c0.8 0 1.6 0.7 1.9 1.5 0.3 0.8 0.5 8.9 0.5 18 0 13.8-0.2 16.6-1.5 17.2-0.9 0.5-2.1 0.2-2.8-0.5-0.7-0.7-1.4-4.9-1.7-9.3-0.3-4.4-1-8-1.5-8-0.6-0.1-2.8 2.6-5 6-2.9 4.3-4.6 6-6.3 6-1.7 0.1-3.1-1.4-6.2-6.9-2.2-3.9-4.6-6.9-5.3-6.7-0.8 0.2-1.3 2.8-1.5 7.3-0.1 3.8-0.4 7.9-0.7 9.1-0.3 1.3-1.2 2.3-2 2.3-0.8 0-1.8-0.8-2.1-1.8-0.3-0.9-0.5-8.5-0.4-16.7 0-8.3 0.5-15.5 1-16 0.6-0.7 1.7-0.3 3 1 1.2 1.1 4.4 5.9 7.3 10.7 3.4 5.7 5.8 8.8 6.9 8.8 1.1 0 3.5-2.6 6.2-6.8 2.5-3.7 5-8.1 5.6-9.7 0.6-1.7 1.6-3.6 2.2-4.3 0.6-0.6 1.6-1.2 2.4-1.2zm109.9 0.8c5.5 0.2 10.6 0.5 11.2 0.8 0.7 0.2 1.3 1.1 1.3 1.9 0 1-1.9 2-5.5 3-4.2 1.1-5.7 2.1-6.5 4-0.6 1.4-1 5.5-1.1 9.2-0.1 3.8-0.4 9.5-1.4 18.8l-1.8-3.3c-1.3-2.4-1.7-5.6-1.7-13 0-5.7-0.5-10.7-1.3-12.2-0.7-1.5-2.6-2.8-4.9-3.5-2-0.5-4.3-1.6-5-2.3q-1.3-1.2-0.3-2.1c0.5-0.5 2.3-1.1 4-1.3 1.6-0.2 7.5-0.2 13 0zm73.5-0.8c0.5 0 2.6 1.5 4.6 3.2 2 1.8 4.9 5.7 6.5 8.5 1.6 2.9 3.6 5.3 4.4 5.3 0.8 0 2.7-2.1 4.2-4.8 1.5-2.6 4.1-6.4 5.8-8.5 1.6-2.1 3.8-3.7 4.7-3.7 1 0 1.8 0.3 1.8 0.7 0.1 0.5-0.6 1.5-1.5 2.3-0.9 0.8-1.6 2.1-1.5 2.7 0 0.7-2.7 5.8-6 11.3-4.4 7.4-6.2 11.4-7.4 20.5l-2-8c-1.2-4.5-3.3-9.6-4.7-11.5-1.4-1.9-4.3-6.5-6.3-10.3-2-3.7-3.6-6.9-3.6-7.2 0-0.3 0.4-0.5 1-0.5zm-667 1c1.4 0 4.1 0.5 6 1.1 1.9 0.7 5 2.2 6.7 3.5 1.8 1.3 3.7 3.5 4.3 4.9 0.5 1.4 1.2 4.6 1.3 7.2 0.2 2.7-0.1 6.1-0.6 7.8-0.5 1.6-2.1 4.2-3.6 5.8-1.4 1.5-4.6 3.6-7.1 4.7-4.2 1.8-4.9 1.8-10 0.5-3-0.8-6.6-2.3-8-3.3-1.4-1.1-3.5-3.6-4.7-5.8-1.4-2.3-2.3-5.6-2.3-8.2 0-2.5 1-6.2 2.5-9.2 2.2-4.4 3.2-5.2 7.7-6.9 2.9-1.1 6.4-2 7.8-2.1zm-10.8 11.7c-0.9 1.5-1.7 4.3-1.7 6.3 0 2 0.8 4.8 1.7 6.3 1 1.5 3.3 3.6 5 4.7 1.8 1.1 4.3 2 5.5 2 1.3 0 4.2-0.8 6.4-1.8 2.5-1 4.7-2.8 5.5-4.5 0.8-1.5 1.4-4.4 1.4-6.5 0-2-0.9-5.2-2-7-1.1-1.7-3.6-3.9-5.5-4.7-1.9-0.8-4.5-1.5-5.8-1.5-1.2 0-3.7 0.9-5.5 2-1.7 1.1-4 3.2-5 4.7zm88.3-11.4c3.8 0.2 8.3 0.7 10 1 1.6 0.3 4.1 1.4 5.5 2.5 1.4 1 2.9 3.6 3.5 5.8 0.7 3.1 0.5 5-1.2 9.4-1.8 5-1.9 6-0.7 10.5 0.7 2.7 1.3 5.3 1.4 5.7 0 0.5-1.4 0.1-3-0.7-1.7-0.8-3.9-3.1-5-5-1.2-2.2-3-3.7-4.8-4.1-1.5-0.4-3.8-0.3-5.2 0.2-1.8 0.7-2.9 2.2-4 5.7-0.8 2.6-2.1 4.7-2.8 4.7-0.6 0-1.4-0.7-1.7-1.5-0.3-0.8-0.6-8.6-0.7-17.3-0.1-8.7 0.3-16.2 0.8-16.6 0.5-0.4 4-0.5 7.9-0.3zm-1.3 7.6c-0.7 0.9-1.2 3.5-1.2 5.8 0 3.6 0.4 4.6 2.7 6 2 1.1 3.8 1.4 6.3 1 1.9-0.4 4.5-1.7 5.8-3 1.2-1.2 2.2-3.3 2.2-4.7 0-1.4-0.6-3.2-1.3-4.2-0.7-0.9-2.4-2.1-4-2.7-1.5-0.6-3.5-1.1-4.5-1-0.9 0-2.4 0.3-3.2 0.6-0.8 0.3-2.1 1.3-2.8 2.2zm62.3-7.9c1.1 0 3.6 0.5 5.5 1.1 1.9 0.7 4.3 1.9 5.3 2.8 1 0.9 1.8 2.2 1.7 2.8 0 0.7-0.9 1.3-2 1.3-1.1 0-3.5-0.7-5.3-1.6-2-1-4.3-1.4-6.2-1-1.7 0.4-4.5 1.5-6.3 2.4-2.2 1.1-3.7 2.8-4.4 5.2-0.6 1.9-0.8 5.3-0.4 7.5 0.3 2.2 1.4 4.8 2.3 5.9 1 1 3.3 2.5 5 3.2 2.5 1.1 4.3 1.1 7.3 0.4 2.9-0.7 4.1-1.6 4.5-3.3 0.2-1.2 0.6-3.6 0.7-5.2 0.3-2.5 0.7-3 2.8-3 2.3 0 2.5 0.4 2.8 5.5 0.1 3.6-0.3 6.3-1.3 7.7-0.8 1.3-3.2 2.7-5.3 3.3-2 0.5-5.1 1-6.7 1-1.7 0-5.3-1.1-8-2.3-3.1-1.5-5.8-3.6-7.2-5.8-1.2-1.9-2.5-4.8-2.9-6.4-0.3-1.7-0.1-5.3 0.5-8 0.7-2.8 2-6 2.9-7.2 0.9-1.3 4.2-3.2 7.2-4.3 3-1 6.4-2 7.5-2zm37.1 0c0.8 0 2.2 0.9 3.1 2.1 1 1.1 4.4 7.5 7.5 14.2 3.1 6.7 5.9 13.9 6.2 15.9 0.4 2.1 0.3 3.8-0.2 3.8-0.4 0-1.7-0.9-3-2-1.2-1.1-2.2-2.5-2.2-3 0-0.6-1.6-1.7-3.5-2.5-1.9-0.8-5.2-1.5-7.3-1.5-2 0-5.2 0.4-7 1-1.7 0.5-3.2 1.3-3.2 1.7 0.1 0.5-1.1 2-2.5 3.5-1.4 1.6-3 2.6-3.5 2.3-0.6-0.3-0.7-1.7-0.1-3.8 0.5-1.7 3.2-8.3 6-14.5 2.8-6.1 5.1-11.8 5-12.6 0-0.8 0.7-2.2 1.6-3 0.9-0.9 2.3-1.6 3.1-1.6zm-3.1 20c0.5 0.6 2.2 1 3.7 1 1.6 0 3.2-0.7 3.7-1.8 0.6-1.1 0.4-3-0.5-5.5-0.9-2.4-2-3.7-3.2-3.7-1.3 0-2.3 1.4-3.3 4.5q-1.4 4.5-0.4 5.5zm79.3-20c0.9-0.1 2.4 0.7 3.3 1.7 0.9 1 3.9 7 6.7 13.3 2.8 6.3 5.8 13.7 6.7 16.5 0.9 2.7 1.4 5.1 1.1 5.2-0.4 0.2-2.3-1.5-4.4-3.7-2.4-2.7-5.1-4.4-7.7-5-2.2-0.5-5.9-1-8.3-1-2.3 0-4.6 0.6-5.2 1.2-0.5 0.7-2.1 2.8-3.5 4.5-1.4 1.8-3.2 3.3-4 3.3-0.8 0-1.5-0.5-1.5-1 0-0.6 2.7-7.4 6.1-15.3 3.4-7.8 6.7-15.4 7.5-17 0.8-1.5 2.2-2.7 3.2-2.7zm-3.6 16.2c-1 2.3-0.9 3.1 0.3 4.3 0.8 0.8 2.4 1.5 3.5 1.5 1.1 0 2.7-0.2 3.5-0.5 0.8-0.3 1.5-1.4 1.5-2.5 0-1.1-0.7-3.4-1.5-5-0.8-1.7-2.1-3-2.9-3-0.8 0-1.8 0.6-2.3 1.2-0.5 0.7-1.4 2.5-2.1 4zm46.3-15.6c1.6 0.3 4.1 0.7 5.5 1 1.4 0.3 3.3 0.7 4.2 0.9 1.1 0.3 1.8 1.5 1.8 3 0 2.3-0.3 2.5-3.8 1.9-2-0.3-4.2-0.8-4.7-1.2-0.6-0.3-2.8-0.5-5-0.3-2.2 0.1-5.4 1-7 2-1.7 1-3.3 2.6-3.8 3.5-0.4 0.9-0.7 4-0.7 6.8-0.1 3.8 0.5 6.1 2 8 1.1 1.6 3.6 3.2 5.7 3.7 2.6 0.7 4.9 0.6 7.3-0.2 2.3-0.8 3.7-2.1 4.2-3.7 0.4-1.4 1-3.7 1.3-5.3 0.3-1.8 1-2.6 2.2-2.4 1.4 0.2 1.9 1.4 2.1 5.2 0.2 2.8 0.1 6-0.2 7.2-0.4 1.7-1.9 2.7-5.4 3.8-2.6 0.8-5.8 1.5-7.2 1.5-1.4 0-4.1-0.5-6-1.1-1.9-0.7-5-2.2-6.8-3.5-2.3-1.7-3.7-3.9-4.8-7.7-1.3-4.2-1.4-6.1-0.5-9.7 0.6-2.5 2.4-6 3.9-7.8 1.9-2.3 4.2-3.8 7.7-4.8 2.7-0.7 6.3-1.1 8-0.8zm23.7-0.7l12.7 0.3c11.8 0.3 12.6 0.4 12.6 2.3 0 1.8-0.8 2.1-8.1 2.5-6.3 0.4-8.7 1-10.3 2.5-1.2 1.1-2.2 2.4-2.2 3 0 0.5 0.8 1.7 1.7 2.5 1 0.9 4.5 1.7 8.3 2 5.9 0.4 6.6 0.7 6.8 2.7 0.3 2.2-0.1 2.3-6 2.3-3.9 0-7 0.5-8.5 1.5q-2.2 1.5-2.2 4.5c0 1.8 0.6 3.2 1.5 3.5 0.8 0.3 4.8 0.5 8.7 0.5 5.4-0.1 7.7 0.3 8.8 1.5 1 1 1.1 1.9 0.5 2.4-0.6 0.5-6.2 1.1-12.5 1.4-8.5 0.5-11.6 0.3-11.8-0.6-0.1-0.7-0.5-5-0.8-9.7-0.4-4.7-0.3-12.2 0.1-16.8zm64.8 0.1c1.4 0 4.1 0.5 6 1.1 1.9 0.5 4.6 1.9 8.5 4.8l-2.5 0.9c-1.7 0.6-4 0.4-7-0.5-3.9-1.2-5.1-1.2-8.5 0.1-2.2 0.8-4.8 2.3-5.8 3.3-1 1-2 3.9-2.3 6.8-0.5 4.2-0.2 5.5 2 8.7 2 2.9 3.5 3.9 6.3 4.4 2.1 0.4 5.7 0.2 8-0.5 2.4-0.6 5.4-1.1 6.8-1.1 1.5 0 2.5 0.5 2.5 1.5 0 0.8-1 2.1-2.3 2.9-1.2 0.7-4.2 1.9-6.7 2.6-3.7 1.1-5.4 1.1-9 0.1-2.5-0.7-5.8-2.1-7.3-3.2-1.5-1.1-3.7-4.1-4.8-6.7-1.5-3.4-1.9-6-1.6-9.2 0.3-2.5 1.4-6.1 2.4-8 1.4-2.6 3.3-4.1 7.4-5.7 2.9-1.3 6.5-2.3 7.9-2.3zm37.5 0.1c1.1-0.1 3.8 0.4 6 1 2.3 0.7 5.7 2.8 8.1 5.2 2.9 2.9 4.4 5.4 4.9 8.2 0.4 2.2 0.4 5.6 0 7.5-0.5 2.1-2.4 5.2-4.9 7.7-2.8 2.9-5.6 4.6-8.9 5.5-3.8 1-5.6 1-9.5 0-2.7-0.8-6.1-2.7-8-4.5-1.8-1.8-3.9-5.2-4.7-7.7-1.1-3.4-1.2-5.6-0.5-8.5 0.5-2.2 2.1-5.7 3.6-7.7 1.9-2.7 4-4.2 7.3-5.2 2.5-0.8 5.5-1.5 6.6-1.5zm-10.8 13.1c-1.4 3-1.5 4.6-0.8 7.5 0.6 2.1 1.6 4.6 2.3 5.5 0.7 0.9 2.9 2.4 4.8 3.2 3.1 1.2 4 1.2 8.4-0.3 2.9-1 5.8-2.8 7-4.4 1.4-2 2-4.2 1.9-7-0.1-2.3-0.8-5.3-1.5-6.6-0.7-1.3-2.7-3-4.3-3.9-1.7-0.8-4.4-1.6-6.1-1.8-2.1-0.3-4.3 0.4-6.5 1.8-1.9 1.3-4.2 4-5.2 6zm88.5-13.3l12.1 0.3c11.4 0.3 12.2 0.4 12.2 2.3 0 1.8-0.9 2-7.5 2.5-4.1 0.3-8.5 1.1-9.8 1.8-1.4 0.7-2.2 2.1-2.2 3.7 0 1.5 0.8 2.9 2 3.5 1.1 0.5 5.1 1 9 1 6.8 0 7 0.1 7 2.5 0 2-0.5 2.5-2.8 2.6-1.5 0.1-4.5 0.3-6.7 0.4-2.2 0.2-5 0.8-6.3 1.4-1.4 0.7-2.2 2-2.2 3.6 0 1.4 0.8 2.9 1.7 3.3 1 0.5 5.6 1.1 10.3 1.4 4.7 0.2 9.2 0.8 10 1.3 1.3 0.7 1.2 1-0.5 2.1-1.4 1-5.4 1.4-13.3 1.4-7.9 0-11.4-0.4-11.9-1.3-0.4-0.7-0.8-8.5-1-17.5zm45.9 0.2c1.9 0 5 0.6 7 1.3 2 0.7 3.6 2 3.9 3.1 0.3 1.8-0.1 1.9-5.5 1.2-3.6-0.5-7.2-0.4-9.2 0.2-2.8 0.9-3.2 1.4-3 4.2 0.3 3 0.7 3.3 7.8 5.5 4.3 1.4 8.2 3.3 9.3 4.6 0.9 1.3 1.8 3.8 1.8 5.8 0 1.9-0.9 4.5-1.8 5.7-1 1.2-3.9 2.7-6.3 3.4-3.6 1-5.7 1-10-0.1-3.1-0.7-6.3-1.7-7.3-2.4-1.2-0.8-1.5-1.7-1-3 0.6-1.3 1.3-1.6 2.8-1.1 1.1 0.3 4.7 0.9 8 1.2 3.5 0.3 6.9 0.1 8.2-0.6 1.3-0.6 2.3-2 2.3-3.1 0-1.1-1-2.6-2.3-3.2-1.2-0.6-4.4-1.7-7-2.5-2.6-0.7-6.1-2.5-7.7-3.8-2.3-1.9-3-3.4-3-6 0-2 0.3-4.3 0.7-5.2 0.4-1 2.6-2.5 4.8-3.5 2.2-1 5.5-1.8 7.5-1.7zm84-0.1c1.9 0 5.3 0.8 7.5 1.9 2.2 1 5.2 3.1 6.7 4.7 1.7 1.8 3.1 4.7 3.7 7.9 0.7 3.9 0.5 6-0.8 9.9-1.2 3.7-2.7 5.7-5.6 7.8-2.2 1.6-5.8 3.1-8 3.4-2.3 0.4-6.1 0.1-8.9-0.7-3.7-1.1-5.9-2.6-8.8-5.9-2.3-2.6-4.1-6-4.5-8-0.3-2-0.3-4.9 0.1-6.5 0.4-1.7 1.7-4.6 2.9-6.5 1.3-2.1 4.1-4.3 7.2-5.7 2.7-1.3 6.5-2.3 8.5-2.3zm-11.3 11.8c-0.9 1.7-1.7 4.6-1.7 6.4 0 1.8 1.1 4.9 2.5 7 1.7 2.7 3.6 4 6.2 4.7 2.3 0.6 5.3 0.6 7.8 0.1 2.2-0.5 4.9-2 6-3.2 1.2-1.3 2.5-4.1 2.9-6.3 0.5-2.9 0.3-5.1-0.8-7.8-1.2-2.7-2.8-4.3-5.9-5.7-2.3-1.1-4.9-2-5.7-2-0.9 0-3.3 0.8-5.5 1.8-2.3 1.1-4.8 3.2-5.8 5zm104.3-11.2c2.4 0.3 5.8 1.1 7.5 1.8 1.6 0.7 4 2.5 5.3 4.1 1.2 1.6 2.7 4.8 3.3 7 0.6 2.2 0.8 5.9 0.5 8.2-0.4 2.9-1.7 5.4-3.9 7.8-1.8 2-5.3 4.3-7.7 5.2-3.1 1.1-5.9 1.4-9 0.9-2.5-0.4-6.3-1.9-8.4-3.4-2.3-1.7-4.6-4.5-5.7-7.2-1.1-2.5-2-5.9-1.9-7.5 0-1.7 1-5.3 2.3-8 2-4.4 3-5.3 7.7-7.3 4.1-1.6 6.6-2 10-1.6zm-12.3 11.3c-0.9 2.2-1.7 5.3-1.8 6.8 0 1.5 1.1 4.3 2.3 6.3 1.5 2.2 3.8 4 6.3 4.8 3.1 1.1 4.9 1.2 8.2 0.3 3.3-0.9 4.8-2 6.5-4.9 1.2-2.1 2.2-5.3 2.2-7.2 0-2-0.8-4.8-1.7-6.3-1-1.5-2.7-3.4-4-4.2-1.2-0.9-3.8-1.8-5.7-2-2-0.3-5.1 0.1-7 0.9-2.5 1.1-4 2.6-5.3 5.5z"/></svg>