<svg width="9" height="9" viewBox="0 0 9 9" fill="none" xmlns="http://www.w3.org/2000/svg">
<g clip-path="url(#clip0_2755_3124)">
<path d="M3.375 0.156235C3.42977 0.223024 3.46332 0.304662 3.47133 0.390663C3.47935 0.476663 3.46148 0.563097 3.42 0.63886C3.09461 1.23587 2.92477 1.90519 2.92613 2.58511C2.92613 4.84692 4.77 6.67842 7.0425 6.67842C7.3395 6.67805 7.62694 6.64805 7.90481 6.58842C7.98982 6.57024 8.07829 6.57738 8.15928 6.60898C8.24026 6.64057 8.3102 6.69523 8.36044 6.76617C8.41358 6.84 8.44071 6.92939 8.43755 7.02031C8.43439 7.11122 8.40114 7.19852 8.343 7.26848C7.9018 7.81039 7.34523 8.24701 6.71388 8.54653C6.08253 8.84606 5.3923 9.00093 4.6935 8.99986C2.10037 8.99986 0 6.91073 0 4.33673C0 2.39948 1.18913 0.737859 2.88225 0.0336095C2.96656 -0.0022217 3.06024 -0.00963617 3.14914 0.0124866C3.23804 0.0346094 3.31732 0.0850671 3.375 0.156235Z" fill="#C50709"/>
<path d="M6.07207 1.77088C6.08013 1.74652 6.09567 1.72533 6.11647 1.7103C6.13727 1.69528 6.16228 1.68719 6.18794 1.68719C6.2136 1.68719 6.23861 1.69528 6.25941 1.7103C6.28021 1.72533 6.29575 1.74652 6.30382 1.77088L6.52151 2.42451C6.61882 2.71588 6.84719 2.94426 7.13857 3.04157L7.79219 3.25926C7.81655 3.26733 7.83775 3.28286 7.85277 3.30366C7.8678 3.32447 7.87589 3.34947 7.87589 3.37513C7.87589 3.40079 7.8678 3.4258 7.85277 3.4466C7.83775 3.46741 7.81655 3.48294 7.79219 3.49101L7.13857 3.7087C6.99478 3.75642 6.86412 3.83705 6.75699 3.94418C6.64986 4.05131 6.56923 4.18197 6.52151 4.32576L6.30382 4.97938C6.29575 5.00374 6.28021 5.02494 6.25941 5.03997C6.23861 5.05499 6.2136 5.06308 6.18794 5.06308C6.16228 5.06308 6.13727 5.05499 6.11647 5.03997C6.09567 5.02494 6.08013 5.00374 6.07207 4.97938L5.85438 4.32576C5.80666 4.18197 5.72602 4.05131 5.6189 3.94418C5.51177 3.83705 5.38111 3.75642 5.23732 3.7087L4.58369 3.49101C4.55933 3.48294 4.53814 3.46741 4.52311 3.4466C4.50809 3.4258 4.5 3.40079 4.5 3.37513C4.5 3.34947 4.50809 3.32447 4.52311 3.30366C4.53814 3.28286 4.55933 3.26733 4.58369 3.25926L5.23732 3.04157C5.38111 2.99385 5.51177 2.91321 5.6189 2.80609C5.72602 2.69896 5.80666 2.5683 5.85438 2.42451L6.07207 1.77088ZM7.79838 0.0558218C7.80393 0.0398053 7.81434 0.025917 7.82815 0.0160877C7.84196 0.00625839 7.85849 0.000976562 7.87544 0.000976562C7.89239 0.000976563 7.90893 0.00625839 7.92274 0.0160877C7.93655 0.025917 7.94695 0.0398053 7.95251 0.0558218L8.09763 0.491197C8.16232 0.685822 8.31476 0.838259 8.50938 0.902947L8.94476 1.04807C8.96077 1.05362 8.97466 1.06403 8.98449 1.07784C8.99432 1.09165 8.9996 1.10818 8.9996 1.12513C8.9996 1.14209 8.99432 1.15862 8.98449 1.17243C8.97466 1.18624 8.96077 1.19664 8.94476 1.2022L8.50938 1.34732C8.41355 1.37938 8.32648 1.43327 8.25503 1.50472C8.18357 1.57617 8.12969 1.66324 8.09763 1.75907L7.95251 2.19445C7.94695 2.21046 7.93655 2.22435 7.92274 2.23418C7.90893 2.24401 7.89239 2.24929 7.87544 2.24929C7.85849 2.24929 7.84196 2.24401 7.82815 2.23418C7.81434 2.22435 7.80393 2.21046 7.79838 2.19445L7.65325 1.75907C7.62119 1.66324 7.56731 1.57617 7.49586 1.50472C7.42441 1.43327 7.33733 1.37938 7.24151 1.34732L6.80613 1.2022C6.79011 1.19664 6.77623 1.18624 6.7664 1.17243C6.75657 1.15862 6.75129 1.14209 6.75129 1.12513C6.75129 1.10818 6.75657 1.09165 6.7664 1.07784C6.77623 1.06403 6.79011 1.05362 6.80613 1.04807L7.24151 0.902947C7.43613 0.838259 7.58857 0.685822 7.65325 0.491197L7.79838 0.0558218Z" fill="#C50709"/>
</g>
<defs>
<clipPath id="clip0_2755_3124">
<rect width="9" height="9" fill="white"/>
</clipPath>
</defs>
</svg>
