<svg width="15" height="15" viewBox="0 0 15 15" fill="none" xmlns="http://www.w3.org/2000/svg">
<path d="M13.7499 10.5751V12.4501C13.7506 12.6241 13.7149 12.7964 13.6452 12.9559C13.5755 13.1154 13.4732 13.2586 13.3449 13.3762C13.2167 13.4939 13.0653 13.5835 12.9004 13.6393C12.7355 13.695 12.5608 13.7157 12.3874 13.7001C10.4642 13.4911 8.61677 12.8339 6.99365 11.7813C5.48354 10.8217 4.20323 9.54142 3.24365 8.03131C2.18738 6.40081 1.53005 4.54443 1.3249 2.61256C1.30928 2.43973 1.32982 2.26554 1.38521 2.10108C1.4406 1.93662 1.52963 1.78549 1.64663 1.65732C1.76362 1.52916 1.90603 1.42675 2.06477 1.35664C2.22351 1.28652 2.39511 1.25022 2.56865 1.25006H4.44365C4.74696 1.24708 5.04102 1.35448 5.271 1.55227C5.50098 1.75005 5.6512 2.02471 5.69365 2.32506C5.77279 2.9251 5.91955 3.51426 6.13115 4.08131C6.21524 4.30501 6.23344 4.54813 6.18359 4.78186C6.13374 5.01559 6.01794 5.23013 5.8499 5.40006L5.05615 6.19381C5.94587 7.75853 7.24143 9.05409 8.80615 9.94381L9.5999 9.15006C9.76983 8.98202 9.98437 8.86622 10.2181 8.81637C10.4518 8.76652 10.6949 8.78472 10.9186 8.86881C11.4857 9.0804 12.0749 9.22717 12.6749 9.30631C12.9785 9.34914 13.2558 9.50206 13.454 9.73599C13.6522 9.96993 13.7575 10.2685 13.7499 10.5751Z" stroke="#C50709" stroke-width="1.5" stroke-linecap="round" stroke-linejoin="round"/>
</svg>
