<svg width="16" height="17" viewBox="0 0 16 17" fill="none" xmlns="http://www.w3.org/2000/svg">
<path d="M12.2399 4.70312C13.0788 5.59477 13.6501 6.73069 13.8814 7.96726C14.1128 9.20383 13.9939 10.4855 13.5397 11.6503C13.0855 12.815 12.3165 13.8106 11.3298 14.511C10.3431 15.2114 9.18319 15.5852 7.99658 15.5852C6.80998 15.5852 5.65002 15.2114 4.66337 14.511C3.67671 13.8106 2.90768 12.815 2.45349 11.6503C1.99931 10.4855 1.88038 9.20383 2.11173 7.96726C2.34308 6.73069 2.91433 5.59477 3.75325 4.70312" fill="white"/>
<path d="M12.2399 4.70312C13.0788 5.59477 13.6501 6.73069 13.8814 7.96726C14.1128 9.20383 13.9939 10.4855 13.5397 11.6503C13.0855 12.815 12.3165 13.8106 11.3298 14.511C10.3431 15.2114 9.18319 15.5852 7.99658 15.5852C6.80998 15.5852 5.65002 15.2114 4.66337 14.511C3.67671 13.8106 2.90768 12.815 2.45349 11.6503C1.99931 10.4855 1.88038 9.20383 2.11173 7.96726C2.34308 6.73069 2.91433 5.59477 3.75325 4.70312" stroke="#C50709" stroke-width="1.5" stroke-linecap="round" stroke-linejoin="round"/>
<path d="M8 1.41797V8.5013" stroke="#C50709" stroke-width="1.5" stroke-linecap="round" stroke-linejoin="round"/>
</svg>
