<svg width="36" height="36" viewBox="0 0 36 36" fill="none" xmlns="http://www.w3.org/2000/svg">
<circle cx="18" cy="18" r="18" fill="#C50709"/>
<path d="M8.89902 15.4834C8.24734 15.6985 8.15599 16.5808 8.7477 16.9389L13.0741 19.5519C13.1828 19.6177 13.308 19.6502 13.4343 19.6455C13.5606 19.6409 13.6823 19.5992 13.7843 19.5256L18.9809 15.7747C19.1309 15.6658 19.3176 15.8588 19.2041 16.0055L15.2807 21.0723C15.2038 21.1718 15.1581 21.292 15.1492 21.4181C15.1402 21.5441 15.1686 21.6704 15.2306 21.7812L17.6982 26.1953C18.0357 26.7982 18.9206 26.7366 19.158 26.0929L24.4552 11.7237C24.6892 11.0896 24.0797 10.4592 23.4376 10.6714L8.89902 15.4834Z" fill="#FFEAEA"/>
</svg>
