<svg width="17" height="17" viewBox="0 0 17 17" fill="none" xmlns="http://www.w3.org/2000/svg">
<path d="M0.899017 5.48339C0.247339 5.69851 0.155988 6.5808 0.7477 6.93885L5.07413 9.55193C5.1828 9.61766 5.30805 9.65022 5.4343 9.64555C5.56056 9.64087 5.68228 9.59918 5.78432 9.52565L10.9809 5.77471C11.1309 5.66578 11.3176 5.85882 11.2041 6.00552L7.28074 11.0723C7.20382 11.1718 7.15807 11.292 7.14915 11.4181C7.14024 11.5441 7.16857 11.6704 7.23062 11.7812L9.69823 16.1953C10.0357 16.7982 10.9206 16.7366 11.158 16.0929L16.4552 1.72374C16.6892 1.08963 16.0797 0.459232 15.4376 0.671365L0.899017 5.48339Z" fill="#FFEAEA"/>
</svg>
