<svg width="18" height="18" viewBox="0 0 18 18" fill="none" xmlns="http://www.w3.org/2000/svg">
<g clip-path="url(#clip0_850_2092)">
<path d="M9.21729 11C10.3909 11 11.3423 10.0486 11.3423 8.875C11.3423 7.70139 10.3909 6.75 9.21729 6.75C8.04368 6.75 7.09229 7.70139 7.09229 8.875C7.09229 10.0486 8.04368 11 9.21729 11Z" stroke="#C50709" stroke-linecap="round" stroke-linejoin="round"/>
<path d="M14.4591 10.9997C14.3648 11.2133 14.3367 11.4503 14.3784 11.6801C14.42 11.9099 14.5296 12.1219 14.6929 12.2888L14.7354 12.3313C14.8671 12.4629 14.9716 12.6192 15.0429 12.7911C15.1142 12.9631 15.1509 13.1475 15.1509 13.3336C15.1509 13.5198 15.1142 13.7042 15.0429 13.8761C14.9716 14.0481 14.8671 14.2044 14.7354 14.3359C14.6038 14.4676 14.4476 14.5721 14.2756 14.6434C14.1036 14.7147 13.9192 14.7514 13.7331 14.7514C13.5469 14.7514 13.3626 14.7147 13.1906 14.6434C13.0186 14.5721 12.8624 14.4676 12.7308 14.3359L12.6883 14.2934C12.5213 14.1301 12.3093 14.0206 12.0795 13.9789C11.8498 13.9373 11.6128 13.9654 11.3991 14.0597C11.1896 14.1495 11.0109 14.2986 10.8851 14.4886C10.7592 14.6786 10.6917 14.9013 10.6908 15.1293V15.2497C10.6908 15.6254 10.5415 15.9857 10.2758 16.2514C10.0102 16.5171 9.64984 16.6663 9.27411 16.6663C8.89839 16.6663 8.53806 16.5171 8.27238 16.2514C8.0067 15.9857 7.85745 15.6254 7.85745 15.2497V15.1859C7.85196 14.9515 7.77607 14.7241 7.63964 14.5333C7.50321 14.3426 7.31255 14.1973 7.09245 14.1163C6.8788 14.0221 6.64181 13.9939 6.41203 14.0356C6.18225 14.0773 5.97022 14.1868 5.80328 14.3501L5.76078 14.3926C5.62921 14.5243 5.47297 14.6288 5.30099 14.7001C5.12901 14.7714 4.94466 14.8081 4.75849 14.8081C4.57232 14.8081 4.38797 14.7714 4.21599 14.7001C4.04401 14.6288 3.88777 14.5243 3.7562 14.3926C3.62448 14.261 3.51999 14.1048 3.4487 13.9328C3.3774 13.7608 3.34071 13.5765 3.34071 13.3903C3.34071 13.2041 3.3774 13.0198 3.4487 12.8478C3.51999 12.6758 3.62448 12.5196 3.7562 12.388L3.7987 12.3455C3.96199 12.1786 4.07154 11.9665 4.1132 11.7368C4.15486 11.507 4.12674 11.27 4.03245 11.0563C3.94266 10.8468 3.79357 10.6682 3.60353 10.5423C3.41349 10.4165 3.1908 10.3489 2.96286 10.348H2.84245C2.46672 10.348 2.10639 10.1988 1.84071 9.93308C1.57504 9.6674 1.42578 9.30706 1.42578 8.93134C1.42578 8.55562 1.57504 8.19528 1.84071 7.92961C2.10639 7.66393 2.46672 7.51467 2.84245 7.51467H2.9062C3.14065 7.50919 3.36803 7.4333 3.55878 7.29687C3.74953 7.16044 3.89483 6.96978 3.97578 6.74967C4.07007 6.53603 4.0982 6.29904 4.05653 6.06926C4.01487 5.83948 3.90533 5.62745 3.74203 5.46051L3.69953 5.41801C3.56781 5.28644 3.46332 5.1302 3.39203 4.95821C3.32074 4.78623 3.28404 4.60189 3.28404 4.41572C3.28404 4.22954 3.32074 4.0452 3.39203 3.87322C3.46332 3.70124 3.56781 3.54499 3.69953 3.41342C3.8311 3.28171 3.98734 3.17722 4.15932 3.10592C4.3313 3.03463 4.51565 2.99793 4.70182 2.99793C4.88799 2.99793 5.07234 3.03463 5.24432 3.10592C5.4163 3.17722 5.57254 3.28171 5.70411 3.41342L5.74661 3.45592C5.91355 3.61922 6.12558 3.72876 6.35536 3.77043C6.58514 3.81209 6.82214 3.78396 7.03578 3.68967H7.09245C7.30195 3.59988 7.48063 3.45079 7.60648 3.26075C7.73233 3.07072 7.79987 2.84802 7.80078 2.62009V2.49967C7.80078 2.12395 7.95004 1.76362 8.21571 1.49794C8.48139 1.23226 8.84172 1.08301 9.21745 1.08301C9.59317 1.08301 9.95351 1.23226 10.2192 1.49794C10.4849 1.76362 10.6341 2.12395 10.6341 2.49967V2.56342C10.635 2.79136 10.7026 3.01405 10.8284 3.20409C10.9543 3.39413 11.1329 3.54322 11.3424 3.63301C11.5561 3.7273 11.7931 3.75542 12.0229 3.71376C12.2526 3.6721 12.4647 3.56255 12.6316 3.39926L12.6741 3.35676C12.8057 3.22504 12.9619 3.12055 13.1339 3.04926C13.3059 2.97796 13.4902 2.94127 13.6764 2.94127C13.8626 2.94127 14.0469 2.97796 14.2189 3.04926C14.3909 3.12055 14.5471 3.22504 14.6787 3.35676C14.8104 3.48833 14.9149 3.64457 14.9862 3.81655C15.0575 3.98853 15.0942 4.17288 15.0942 4.35905C15.0942 4.54522 15.0575 4.72957 14.9862 4.90155C14.9149 5.07353 14.8104 5.22977 14.6787 5.36134L14.6362 5.40384C14.4729 5.57078 14.3634 5.78281 14.3217 6.01259C14.28 6.24237 14.3082 6.47936 14.4024 6.69301V6.74967C14.4922 6.95918 14.6413 7.13785 14.8314 7.26371C15.0214 7.38956 15.2441 7.4571 15.472 7.45801H15.5924C15.9682 7.45801 16.3285 7.60726 16.5942 7.87294C16.8599 8.13862 17.0091 8.49895 17.0091 8.87467C17.0091 9.2504 16.8599 9.61073 16.5942 9.87641C16.3285 10.1421 15.9682 10.2913 15.5924 10.2913H15.5287C15.3008 10.2922 15.0781 10.3598 14.888 10.4856C14.698 10.6115 14.5489 10.7902 14.4591 10.9997Z" stroke="#C50709" stroke-linecap="round" stroke-linejoin="round"/>
</g>
<defs>
<clipPath id="clip0_850_2092">
<rect width="17" height="17" fill="white" transform="translate(0.717285 0.375)"/>
</clipPath>
</defs>
</svg>
