<svg width="13" height="14" viewBox="0 0 13 14" fill="none" xmlns="http://www.w3.org/2000/svg">
<rect width="13" height="14" fill="white"/>
<path d="M3.19924 13.7762C3.15381 13.7762 3.10817 13.7621 3.06827 13.7335C2.97755 13.6685 2.9399 13.545 2.97713 13.4348L5.07058 7.22886H3.19928C3.10171 7.22886 3.01416 7.16428 2.9789 7.06628C2.94363 6.96831 2.96791 6.85707 3.04 6.78626L9.64215 0.30087C9.72259 0.221833 9.8428 0.212211 9.93321 0.277604C10.0236 0.342997 10.0608 0.466451 10.0233 0.576568L7.93126 6.71977H9.80144C9.89882 6.71977 9.98621 6.78407 10.0216 6.88176C10.057 6.97943 10.0332 7.09051 9.96155 7.16156L3.3594 13.7089C3.31451 13.7534 3.25703 13.7762 3.19924 13.7762ZM3.80915 6.71977H5.40794C5.48504 6.71977 5.55727 6.76027 5.6015 6.82826C5.64574 6.89624 5.6564 6.9832 5.6301 7.06122L3.75259 12.6269L9.19583 7.22886H7.59281C7.51559 7.22886 7.44324 7.18823 7.39904 7.12007C7.35482 7.05187 7.34432 6.96474 7.37091 6.88667L9.24681 1.37828L3.80915 6.71977Z" fill="#C50709"/>
</svg>
