<svg width="17" height="17" viewBox="0 0 17 17" fill="none" xmlns="http://www.w3.org/2000/svg">
<path fill-rule="evenodd" clip-rule="evenodd" d="M8.67708 2.83398C5.35161 2.83398 2.65625 5.52934 2.65625 8.85482C2.65625 12.1803 5.35161 14.8757 8.67708 14.8757C12.0026 14.8757 14.6979 12.1803 14.6979 8.85482C14.6979 5.52934 12.0026 2.83398 8.67708 2.83398ZM1.59375 8.85482C1.59375 4.94254 4.76481 1.77148 8.67708 1.77148C12.5893 1.77148 15.7604 4.94254 15.7604 8.85482C15.7604 12.7671 12.5893 15.9382 8.67708 15.9382C4.76481 15.9382 1.59375 12.7671 1.59375 8.85482Z" fill="#C50709"/>
<path fill-rule="evenodd" clip-rule="evenodd" d="M8.96875 5.38086V9.04373L11.8363 10.7544L11.292 11.6668L7.90625 9.64709V5.38086H8.96875Z" fill="#C50709"/>
</svg>
