<svg width="17" height="16" viewBox="0 0 17 16" fill="none" xmlns="http://www.w3.org/2000/svg">
<path d="M2.125 4H3.54167H14.875" stroke="#D60609" stroke-linecap="round" stroke-linejoin="round"/>
<path d="M13.4582 4.00016V13.3335C13.4582 13.6871 13.3089 14.0263 13.0432 14.2763C12.7776 14.5264 12.4172 14.6668 12.0415 14.6668H4.95817C4.58245 14.6668 4.22211 14.5264 3.95644 14.2763C3.69076 14.0263 3.5415 13.6871 3.5415 13.3335V4.00016M5.6665 4.00016V2.66683C5.6665 2.31321 5.81576 1.97407 6.08144 1.72402C6.34711 1.47397 6.70745 1.3335 7.08317 1.3335H9.9165C10.2922 1.3335 10.6526 1.47397 10.9182 1.72402C11.1839 1.97407 11.3332 2.31321 11.3332 2.66683V4.00016" stroke="#D60609" stroke-linecap="round" stroke-linejoin="round"/>
<path d="M7.0835 7.3335V11.3335" stroke="#D60609" stroke-linecap="round" stroke-linejoin="round"/>
<path d="M9.9165 7.3335V11.3335" stroke="#D60609" stroke-linecap="round" stroke-linejoin="round"/>
</svg>
