<svg width="18" height="18" viewBox="0 0 18 18" fill="none" xmlns="http://www.w3.org/2000/svg">
<g clip-path="url(#clip0_850_3096)">
<path d="M12.9886 15.5547V14.138C12.9886 13.3866 12.6901 12.6659 12.1587 12.1346C11.6274 11.6032 10.9067 11.3047 10.1553 11.3047H4.48861C3.73716 11.3047 3.01649 11.6032 2.48514 12.1346C1.95378 12.6659 1.65527 13.3866 1.65527 14.138V15.5547" stroke="#C10306" stroke-linecap="round" stroke-linejoin="round"/>
<path d="M7.32259 8.47135C8.8874 8.47135 10.1559 7.20283 10.1559 5.63802C10.1559 4.07321 8.8874 2.80469 7.32259 2.80469C5.75778 2.80469 4.48926 4.07321 4.48926 5.63802C4.48926 7.20283 5.75778 8.47135 7.32259 8.47135Z" stroke="#C10306" stroke-linecap="round" stroke-linejoin="round"/>
<path d="M17.2393 15.5549V14.1382C17.2388 13.5104 17.0298 12.9006 16.6452 12.4044C16.2606 11.9083 15.7221 11.5539 15.1143 11.397" stroke="#C10306" stroke-linecap="round" stroke-linejoin="round"/>
<path d="M12.2803 2.89697C12.8897 3.05302 13.4299 3.40747 13.8157 3.90444C14.2014 4.40142 14.4108 5.01264 14.4108 5.64176C14.4108 6.27089 14.2014 6.88211 13.8157 7.37909C13.4299 7.87606 12.8897 8.23051 12.2803 8.38656" stroke="#C10306" stroke-linecap="round" stroke-linejoin="round"/>
</g>
<defs>
<clipPath id="clip0_850_3096">
<rect width="17" height="17" fill="white" transform="translate(0.947266 0.679688)"/>
</clipPath>
</defs>
</svg>
