<svg width="61" height="61" viewBox="0 0 61 61" fill="none" xmlns="http://www.w3.org/2000/svg">
<path d="M23.8009 0.742162C24.3346 0.611427 25.5437 0.404431 26.4696 0.262801C27.7659 0.0666992 28.67 0.0122264 30.3366 0.00133183C31.9923 -0.00956273 32.9073 0.0449101 34.1491 0.219223C35.0423 0.339063 36.3168 0.556955 36.9813 0.698584C37.6457 0.840213 38.7677 1.13437 39.4866 1.35226C40.2055 1.57015 41.3057 1.96235 41.9375 2.22382C42.5693 2.4744 43.5714 2.93197 44.1705 3.23702C44.7696 3.53117 45.7936 4.10858 46.458 4.51168C47.1225 4.91478 48.2227 5.66651 48.9089 6.17855C49.6605 6.74507 50.9023 7.86721 52.0134 8.97845C53.1571 10.1115 54.2355 11.3099 54.802 12.0834C55.3139 12.7698 56.0438 13.8265 56.4141 14.4257C56.7845 15.0249 57.3509 16.0272 57.6777 16.6591C57.9936 17.291 58.4837 18.3369 58.7452 19.0015C59.0175 19.666 59.4205 20.7882 59.6384 21.5072C59.8562 22.2262 60.1504 23.3484 60.292 24.013C60.4336 24.6775 60.6514 25.974 60.7821 26.9C60.9346 28.0548 61 29.1879 61 30.4625C61 31.7045 60.9237 32.9247 60.7821 34.036C60.6623 34.962 60.4445 36.2802 60.3029 36.9448C60.1504 37.6203 59.8562 38.7642 59.6384 39.4832C59.4205 40.2023 59.0175 41.3244 58.7452 41.989C58.4837 42.6536 57.9936 43.6994 57.6777 44.3313C57.3509 44.9632 56.7845 45.9655 56.4141 46.5647C56.0438 47.1639 55.3139 48.2207 54.802 48.907C54.2355 49.6805 53.1571 50.8789 52.0134 52.012C50.8805 53.1559 49.6823 54.2345 48.9089 54.801C48.2227 55.313 47.1661 56.043 46.567 56.4134C45.9679 56.7838 44.9657 57.3503 44.3339 57.6772C43.7021 57.9931 42.6564 58.4834 41.992 58.7448C41.3275 59.0172 40.2055 59.4203 39.4866 59.6382C38.7677 59.8561 37.6457 60.1502 36.9813 60.2919C36.3168 60.4335 35.0532 60.6514 34.1491 60.7712C32.9836 60.9346 31.9379 61 30.5 61C29.0621 61 28.0164 60.9346 26.8509 60.7712C25.9577 60.6514 24.6832 60.4335 24.0187 60.2919C23.3543 60.1502 22.2323 59.8561 21.5134 59.6382C20.7945 59.4203 19.6943 59.0281 19.0625 58.7666C18.4307 58.516 17.4286 58.0585 16.8295 57.7534C16.2304 57.4593 15.2064 56.8819 14.542 56.4788C13.8775 56.0757 12.7773 55.3239 12.0911 54.8119C11.3395 54.2454 10.0977 53.1232 8.98661 52.012C7.87554 50.9007 6.75357 49.6588 6.18714 48.907C5.67518 48.2207 4.92357 47.1203 4.52054 46.4558C4.1175 45.7912 3.54018 44.7671 3.24607 44.1679C2.94107 43.5687 2.48357 42.5664 2.23304 41.9345C1.97161 41.3026 1.57946 40.2023 1.36161 39.4832C1.14375 38.7642 0.849643 37.6421 0.708036 36.9775C0.566429 36.3129 0.348571 35.0165 0.217857 34.0904C0.0653571 32.9356 0 31.8026 0 30.5279C0 29.2859 0.07625 28.0657 0.217857 26.9545C0.337679 26.0284 0.555536 24.7102 0.697143 24.0456C0.849643 23.3702 1.14375 22.2262 1.36161 21.5072C1.57946 20.7882 1.97161 19.6878 2.23304 19.0559C2.48357 18.424 2.94107 17.4217 3.24607 16.8225C3.54018 16.2233 4.1175 15.1993 4.52054 14.5347C4.92357 13.8701 5.67518 12.7698 6.18714 12.0834C6.75357 11.3317 7.87554 10.0897 8.98661 8.97845C10.0977 7.86721 11.3395 6.74507 12.0911 6.17855C12.7773 5.66651 13.8775 4.91478 14.542 4.51168C15.2064 4.10858 16.2304 3.53117 16.8295 3.23702C17.4286 2.93197 18.4307 2.4744 19.0625 2.22382C19.6943 1.96235 20.7945 1.57015 21.5134 1.35226C22.2323 1.13437 23.2671 0.862002 23.8009 0.742162Z" fill="black"/>
<path d="M27.2873 12.4648C27.6468 12.3559 28.2785 12.2034 28.7034 12.1271C29.1826 12.0291 29.9669 11.9964 30.8275 12.0182C31.8078 12.0509 32.4832 12.138 33.2239 12.3341C33.7903 12.4757 34.6726 12.8026 35.1846 13.064C35.6966 13.3146 36.4264 13.7395 36.8185 14.0228C37.2107 14.2951 37.8425 14.8399 38.2346 15.2321C38.6268 15.6243 39.215 16.3651 39.5526 16.8771C39.8903 17.3892 40.3369 18.2172 40.5548 18.7292C40.7618 19.2413 41.0341 20.0475 41.143 20.5268C41.2846 21.1369 41.3391 21.8342 41.3391 22.8692C41.3391 23.9041 41.2846 24.6014 41.143 25.2115C41.0341 25.6908 40.7618 26.497 40.5548 27.0091C40.3369 27.5211 39.8903 28.3491 39.5526 28.8612C39.2259 29.3732 38.605 30.1358 38.1801 30.5498C37.7662 30.9747 37.0037 31.5957 36.4918 31.9225C35.9798 32.2603 35.1519 32.7069 34.64 32.9248C34.128 33.1318 33.3219 33.4042 32.8426 33.5131C32.2326 33.6548 31.5355 33.7092 30.5007 33.7092C29.4659 33.7092 28.7687 33.6548 28.1587 33.5131C27.6794 33.4042 26.8734 33.1318 26.3614 32.9248C25.8494 32.7069 25.0216 32.2603 24.5096 31.9225C23.9976 31.5848 23.2569 30.9965 22.8648 30.6043C22.4726 30.2121 21.928 29.5802 21.6557 29.188C21.3725 28.7958 20.9476 28.0659 20.6971 27.5538C20.4357 27.0418 20.1089 26.1593 19.9564 25.5928C19.7168 24.6994 19.6841 24.3399 19.6841 22.8692C19.6841 21.3984 19.7168 21.0389 19.9564 20.1455C20.1089 19.579 20.4357 18.6965 20.6971 18.1845C20.9476 17.6724 21.3725 16.9425 21.6557 16.5503C21.928 16.1581 22.4726 15.5262 22.8648 15.134C23.2569 14.7418 23.8996 14.208 24.2918 13.9356C24.6839 13.6741 25.3701 13.2819 25.8168 13.0532C26.2634 12.8353 26.9278 12.5629 27.2873 12.4648Z" fill="white"/>
<path d="M26.0346 37.5332C26.7209 37.3807 27.7012 37.2064 28.2132 37.1628C28.7251 37.1084 29.651 37.0539 30.2828 37.043C30.9146 37.0321 31.9385 37.0866 32.5703 37.141C33.2021 37.2064 34.2805 37.3807 34.9668 37.5441C35.653 37.6967 36.7096 37.9908 37.3087 38.1978C37.9078 38.4048 38.9318 38.8297 39.5962 39.1565C40.2607 39.4725 41.241 40.0281 41.7748 40.3767C42.3085 40.7362 43.071 41.281 43.4632 41.6078C43.8553 41.9237 44.4871 42.4794 44.8684 42.8498C45.2496 43.2202 45.925 43.9501 46.3825 44.4949C46.8291 45.0287 47.45 45.8458 47.755 46.2925C48.06 46.7391 48.6155 47.7197 49.683 49.8332L49.0512 50.4215C48.7026 50.7483 47.951 51.3911 47.3846 51.8378C46.8182 52.2954 45.8814 52.9708 45.315 53.3304C44.7485 53.7008 43.7682 54.2782 43.1364 54.605C42.5046 54.9428 41.4589 55.433 40.7944 55.7054C40.13 55.9668 39.0298 56.3591 38.3435 56.566C37.6573 56.773 36.5789 57.0454 35.9471 57.1761C35.3153 57.296 34.3568 57.4594 33.823 57.5357C33.2784 57.6119 31.7969 57.6773 30.5007 57.6773C29.2044 57.6773 27.723 57.6119 27.1784 57.5357C26.6446 57.4594 25.686 57.296 25.0543 57.1761C24.4225 57.0454 23.3441 56.773 22.6578 56.566C21.9716 56.3591 20.8714 55.9668 20.2069 55.7054C19.5425 55.433 18.4968 54.9428 17.865 54.605C17.2332 54.2782 16.2528 53.7008 15.6864 53.3304C15.12 52.9708 14.1832 52.2954 13.6168 51.8378C13.0503 51.3911 12.2987 50.7483 11.3184 49.8332L12.0046 48.4714C12.3859 47.7197 12.9414 46.7391 13.2464 46.2925C13.5514 45.8458 14.1723 45.0287 14.6189 44.4949C15.0764 43.9501 15.7518 43.2202 16.133 42.8498C16.5143 42.4794 17.146 41.9237 17.5382 41.6078C17.9303 41.281 18.6928 40.7362 19.2266 40.3767C19.7603 40.0281 20.7407 39.4725 21.4051 39.1565C22.0696 38.8297 23.0935 38.4048 23.6926 38.1978C24.2918 37.9908 25.3484 37.6967 26.0346 37.5332Z" fill="white"/>
</svg>
