<svg width="17" height="19" viewBox="0 0 17 19" fill="none" xmlns="http://www.w3.org/2000/svg">
<path d="M16.6348 11.9641C16.5617 11.8936 16.5186 11.7971 16.5186 11.6895V10.6022C16.5186 10.1309 16.2496 9.71528 15.8512 9.56314L14.7422 9.1438C14.6691 9.11782 14.6061 9.05474 14.5762 8.9731L13.9785 7.36997C13.7062 6.64263 13.0721 6.17134 12.3682 6.17134H11.4086C10.9105 6.17134 10.5088 6.62407 10.5088 7.177V10.3981H10.0174V5.14341C10.0174 4.51626 9.55918 4.00415 8.99805 4.00415H1.01934C0.454883 4.00415 0 4.51626 0 5.14341C0 5.64067 0 12.1163 0.00332031 12.7397C0.00332031 13.3668 0.461523 13.879 1.02266 13.879H1.08574C1.0625 13.7417 1.04922 13.6006 1.04922 13.4559C1.04922 12.1682 1.98555 11.1217 3.1377 11.1217C3.70215 11.1217 4.21016 11.3704 4.58535 11.7786C4.96055 11.3704 5.47188 11.1217 6.03633 11.1217C7.18848 11.1217 8.1248 12.1682 8.1248 13.4559C8.1248 13.6006 8.11152 13.7417 8.08828 13.879H11.9066C11.8834 13.7417 11.8701 13.6006 11.8701 13.4559C11.8701 12.1682 12.8064 11.1217 13.9586 11.1217C15.1107 11.1217 16.0471 12.1682 16.0471 13.4559C16.0471 13.6006 16.0338 13.7417 16.0105 13.879H16.077C16.585 13.879 17 13.4188 17 12.8473C17 12.5059 16.8672 12.1831 16.6348 11.9641ZM11.216 9.02505V7.17329C11.216 7.05454 11.3023 6.95806 11.4086 6.95806H12.3682C12.7865 6.95806 13.165 7.23638 13.3277 7.67056L13.8357 9.02134L11.216 9.02505Z" fill="black"/>
<path d="M6.5902 9.55062H2.73533C2.53776 9.55062 2.37695 9.37089 2.37695 9.15008V5.38089C2.37695 5.16008 2.53776 4.98035 2.73533 4.98035H6.5902C6.78776 4.98035 6.94857 5.16008 6.94857 5.38089V9.15008C6.94857 9.37089 6.78776 9.55062 6.5902 9.55062ZM2.73533 5.23454C2.70121 5.23454 2.66849 5.24968 2.64436 5.27665C2.62024 5.30361 2.60668 5.34019 2.60668 5.37832V9.14751C2.60668 9.2271 2.66412 9.29129 2.73533 9.29129H6.5902C6.66141 9.29129 6.71884 9.2271 6.71884 9.14751V5.38089C6.71884 5.34275 6.70529 5.30618 6.68116 5.27922C6.65704 5.25225 6.62432 5.2371 6.5902 5.2371H2.73533V5.23454Z" fill="black"/>
<path d="M7.41416 13.4521C7.41416 14.3019 6.79326 14.9958 6.03623 14.9958C5.27588 14.9958 4.65498 14.3019 4.65498 13.4521C4.65498 12.6023 5.27588 11.9083 6.03623 11.9083C6.79326 11.9083 7.41416 12.6023 7.41416 13.4521ZM15.3397 13.4521C15.3397 14.3019 14.7188 14.9958 13.9585 14.9958C13.1981 14.9958 12.5806 14.3019 12.5806 13.4521C12.5806 12.6023 13.1981 11.9083 13.9585 11.9083C14.7188 11.9083 15.3397 12.6023 15.3397 13.4521ZM4.51553 13.4521C4.51553 14.3019 3.89795 14.9958 3.1376 14.9958C2.37725 14.9958 1.75635 14.3019 1.75635 13.4521C1.75635 12.6023 2.37725 11.9083 3.1376 11.9083C3.89795 11.9083 4.51553 12.6023 4.51553 13.4521Z" fill="black"/>
</svg>
