<svg width="16" height="15" viewBox="0 0 16 15" fill="none" xmlns="http://www.w3.org/2000/svg">
<path d="M15.9007 12.5054C15.8819 12.6575 15.8507 12.806 15.8038 12.921C15.7194 13.1251 15.6382 13.1437 15.3194 13.1251C14.9069 13.1028 14.3163 13.1251 13.6913 13.1548C13.6913 13.3589 13.6976 13.4554 13.6976 13.4554C13.7382 14.0157 13.9507 14.0343 14.0351 14.0343H15.3788C15.4976 14.0343 15.6069 14.0343 15.6913 13.9675C15.8007 13.8821 15.8476 13.6335 15.8882 13.1993C15.8944 13.1362 15.8976 13.0546 15.9007 12.9581V12.9544C15.9007 12.9247 15.9038 12.8876 15.9038 12.8468V12.806C15.9038 12.7058 15.9038 12.5944 15.9007 12.5054ZM0.0944336 12.5054C0.113184 12.6575 0.144434 12.806 0.191309 12.921C0.275684 13.1251 0.356934 13.1437 0.675684 13.1251C1.08818 13.1028 1.67881 13.1251 2.30381 13.1548C2.30381 13.3589 2.29756 13.4554 2.29756 13.4554C2.25693 14.0157 2.04443 14.0343 1.96006 14.0343H0.616309C0.497559 14.0343 0.397559 14.0343 0.303809 13.9675C0.191309 13.8896 0.147559 13.6335 0.106934 13.1993C0.100684 13.1362 0.0975586 13.0546 0.0944336 12.9581V12.9544C0.0944336 12.9247 0.0913086 12.8876 0.0913086 12.8468V12.806C0.0944336 12.7058 0.0944336 12.5944 0.0944336 12.5054Z" fill="black"/>
<path d="M16 9.00654C16 7.86729 15.875 6.754 15.825 6.63154C15.7875 6.54248 15.5469 6.30869 15 5.86709C14.4469 5.41807 14.4594 5.48486 14.3594 5.1917C14.45 5.1583 14.5375 5.09521 14.5906 5.08779C14.7094 5.07295 14.7156 5.20654 14.9625 5.20654C15.2094 5.20654 15.7437 5.12861 15.8531 4.99873C15.9625 4.86885 15.9969 4.82432 15.9969 4.70928C15.9969 4.59424 15.9406 4.35674 15.8344 4.21572C15.7281 4.07471 15.275 4.0042 15.0094 3.96338C14.7437 3.92256 14.7063 3.96338 14.6375 4.01533C14.5281 4.09697 14.5219 4.84287 14.5219 4.84287L14.2625 4.85029C14.0938 4.35674 13.8594 3.36221 13.4937 2.5792C13.0938 1.72568 12.675 1.4585 12.5 1.3917C12.3281 1.32861 12.1719 1.28408 11 1.14307C9.80313 0.994629 8.85 0.976074 8 0.976074C7.15 0.976074 6.19688 0.99834 5 1.14307C3.82812 1.28779 3.67188 1.32861 3.5 1.3917C3.32812 1.45479 2.90625 1.72568 2.50625 2.5792C2.14062 3.36221 1.90625 4.35674 1.7375 4.85029L1.47812 4.84287C1.47812 4.84287 1.475 4.09697 1.3625 4.01533C1.29375 3.96338 1.25625 3.91885 0.990625 3.96338C0.725 4.00791 0.271875 4.07471 0.165625 4.21572C0.059375 4.35674 0.003125 4.59424 0.003125 4.70928C0.003125 4.82432 0.0375 4.87256 0.146875 4.99873C0.25625 5.12861 0.790625 5.20654 1.0375 5.20654C1.28438 5.20654 1.29062 5.07295 1.40937 5.08779C1.4625 5.09521 1.55313 5.1583 1.64062 5.1917C1.5375 5.48486 1.55313 5.41807 1 5.86709C0.453125 6.3124 0.209375 6.54248 0.175 6.63154C0.125 6.754 0 7.86729 0 9.00654C0 10.1458 0.06875 11.17 0.06875 11.5337C0.06875 11.6858 0.06875 11.953 0.096875 12.2091C0.115625 12.3612 0.14375 12.5097 0.19375 12.6247C0.278125 12.8288 0.35625 12.8474 0.678125 12.8288C1.09063 12.8065 1.6875 12.8288 2.30312 12.8585C2.71562 12.8771 3.1375 12.8956 3.5125 12.9067C4.45 12.929 4.175 12.7435 4.575 12.7509C4.975 12.7583 6.55312 12.8362 7.99687 12.8362C9.44063 12.8362 11.0219 12.7583 11.4187 12.7509C11.8187 12.7435 11.5437 12.929 12.4812 12.9067C12.8562 12.8993 13.2781 12.8771 13.6906 12.8585C14.3063 12.8325 14.9062 12.8065 15.3156 12.8288C15.6375 12.8474 15.7156 12.8288 15.8 12.6247C15.8469 12.5097 15.8781 12.3612 15.8969 12.2091C15.9281 11.953 15.925 11.6858 15.925 11.5337C15.9313 11.1737 16 10.1458 16 9.00654ZM2.69375 3.38818C2.84375 2.97256 3.29375 2.1376 3.5125 1.98916C3.56562 1.95205 4.03125 1.77764 5.19688 1.68486C6.26875 1.59951 7.45312 1.56611 8.00313 1.56611C8.55313 1.56611 9.7375 1.59951 10.8094 1.68486C11.9719 1.77764 12.4437 1.94834 12.4937 1.98916C12.775 2.21924 13.1625 2.97256 13.3125 3.38818C13.4625 3.80381 13.6625 4.62021 13.625 4.73154C13.5875 4.84287 13.6625 4.89854 13.1562 4.85029C12.6531 4.80576 9.49375 4.75752 8.00625 4.75752C6.52188 4.75752 3.3625 4.80576 2.85625 4.85029C2.35 4.89482 2.425 4.84287 2.3875 4.73154C2.34375 4.62021 2.54375 3.80752 2.69375 3.38818ZM3.84375 8.03428C3.61875 8.10107 3.48438 8.2458 3.20312 8.24209C2.92188 8.24209 2.1625 8.08994 2 8.08252C1.8375 8.0751 1.69375 8.2124 1.60938 8.23838C1.525 8.26436 1.35938 8.19385 1.10938 8.10107C0.859375 8.0083 0.7125 8.03428 0.63125 7.62979C0.546875 7.229 0.63125 6.65381 0.63125 6.65381C1.17188 6.62412 1.69375 6.6835 2.67188 7.01006C3.65 7.33662 4.19375 7.96377 4.19375 7.96377C4.19375 7.96377 4.06875 7.96748 3.84375 8.03428ZM11.1938 10.9585C10.7469 11.029 8.875 11.0476 8 11.0476C7.125 11.0476 5.25313 11.0253 4.80625 10.9585C4.35 10.888 3.75625 10.2386 4.16563 9.72275C4.71875 9.02139 4.61562 9.04365 5.87187 8.85068C6.95937 8.68369 7.78438 8.67627 8 8.67627C8.2125 8.67627 9.04063 8.6874 10.1281 8.85068C11.3844 9.04365 11.2812 9.02139 11.8344 9.72275C12.2438 10.2386 11.65 10.888 11.1938 10.9585ZM15.3687 7.6335C15.2844 8.03428 15.1406 8.01201 14.8906 8.10478C14.6406 8.19756 14.475 8.26436 14.3906 8.24209C14.3062 8.21982 14.1625 8.08252 14 8.08623C13.8375 8.09365 13.0781 8.2458 12.7969 8.2458C12.5156 8.2458 12.3813 8.10479 12.1562 8.03799C11.9312 7.97119 11.8062 7.97119 11.8062 7.97119C11.8062 7.97119 12.3469 7.34033 13.3281 7.01748C14.3062 6.69092 14.8281 6.63154 15.3687 6.66123C15.3687 6.65381 15.4531 7.229 15.3687 7.6335Z" fill="black"/>
</svg>
