<svg width="59" height="55" viewBox="0 0 59 55" fill="none" xmlns="http://www.w3.org/2000/svg">
<path d="M52.7116 39.5604L34.719 10.2614C33.6521 8.52664 31.656 7.44727 29.5123 7.44727C27.3686 7.44727 25.3725 8.52435 24.3055 10.2591L6.29088 39.5604C5.79429 40.3671 5.53125 41.2837 5.53125 42.2141C5.53125 45.1589 8.10021 47.5537 11.2567 47.5537H47.7433C50.8998 47.5537 53.4688 45.1589 53.4688 42.2141C53.4688 41.2883 53.2082 40.3694 52.7116 39.5604Z" fill="#C50709"/>
<path d="M52.7116 39.5604L34.719 10.2614C33.6521 8.52664 31.656 7.44727 29.5123 7.44727C27.3686 7.44727 25.3725 8.52435 24.3055 10.2591L6.29088 39.5604C5.79429 40.3671 5.53125 41.2837 5.53125 42.2141C5.53125 45.1589 8.10021 47.5537 11.2567 47.5537H47.7433C50.8998 47.5537 53.4688 45.1589 53.4688 42.2141C53.4688 41.2883 53.2082 40.3694 52.7116 39.5604ZM47.7433 44.1139H11.2567C10.1332 44.1139 9.21875 43.2614 9.21875 42.2118C9.21875 41.8796 9.31217 41.5541 9.48671 41.2677L27.5014 11.9687C27.9144 11.2996 28.6814 10.8848 29.5098 10.8848C30.3383 10.8848 31.1053 11.3018 31.5158 11.971L49.5059 41.2677C49.6829 41.5564 49.7763 41.8841 49.7763 42.2141C49.7763 43.2637 48.8618 44.1162 47.7384 44.1162L47.7433 44.1139Z" fill="white"/>
<path d="M29.5 31.9681C30.5178 31.9681 31.3438 31.1981 31.3438 30.2493V22.916C31.3438 21.9673 30.5178 21.1973 29.5 21.1973C28.4822 21.1973 27.6562 21.9673 27.6562 22.916V30.2493C27.6562 31.1981 28.4822 31.9681 29.5 31.9681Z" fill="white"/>
<path d="M29.4989 38.9577C30.5851 38.9577 31.4656 38.1369 31.4656 37.1244C31.4656 36.1118 30.5851 35.291 29.4989 35.291C28.4127 35.291 27.5322 36.1118 27.5322 37.1244C27.5322 38.1369 28.4127 38.9577 29.4989 38.9577Z" fill="white"/>
</svg>
