<svg width="1979" height="2048" viewBox="0 0 1979 2048" fill="none" xmlns="http://www.w3.org/2000/svg">
<g clip-path="url(#clip0_3001_740)">
<path d="M957.379 -0.203134C958.485 -0.205961 959.591 -0.208789 960.731 -0.211702C966.605 -0.226614 972.479 -0.235889 978.353 -0.240243C983.118 -0.244594 987.883 -0.258363 992.649 -0.281259C1028.52 -0.450142 1063.76 0.890284 1099.37 5.32421C1103.7 5.85884 1108.03 6.28803 1112.37 6.66552C1125.55 7.82671 1138.53 10.1663 1151.56 12.417C1155.35 13.059 1159.15 13.6465 1162.95 14.217C1170.53 15.3546 1177.98 16.7993 1185.45 18.522C1190.22 19.6208 1194.99 20.5756 1199.81 21.4375C1215.23 24.2282 1230.41 28.2659 1245.53 32.3364C1248.11 33.0297 1250.69 33.7159 1253.27 34.4023C1263.04 37.0174 1272.76 39.7672 1282.44 42.6875C1283.39 42.9729 1284.34 43.2582 1285.33 43.5522C1289.22 44.74 1293.03 45.9438 1296.75 47.5898C1299.99 48.9978 1303.15 49.9639 1306.56 50.875C1317.1 53.8168 1327.26 57.6522 1337.39 61.7668C1341.62 63.4766 1345.88 65.0511 1350.19 66.5625C1356.57 68.8106 1362.79 71.3323 1369 74C1369.98 74.4164 1370.97 74.8327 1371.98 75.2617C1375.66 76.826 1379.33 78.4095 1383 80C1383.94 80.4056 1384.87 80.8111 1385.84 81.229C1398.05 86.5291 1410.16 91.89 1422 98C1424.66 99.3407 1427.33 100.67 1430 102C1431.35 102.677 1432.7 103.354 1434.05 104.031C1436.58 105.292 1439.1 106.542 1441.63 107.781C1448.28 111.055 1454.76 114.512 1461.17 118.23C1464.08 119.913 1466.98 121.54 1470 123C1479.65 127.679 1488.85 133.433 1498 139C1499.36 139.822 1500.73 140.643 1502.09 141.465C1510.66 146.648 1519.09 151.982 1527.39 157.582C1531.04 160.041 1534.73 162.435 1538.44 164.812C1539.31 165.372 1539.31 165.372 1540.19 165.942C1543.39 167.993 1546.62 169.981 1549.87 171.937C1550.91 172.618 1551.94 173.299 1553 174C1553 174.66 1553 175.32 1553 176C1553.72 176.258 1554.43 176.516 1555.17 176.781C1558.17 178.074 1560.63 179.628 1563.31 181.5C1564.2 182.108 1565.08 182.717 1565.99 183.344C1566.65 183.89 1567.32 184.437 1568 185C1568 185.66 1568 186.32 1568 187C1568.87 187.227 1569.73 187.454 1570.62 187.687C1573.82 188.931 1575.72 190.357 1578.29 192.562C1581.38 195.16 1584.64 197.53 1587.87 199.937C1591.93 202.965 1591.93 202.965 1593.95 204.476C1595.35 205.514 1596.75 206.547 1598.15 207.575C1601.71 210.199 1604.9 212.837 1608 216C1610.17 217.756 1612.35 219.482 1614.56 221.187C1615.81 222.158 1617.05 223.13 1618.29 224.102C1619.22 224.827 1619.22 224.827 1620.17 225.567C1622.92 227.718 1625.65 229.88 1628.37 232.062C1629.27 232.775 1630.16 233.488 1631.09 234.223C1631.72 234.809 1632.35 235.396 1633 236C1633 236.66 1633 237.32 1633 238C1634.08 238.34 1634.08 238.34 1635.19 238.687C1638.59 240.273 1640.45 242.261 1643 245C1645.59 247.724 1647.91 249.94 1651.06 252C1654.13 254.086 1655.71 256.11 1658 259C1659.91 260.752 1661.89 262.428 1663.86 264.113C1666.63 266.552 1669.19 269.16 1671.75 271.812C1673.63 273.636 1675.53 275.328 1677.52 277.027C1682.62 281.463 1687.39 286.236 1692.16 291.025C1693.69 292.567 1695.23 294.103 1696.78 295.639C1697.77 296.635 1698.77 297.632 1699.76 298.629C1701.09 299.96 1701.09 299.96 1702.45 301.319C1705.11 304.118 1707.54 307.019 1710 310C1710.74 310.743 1711.48 311.485 1712.25 312.25C1715.61 315.612 1718.75 319.146 1721.91 322.695C1723.57 324.522 1725.26 326.262 1727 328C1728.09 329.22 1729.18 330.45 1730.25 331.688C1732.96 334.809 1732.96 334.809 1735.7 337.914C1739.03 341.686 1742.26 345.527 1745.44 349.438C1748.19 352.831 1751 356.142 1753.94 359.375C1758.98 364.973 1763.47 370.989 1768 377C1768.59 377.746 1769.18 378.493 1769.79 379.262C1771 381 1771 381 1771 383C1771.99 383.33 1772.98 383.66 1774 384C1775.52 385.718 1775.52 385.718 1777.1 387.93C1777.67 388.725 1778.25 389.52 1778.84 390.34C1779.43 391.176 1780.02 392.013 1780.62 392.875C1781.52 394.118 1781.52 394.118 1782.44 395.387C1786.86 401.58 1786.86 401.58 1788 405C1788.66 405 1789.32 405 1790 405C1791.17 406.829 1792.34 408.664 1793.45 410.527C1795.77 414.226 1798.38 417.695 1800.96 421.211C1806.62 428.948 1811.9 436.879 1817 445C1820.26 450.16 1823.52 455.315 1826.94 460.375C1830.8 466.14 1834.4 472.067 1838 478C1838.37 478.602 1838.73 479.203 1839.11 479.823C1844.18 488.188 1849.13 496.614 1853.94 505.132C1855.1 507.177 1856.26 509.217 1857.43 511.258C1858.24 512.693 1859.06 514.127 1859.87 515.562C1860.45 516.563 1860.45 516.563 1861.03 517.584C1862.96 520.989 1864.57 524.364 1866 528C1866.78 529.312 1867.59 530.605 1868.44 531.875C1870.73 535.446 1872.36 539.08 1874 543C1874.65 544.176 1875.32 545.343 1876 546.5C1877.63 549.268 1878.93 552.077 1880.15 555.051C1881.18 557.415 1882.33 559.7 1883.5 562C1885.49 565.942 1887.27 569.934 1889 574C1889.64 575.274 1890.28 576.545 1890.94 577.812C1892.39 580.679 1893.65 583.56 1894.82 586.555C1897.06 592.202 1899.49 597.754 1901.94 603.312C1905.51 611.475 1908.92 619.639 1912 628C1912.71 629.874 1913.41 631.749 1914.12 633.623C1917.54 642.706 1920.89 651.816 1924.24 660.929C1924.88 662.685 1925.54 664.439 1926.19 666.191C1928.37 672.07 1930.25 678.004 1932.06 684.008C1932.82 686.41 1933.63 688.726 1934.56 691.062C1936.19 695.233 1937.14 699.529 1938.19 703.875C1938.97 706.896 1939.91 709.803 1940.94 712.75C1942.99 718.734 1944.51 724.806 1946 730.945C1946.92 734.711 1947.92 738.449 1948.94 742.188C1953.77 760.259 1957.64 778.517 1961.36 796.848C1961.89 799.453 1962.43 802.055 1962.98 804.656C1964.18 810.423 1965.19 816.155 1965.93 822C1966.74 828.314 1967.73 834.584 1968.8 840.861C1971.19 854.966 1973.08 869.043 1974.38 883.295C1974.73 887.165 1975.1 891.033 1975.48 894.9C1978.56 925.943 1979.61 956.686 1979.45 987.872C1979.43 992.402 1979.44 996.933 1979.45 1001.46C1979.5 1027.48 1978.69 1053.13 1976 1079C1975.79 1081.24 1975.57 1083.47 1975.37 1085.71C1974.82 1091.46 1974.24 1097.2 1973.62 1102.94C1973.52 1103.92 1973.42 1104.9 1973.31 1105.91C1971.66 1121.44 1969.45 1136.74 1966.53 1152.09C1965.74 1156.44 1965.09 1160.81 1964.44 1165.19C1963.4 1172.01 1962.03 1178.71 1960.48 1185.44C1959.35 1190.34 1958.38 1195.24 1957.5 1200.19C1956.34 1206.66 1954.72 1212.95 1952.96 1219.29C1952 1222.99 1951.26 1226.68 1950.56 1230.44C1949.41 1236.46 1947.79 1242.16 1945.9 1247.97C1944.47 1252.4 1943.26 1256.84 1942.19 1261.38C1937.85 1279.45 1931.74 1297.15 1925.76 1314.74C1925.25 1316.25 1924.75 1317.77 1924.26 1319.29C1922.58 1324.43 1920.67 1329.4 1918.56 1334.38C1916.24 1339.94 1914.04 1345.52 1912.02 1351.2C1904.74 1371.14 1896.09 1390.69 1887 1409.87C1885.89 1412.23 1884.79 1414.58 1883.69 1416.94C1878.11 1428.81 1872.21 1440.45 1866 1452C1865.34 1453.23 1864.68 1454.46 1864.03 1455.69C1862.36 1458.8 1860.68 1461.9 1859 1465C1858.46 1465.99 1857.93 1466.97 1857.38 1467.99C1855.93 1470.67 1854.47 1473.33 1853 1476C1852.65 1476.63 1852.31 1477.27 1851.95 1477.92C1850.12 1481.21 1848.12 1484.33 1846 1487.44C1843.71 1490.82 1841.83 1494.21 1840.06 1497.89C1836.96 1504.04 1833.31 1509.64 1829 1515C1828.56 1515.9 1828.11 1516.79 1827.65 1517.72C1825.89 1521.21 1823.88 1524.48 1821.75 1527.75C1821.35 1528.36 1820.96 1528.98 1820.55 1529.61C1817.7 1533.99 1814.74 1538.28 1811.7 1542.54C1809.14 1546.24 1806.81 1550.09 1804.48 1553.95C1803.99 1554.62 1803.5 1555.3 1803 1556C1802.34 1556 1801.68 1556 1801 1556C1800.69 1556.96 1800.69 1556.96 1800.37 1557.95C1798.43 1562.27 1795.74 1565.96 1793 1569.81C1792.45 1570.6 1791.91 1571.39 1791.34 1572.2C1790.55 1573.32 1790.55 1573.32 1789.75 1574.46C1789.27 1575.14 1788.79 1575.82 1788.3 1576.52C1787.87 1577.01 1787.44 1577.5 1787 1578C1786.34 1578 1785.68 1578 1785 1578C1784.73 1578.97 1784.46 1579.94 1784.19 1580.94C1783.8 1581.95 1783.4 1582.96 1783 1584C1782.01 1584.33 1781.02 1584.66 1780 1585C1778.92 1586.86 1778.92 1586.86 1778 1589C1777.17 1590.21 1776.31 1591.4 1775.43 1592.57C1774.68 1593.57 1774.68 1593.57 1773.91 1594.59C1773.38 1595.28 1772.86 1595.97 1772.31 1596.69C1771.51 1597.75 1771.51 1597.75 1770.68 1598.84C1769.61 1600.25 1768.54 1601.66 1767.47 1603.07C1766.21 1604.72 1764.97 1606.39 1763.72 1608.05C1763.11 1608.86 1762.5 1609.67 1761.87 1610.5C1761.36 1611.19 1760.84 1611.88 1760.3 1612.59C1759.87 1613.06 1759.44 1613.52 1759 1614C1758.34 1614 1757.68 1614 1757 1614C1756.65 1615.08 1756.65 1615.08 1756.29 1616.18C1754.78 1619.48 1752.93 1621.51 1750.44 1624.12C1746.98 1627.83 1743.68 1631.55 1740.5 1635.5C1736.59 1640.35 1732.46 1644.96 1728.23 1649.54C1726.41 1651.54 1724.69 1653.57 1723 1655.69C1722.34 1656.45 1721.68 1657.21 1721 1658C1720.34 1658 1719.68 1658 1719 1658C1718.76 1658.56 1718.52 1659.12 1718.27 1659.69C1716.73 1662.49 1714.84 1664.58 1712.69 1666.94C1711.88 1667.82 1711.07 1668.71 1710.23 1669.62C1707.87 1672.13 1705.44 1674.56 1703 1677C1701.66 1678.49 1700.33 1679.99 1699 1681.5C1695.2 1685.8 1691.4 1689.86 1686.94 1693.5C1684.01 1695.82 1684.01 1695.82 1682.12 1698.41C1679.96 1701.05 1677.78 1702.89 1675.06 1704.94C1672.22 1707.16 1669.6 1709.22 1667.37 1712.06C1663.75 1716.55 1659.56 1721.15 1654 1723C1653.67 1723.99 1653.34 1724.98 1653 1726C1651.64 1727.4 1651.64 1727.4 1649.81 1728.94C1649.09 1729.55 1648.37 1730.16 1647.63 1730.79C1646.33 1731.88 1646.33 1731.88 1645 1733C1643.91 1733.93 1642.83 1734.87 1641.74 1735.81C1636.12 1740.67 1630.46 1745.49 1624.75 1750.25C1623.88 1750.98 1623.01 1751.7 1622.11 1752.45C1620 1754 1620 1754 1618 1754C1617.75 1754.62 1617.5 1755.24 1617.25 1755.88C1615.74 1758.44 1614.64 1758.72 1612 1760C1610.85 1761.18 1609.7 1762.35 1608.55 1763.53C1605.51 1766.42 1602.1 1768.86 1598.75 1771.38C1597.31 1772.47 1595.86 1773.56 1594.42 1774.65C1593.69 1775.2 1592.97 1775.75 1592.22 1776.31C1589.99 1778.01 1587.8 1779.73 1585.6 1781.46C1579.88 1785.92 1573.91 1789.99 1567.93 1794.1C1567.08 1794.69 1566.23 1795.28 1565.35 1795.89C1564.59 1796.42 1563.82 1796.94 1563.03 1797.49C1561 1798.92 1561 1798.92 1559.42 1800.58C1557.55 1802.45 1555.35 1803.52 1553.06 1804.79C1549.89 1806.66 1546.93 1808.82 1543.93 1810.95C1528.25 1821.93 1511.98 1831.98 1495.47 1841.66C1494.72 1842.1 1493.96 1842.54 1493.18 1843C1491.73 1843.85 1490.27 1844.7 1488.81 1845.55C1484.78 1847.91 1480.89 1850.41 1477 1853C1475.22 1854.02 1473.43 1855.03 1471.62 1856C1470.75 1856.47 1469.88 1856.95 1468.98 1857.44C1466.73 1858.62 1464.48 1859.76 1462.21 1860.89C1457.77 1863.1 1453.38 1865.42 1449 1867.75C1441.05 1871.95 1433.04 1876.03 1424.98 1880.01C1422.91 1881.04 1420.86 1882.09 1418.8 1883.13C1412.55 1886.31 1406.33 1889.4 1399.77 1891.9C1396.07 1893.37 1392.45 1895 1388.81 1896.62C1381.53 1899.88 1374.24 1903.11 1366.94 1906.31C1365.99 1906.73 1365.04 1907.15 1364.06 1907.59C1359.07 1909.77 1354.09 1911.72 1348.9 1913.39C1346.7 1914.1 1344.57 1914.93 1342.44 1915.81C1328.48 1921.46 1314.31 1926.34 1300 1931C1298.96 1931.34 1297.93 1931.68 1296.86 1932.03C1285.7 1935.67 1274.57 1939.24 1263.19 1942.14C1260.11 1942.97 1257.13 1943.95 1254.12 1945C1247.86 1947.16 1241.49 1948.6 1235.04 1950.06C1231.79 1950.8 1228.58 1951.65 1225.37 1952.56C1220.08 1954.04 1214.72 1955.08 1209.32 1956.12C1205.28 1956.92 1201.28 1957.85 1197.27 1958.79C1186.67 1961.27 1176.05 1963.3 1165.32 1965.1C1160.88 1965.84 1156.47 1966.68 1152.06 1967.56C1143.66 1969.15 1135.21 1970.17 1126.72 1971.18C1122.02 1971.74 1117.34 1972.36 1112.66 1973.01C1096.52 1975.23 1080.46 1976.82 1064.18 1977.67C1060.02 1977.88 1055.87 1978.14 1051.71 1978.42C1007.67 1981.37 962.568 1981.78 918.55 1978.26C914.963 1978 911.378 1977.81 907.785 1977.63C889.988 1976.72 872.669 1974.1 855.138 1971.05C850.362 1970.22 845.581 1969.47 840.785 1968.76C823.14 1966.17 805.986 1961.57 788.867 1956.65C784.807 1955.49 780.734 1954.42 776.633 1953.41C771.769 1952.22 767.091 1950.75 762.375 1949.06C759.407 1948.13 756.481 1947.4 753.453 1946.7C748.957 1945.6 744.771 1944.2 740.484 1942.46C728.21 1936.89 728.21 1936.89 715.254 1936.91C711.834 1938.45 708.83 1940.5 705.823 1942.73C702.747 1944.88 699.38 1946.39 696 1948C694.665 1948.66 693.332 1949.33 692 1950C689.333 1951.33 686.667 1952.67 684 1954C683.34 1954.33 682.68 1954.66 682.001 1955C680.665 1955.67 679.329 1956.33 677.993 1957C674.694 1958.65 671.398 1960.3 668.105 1961.96C661.012 1965.54 653.882 1969.01 646.688 1972.38C639.32 1975.83 632.104 1979.51 624.921 1983.33C617.99 1987.02 610.987 1990.55 603.952 1994.03C601.301 1995.35 598.654 1996.67 596.008 1998C593.999 1999 591.99 2000 589.98 2001.01C587.376 2002.31 584.775 2003.62 582.176 2004.93C574.644 2008.73 567.066 2012.4 559.438 2016C553.152 2018.97 546.931 2022.01 540.812 2025.31C540.203 2025.64 539.594 2025.97 538.966 2026.31C537.31 2027.2 535.655 2028.1 534 2029C512.959 2040.38 487.938 2048.06 464.012 2048.24C462.954 2048.25 461.897 2048.25 460.808 2048.26C458.571 2048.28 456.335 2048.29 454.098 2048.3C451.844 2048.31 449.59 2048.33 447.336 2048.36C433.258 2048.54 420.587 2047.71 407 2044C404.841 2043.49 402.679 2043 400.515 2042.51C394.193 2041.06 388.368 2039.09 382.535 2036.23C379.166 2034.6 375.697 2033.3 372.191 2031.99C370 2031 370 2031 368.152 2029.57C365.307 2027.49 362.241 2026.37 359 2025C349.214 2019.66 340.592 2013.04 332 2006C331.196 2005.35 330.391 2004.7 329.562 2004.04C327.996 2002.74 326.488 2001.38 325 2000C325 1999.34 325 1998.68 325 1998C324.448 1997.78 323.897 1997.56 323.328 1997.34C320.254 1995.57 318.093 1993.18 315.75 1990.56C315.268 1990.03 314.785 1989.5 314.288 1988.95C310.478 1984.68 307.056 1980.2 303.77 1975.52C302.2 1973.28 300.561 1971.14 298.875 1969C295.348 1964.3 292.698 1959.21 290 1954C289.381 1952.87 288.762 1951.74 288.125 1950.58C277.923 1931.62 272.647 1911.28 270 1890C269.918 1889.37 269.836 1888.73 269.751 1888.08C269.086 1882.61 268.857 1877.25 268.869 1871.75C268.866 1870.42 268.866 1870.42 268.862 1869.07C268.856 1866.12 268.857 1863.17 268.858 1860.23C268.855 1858.11 268.852 1855.99 268.848 1853.87C268.84 1849.31 268.835 1844.75 268.831 1840.2C268.825 1833 268.809 1825.79 268.79 1818.59C268.784 1816.13 268.777 1813.66 268.771 1811.19C268.768 1809.95 268.765 1808.72 268.761 1807.45C268.719 1790.69 268.686 1773.93 268.674 1757.17C268.666 1745.85 268.643 1734.53 268.605 1723.22C268.585 1717.23 268.573 1711.24 268.578 1705.26C268.582 1699.63 268.568 1694.01 268.54 1688.38C268.534 1686.32 268.533 1684.25 268.541 1682.19C268.55 1679.37 268.534 1676.56 268.512 1673.74C268.521 1672.92 268.529 1672.1 268.538 1671.26C268.465 1666.19 267.612 1663.57 264 1660C262.774 1658.85 261.516 1657.73 260.225 1656.65C256.095 1653.12 252.232 1649.38 248.395 1645.53C247.707 1644.84 247.02 1644.16 246.312 1643.45C244.873 1642.01 243.436 1640.57 241.999 1639.13C239.811 1636.94 237.618 1634.75 235.424 1632.56C234.018 1631.15 232.612 1629.75 231.207 1628.34C230.558 1627.69 229.909 1627.05 229.24 1626.38C225.61 1622.73 222.263 1618.98 219 1615C218.092 1614.11 217.185 1613.23 216.25 1612.31C214 1610 214 1610 213 1607C212.411 1606.72 211.822 1606.44 211.215 1606.14C208.167 1604.57 206.665 1602.38 204.562 1599.69C202.237 1596.72 199.971 1593.97 197.277 1591.33C195 1589 195 1589 194 1586C193.283 1585.44 192.567 1584.89 191.828 1584.32C188.135 1581.29 185.575 1577.76 182.75 1573.94C178.227 1567.9 173.62 1562.02 168.707 1556.3C167 1554 167 1554 165.949 1551.27C165.636 1550.52 165.323 1549.77 165 1549C164.01 1548.67 163.02 1548.34 162 1548C160.463 1546.01 159.064 1544.04 157.687 1541.94C156.884 1540.74 156.079 1539.55 155.273 1538.36C154.884 1537.78 154.494 1537.2 154.093 1536.6C152.727 1534.6 151.285 1532.67 149.812 1530.75C146.677 1526.63 143.846 1522.33 141 1518C139.688 1516.04 138.375 1514.08 137.062 1512.12C133.816 1507.26 130.652 1502.34 127.527 1497.4C126.317 1495.5 125.071 1493.62 123.812 1491.75C122.178 1489.27 120.703 1486.74 119.25 1484.16C117.641 1481.38 115.944 1478.66 114.25 1475.94C108.842 1467.18 103.618 1458.33 99.0537 1449.1C97.586 1446.17 96.0407 1443.29 94.4992 1440.41C89.6961 1431.4 85.1992 1422.29 80.9336 1413.02C80.008 1411.02 79.069 1409.02 78.125 1407.03C77.6671 1406.06 77.6671 1406.06 77.1999 1405.07C76.3797 1403.33 75.559 1401.59 74.7383 1399.86C72.3408 1394.64 70.1891 1389.31 68 1384C67.5597 1382.94 67.1194 1381.88 66.6657 1380.78C61.0876 1367.3 55.6325 1353.84 51 1340C50.3466 1338.08 49.6929 1336.15 49.039 1334.23C45.0902 1322.56 41.3208 1310.87 38 1299C37.6565 1297.78 37.6565 1297.78 37.3061 1296.54C33.4302 1282.78 29.9887 1268.94 26.7158 1255.02C26.0277 1252.12 25.3254 1249.21 24.6172 1246.31C22.2583 1236.62 20.1359 1226.95 18.3901 1217.13C17.9611 1214.79 17.5007 1212.45 17.0351 1210.12C14.9108 1199.41 13.1803 1188.71 11.7812 1177.89C11.2477 1173.78 10.658 1169.68 10.0312 1165.58C7.33897 1147.87 5.61843 1130.16 4.18681 1112.31C3.92729 1109.1 3.65907 1105.9 3.39079 1102.69C3.04933 1098.61 2.71197 1094.52 2.37498 1090.44C2.31245 1089.68 2.24995 1088.93 2.18553 1088.15C2.00431 1085.95 1.82594 1083.76 1.64842 1081.56C1.54707 1080.31 1.44571 1079.07 1.34129 1077.79C1.22587 1076.19 1.11239 1074.6 0.99998 1073C0.915587 1071.88 0.831193 1070.77 0.744243 1069.62C-0.170155 1056.21 -0.182566 1042.82 -0.203145 1029.39C-0.205972 1028.13 -0.208777 1026.87 -0.21169 1025.57C-0.225079 1019.56 -0.235018 1013.54 -0.238911 1007.53C-0.242914 1001.4 -0.2551 995.263 -0.28127 989.127C-0.40719 958.954 -0.387178 929.013 2.99998 899C3.13879 897.765 3.27762 896.53 3.42063 895.257C4.01956 890.015 4.64844 884.779 5.3242 879.547C5.88258 875.132 6.30193 870.72 6.66551 866.285C7.64913 854.382 9.66664 842.727 11.7734 830.977C12.8233 825.102 13.7309 819.221 14.5625 813.312C15.6756 805.53 17.2637 797.925 19.039 790.27C19.942 786.345 20.6748 782.404 21.375 778.438C24.2652 762.737 28.1558 747.237 32.8833 731.992C34.6986 726.12 36.2346 720.216 37.6701 714.241C38.6202 710.345 39.7712 706.681 41.289 702.977C42.2155 700.401 42.8102 697.789 43.4375 695.125C44.5744 690.394 46.092 686.076 47.9726 681.598C49.5138 677.701 50.6637 673.702 51.8711 669.691C55.0683 659.237 58.4565 648.889 62.789 638.844C64.0782 635.816 65.2658 632.762 66.4375 629.688C68.7149 623.716 71.0699 617.779 73.457 611.852C74.5126 609.228 75.5496 606.597 76.5742 603.961C76.834 603.298 77.0938 602.634 77.3615 601.951C78.0803 600.114 78.7942 598.276 79.5078 596.438C80.5951 593.933 81.6853 591.722 83.0508 589.383C84.6807 586.554 85.931 583.922 87.0625 580.875C88.434 577.321 90.0397 574.267 92 571C92.6642 569.382 93.3079 567.756 93.9375 566.125C95.1341 563.042 96.3789 560.159 98.0625 557.312C100.068 554.04 100.068 554.04 101.5 550.5C102.8 547.467 104.222 544.771 105.937 541.969C107.158 539.708 108.114 537.364 109.112 534.999C110.791 531.221 112.751 527.588 114.687 523.938C115.348 522.687 115.348 522.687 116.023 521.412C119.864 514.183 123.875 507.07 128 500C128.607 498.952 129.214 497.904 129.84 496.824C133.029 491.332 136.26 485.865 139.539 480.426C140.518 478.801 141.492 477.173 142.461 475.543C148.868 464.78 155.734 454.335 162.706 443.933C164.105 441.843 165.498 439.75 166.891 437.656C170.131 432.795 173.4 427.955 176.687 423.125C177.255 422.285 177.823 421.444 178.408 420.578C178.958 419.771 179.508 418.964 180.074 418.133C180.565 417.41 181.056 416.687 181.561 415.942C183 414 183 414 184.577 412.441C186.699 410.292 187.734 407.713 189 405C189.66 405 190.32 405 191 405C191.279 404.416 191.558 403.832 191.846 403.23C193.728 399.593 196.138 396.339 198.5 393C199.037 392.24 199.574 391.481 200.127 390.698C204.026 385.238 208.13 380.071 212.492 374.973C215.312 371.63 218.004 368.203 220.687 364.75C224.174 360.275 227.727 355.905 231.508 351.672C234.389 348.444 237.18 345.154 239.687 341.625C240.121 341.089 240.554 340.553 241 340C241.66 340 242.32 340 243 340C243.262 339.421 243.523 338.842 243.793 338.246C246.951 332.369 252.325 327.675 257 323C260.556 319.128 264.082 315.227 267.513 311.243C271.641 306.463 275.934 301.906 280.395 297.438C281.068 296.761 281.741 296.084 282.435 295.387C283.843 293.974 285.252 292.562 286.663 291.152C288.83 288.983 290.988 286.806 293.146 284.629C294.52 283.252 295.895 281.876 297.27 280.5C297.915 279.847 298.561 279.194 299.226 278.521C299.824 277.926 300.422 277.332 301.038 276.719C301.563 276.192 302.089 275.666 302.63 275.123C304 274 304 274 306 274C306 273.34 306 272.68 306 272C307.398 270.59 307.398 270.59 309.375 268.938C315.273 263.919 321.147 258.853 326.625 253.375C328.761 251.239 330.939 249.203 333.187 247.187C334.199 246.281 334.199 246.281 335.23 245.355C337 244 337 244 339 244C339.34 243.072 339.34 243.072 339.687 242.125C341.389 239.371 343.054 239.178 346 238C346.307 237.38 346.614 236.76 346.93 236.121C348.183 233.638 349.385 232.693 351.625 231.062C354.84 228.663 357.988 226.208 361.082 223.656C361.799 223.066 362.515 222.475 363.253 221.867C364.702 220.67 366.147 219.471 367.59 218.268C368.26 217.717 368.931 217.165 369.621 216.598C370.525 215.848 370.525 215.848 371.447 215.082C373 214 373 214 375 214C375.33 213.01 375.66 212.02 376 211C377.426 209.711 377.426 209.711 379.312 208.375C380.03 207.857 380.748 207.339 381.488 206.805C382.732 205.911 382.732 205.911 384 205C386.003 203.504 388.003 202.004 390 200.5C391.022 199.734 392.044 198.969 393.098 198.18C394.859 196.857 396.618 195.53 398.371 194.195C407.84 187 407.84 187 411 187C411 186.34 411 185.68 411 185C413.113 183.329 415.224 181.778 417.437 180.25C418.081 179.799 418.724 179.348 419.386 178.883C424.208 175.513 429.082 172.228 434 169C436.001 167.668 438.001 166.334 440 165C441.022 164.319 442.044 163.639 443.098 162.937C444.838 161.776 446.576 160.61 448.309 159.437C453.58 155.878 458.966 152.53 464.395 149.215C467.667 147.212 470.915 145.172 474.161 143.127C479.635 139.682 485.098 136.282 490.793 133.211C493.585 131.679 496.32 130.056 499.062 128.437C502.988 126.135 506.927 124.003 511.02 122.02C513.35 120.82 515.572 119.486 517.812 118.125C525.308 113.573 532.882 109.391 540.945 105.934C542.919 105.037 544.758 104.037 546.625 102.937C549.358 101.369 552.028 100.123 554.921 98.9036C559.084 97.0939 563.159 95.0899 567.25 93.125C577.937 88.0171 588.672 83.1153 599.574 78.4805C602.679 77.1389 605.747 75.7402 608.812 74.3125C612.761 72.4973 616.7 71.0452 620.84 69.7383C623.032 68.9892 625.086 68.0966 627.188 67.125C630.867 65.4397 634.594 64.0333 638.41 62.6875C640.266 62.0303 640.266 62.0303 642.159 61.3599C643.115 61.0222 643.115 61.0222 644.089 60.6778C647.11 59.6062 650.125 58.5173 653.141 57.4297C655.51 56.5781 657.88 55.7266 660.25 54.875C661.439 54.4457 662.627 54.0165 663.852 53.5742C669.845 51.4243 675.835 49.394 681.948 47.6128C684.348 46.8962 686.669 46.0394 689 45.125C696.083 42.5049 703.357 40.6092 710.642 38.6411C713.671 37.8177 716.693 36.9703 719.715 36.1226C742.439 29.757 765.349 23.4395 788.573 19.1951C793.155 18.3559 797.72 17.4532 802.284 16.5173C811.127 14.7083 819.975 13.1359 828.898 11.7851C832.598 11.2246 836.288 10.6207 839.977 9.99608C850.579 8.21373 861.116 6.65793 871.834 5.79101C877.914 5.2948 883.976 4.69562 890.039 4.02733C890.844 3.93868 891.65 3.85003 892.479 3.75869C895.733 3.3992 898.986 3.03806 902.238 2.67016C904.531 2.41098 906.824 2.15647 909.117 1.90233C910.103 1.78837 910.103 1.78837 911.108 1.67209C926.514 -0.0226252 941.898 -0.175975 957.379 -0.203134ZM888.849 187.408C885.709 187.796 882.569 188.165 879.425 188.514C870.623 189.493 861.945 190.798 853.25 192.5C846.62 193.779 840.005 195.022 833.324 196.004C827.648 196.856 822.127 198.041 816.562 199.437C810.808 200.861 805.054 202.208 799.25 203.414C791.896 204.974 784.675 206.909 777.438 208.937C775.621 209.439 775.621 209.439 773.768 209.951C766.785 211.892 759.842 213.935 752.922 216.091C749.953 217.015 746.977 217.915 744 218.812C738.017 220.656 732.068 222.597 726.125 224.562C725.233 224.856 724.341 225.149 723.422 225.45C718.499 227.089 713.77 228.952 709 231C707.563 231.495 706.121 231.976 704.676 232.445C699.758 234.047 694.979 235.933 690.188 237.875C689.311 238.229 688.434 238.582 687.531 238.947C685.798 239.647 684.065 240.349 682.333 241.053C680.377 241.847 678.417 242.635 676.457 243.422C670.444 245.868 664.674 248.632 658.895 251.586C655.369 253.308 651.768 254.723 648.109 256.133C645.568 257.178 643.331 258.551 641 260C639.886 260.474 638.773 260.949 637.625 261.438C634.548 262.764 631.812 264.197 628.969 265.938C626.692 267.166 624.331 268.13 621.949 269.134C618.459 270.685 615.114 272.507 611.75 274.312C611.005 274.71 610.26 275.107 609.492 275.517C603.642 278.642 597.811 281.803 592 285C591.224 285.418 590.448 285.835 589.648 286.266C585.006 288.786 580.633 291.549 576.266 294.52C573.308 296.452 570.249 298.149 567.141 299.824C562.378 302.44 557.815 305.37 553.25 308.312C552.637 308.707 552.023 309.101 551.392 309.508C547.12 312.261 542.881 315.058 538.672 317.906C537 319 537 319 535 320C535 320.66 535 321.32 535 322C534.004 322.329 534.004 322.329 532.988 322.664C529.021 324.438 525.705 326.842 522.188 329.375C521.446 329.904 520.704 330.434 519.939 330.979C506.601 340.541 493.587 350.468 481 361C480.201 361.645 479.402 362.289 478.578 362.953C472.799 367.622 467.25 372.46 461.793 377.5C457.997 380.898 454.031 384.046 450.02 387.188C449.353 387.786 448.687 388.384 448 389C448 389.66 448 390.32 448 391C447.459 391.227 446.917 391.454 446.359 391.688C443.258 393.413 440.873 395.613 438.25 398C437.49 398.677 437.49 398.677 436.715 399.367C435.435 400.534 434.212 401.763 433 403C433 403.66 433 404.32 433 405C432.163 405.362 432.163 405.362 431.309 405.73C428.511 407.269 426.415 409.156 424.062 411.312C423.228 412.072 422.394 412.831 421.535 413.613C417.21 417.685 413.117 421.916 409.125 426.312C405.301 430.513 401.435 434.668 397.531 438.795C390.315 446.433 383.313 454.219 376.508 462.226C375.497 463.415 374.484 464.601 373.469 465.786C372.036 467.457 370.61 469.133 369.187 470.812C367.971 472.245 367.971 472.245 366.73 473.707C364.799 475.787 364.799 475.787 365 478C364.01 478.33 363.02 478.66 362 479C361.05 480.392 360.108 481.79 359.215 483.219C357.887 485.166 356.406 486.826 354.812 488.562C351.123 492.667 348.066 497.107 345.021 501.696C342.201 505.899 342.201 505.899 340 507C339.319 508.392 339.319 508.392 338.625 509.812C337.003 512.993 335.493 514.507 333 517C331.49 519.128 330.071 521.305 328.648 523.492C326.386 526.934 323.999 530.284 321.613 533.641C318.31 537.965 318.31 537.965 317 543C316.34 543 315.68 543 315 543C313.755 544.781 312.607 546.63 311.5 548.5C310.781 549.701 310.061 550.902 309.34 552.102C308.959 552.739 308.579 553.376 308.187 554.032C306.191 557.342 304.122 560.605 302.062 563.875C297.969 570.402 293.972 576.983 290.027 583.602C288.302 586.493 286.56 589.372 284.812 592.25C279.379 601.326 274.589 610.706 269.9 620.184C268.4 623.21 266.887 626.23 265.375 629.25C264.799 630.402 264.223 631.555 263.629 632.742C262.19 635.62 260.751 638.497 259.312 641.375C258.918 642.166 258.524 642.958 258.117 643.773C257.402 645.2 256.678 646.622 255.945 648.039C254.175 651.483 252.595 654.935 251.187 658.543C248.947 664.194 246.512 669.75 244.062 675.312C240.498 683.472 237.054 691.634 234 700C233.414 701.586 232.828 703.172 232.242 704.758C228.469 715.015 224.8 725.31 221.187 735.625C220.815 736.678 220.442 737.732 220.058 738.817C217.941 744.902 216.162 750.973 214.698 757.249C213.963 760.144 213.048 762.93 212.062 765.75C209.979 771.817 208.446 777.96 206.937 784.188C206.163 787.335 205.328 790.447 204.437 793.562C202.967 798.878 201.927 804.247 200.883 809.66C200.068 813.774 199.117 817.851 198.159 821.934C195.967 831.297 194.146 840.617 192.746 850.129C192.242 853.526 191.665 856.901 191.035 860.277C188.389 874.507 186.724 888.724 185.368 903.131C184.987 907.136 184.587 911.138 184.184 915.141C183.979 917.185 183.775 919.229 183.572 921.273C183.383 923.168 183.192 925.062 183.002 926.957C181.508 942.268 180.839 957.484 180.832 972.859C180.829 974.54 180.825 976.221 180.822 977.901C180.816 981.411 180.814 984.92 180.815 988.43C180.815 991.941 180.808 995.452 180.794 998.963C180.672 1030.56 181.64 1062 185 1093.44C185.27 1096.05 185.537 1098.66 185.804 1101.27C185.976 1102.95 186.149 1104.62 186.323 1106.3C186.868 1111.58 187.329 1116.86 187.738 1122.15C188.781 1135.43 191.131 1148.49 193.421 1161.61C194.053 1165.31 194.619 1169.02 195.166 1172.74C196.703 1183.14 199.023 1193.32 201.433 1203.55C202.197 1206.85 202.881 1210.17 203.562 1213.5C204.789 1219.31 206.365 1224.97 208.043 1230.66C208.885 1233.6 209.619 1236.53 210.312 1239.5C212.443 1248.2 215.345 1256.67 218.099 1265.18C218.958 1267.87 219.791 1270.56 220.613 1273.26C222.958 1280.93 225.358 1288.31 228.855 1295.55C230.036 1298.08 231.003 1300.62 231.937 1303.25C236.952 1317.48 236.952 1317.48 243.824 1330.88C245.115 1333.21 246.132 1335.62 247.163 1338.07C248.646 1341.49 250.328 1344.8 252 1348.12C252.514 1349.16 252.514 1349.16 253.039 1350.21C254.89 1353.91 256.865 1357.46 259 1361C259.709 1362.71 260.417 1364.41 261.125 1366.12C262.407 1368.87 264.043 1371.36 265.687 1373.91C267.004 1376.01 268.196 1378.14 269.375 1380.31C271.812 1384.76 274.514 1389.01 277.262 1393.27C278.816 1395.71 280.292 1398.18 281.75 1400.69C288.793 1412.48 297.033 1423.53 305.228 1434.53C307.636 1437.76 310.025 1440.98 312.223 1444.37C313.711 1446.57 315.073 1448.21 317 1450C318.221 1451.32 319.429 1452.66 320.625 1454C321.236 1454.68 321.847 1455.36 322.477 1456.06C324 1458 324 1458 325 1461C326.104 1462.14 327.216 1463.27 328.359 1464.37C334.7 1470.67 340.381 1477.59 345.957 1484.55C347.875 1486.85 349.778 1489 352 1491C352.66 1491 353.32 1491 354 1491C354.362 1491.84 354.362 1491.84 354.73 1492.69C358.72 1499.95 366.073 1506.94 372.562 1512C375.145 1514.12 376.949 1516.37 379 1519C382.328 1522.42 385.777 1525.67 389.312 1528.88C390.759 1530.19 390.759 1530.19 392.234 1531.52C394.489 1533.54 396.765 1535.53 399.062 1537.5C403.016 1540.93 406.664 1544.63 410.312 1548.38C413.088 1551.09 415.973 1553.62 418.903 1556.16C422.305 1559.15 425.585 1562.26 428.875 1565.38C434.217 1570.41 439.593 1575.39 445.082 1580.27C445.715 1580.84 446.348 1581.41 447 1582C447.79 1582.65 447.79 1582.65 448.596 1583.31C450.459 1585.55 450.378 1586.86 450.385 1589.76C450.394 1590.74 450.404 1591.73 450.413 1592.74C450.409 1593.83 450.404 1594.91 450.399 1596.03C450.409 1597.75 450.409 1597.75 450.419 1599.51C450.434 1602.71 450.436 1605.91 450.433 1609.1C450.432 1612.55 450.449 1616 450.463 1619.44C450.486 1625.41 450.498 1631.39 450.502 1637.36C450.509 1645.99 450.532 1654.63 450.559 1663.26C450.602 1677.27 450.632 1691.27 450.654 1705.28C450.675 1718.89 450.702 1732.5 450.738 1746.11C450.74 1746.95 450.742 1747.79 450.744 1748.65C450.755 1752.86 450.766 1757.06 450.778 1761.27C450.871 1796.18 450.943 1831.09 451 1866C455.225 1864.34 459.266 1862.42 463.312 1860.38C464.746 1859.65 466.18 1858.93 467.613 1858.21C468.342 1857.84 469.072 1857.48 469.823 1857.1C473.211 1855.39 476.606 1853.7 480 1852C481.333 1851.33 482.667 1850.67 484 1850C486.667 1848.67 489.333 1847.33 492 1846C492.66 1845.67 493.319 1845.34 493.999 1845C495.336 1844.33 496.673 1843.66 498.011 1843C501.285 1841.36 504.557 1839.72 507.824 1838.07C515.273 1834.32 522.767 1830.68 530.312 1827.12C538.041 1823.48 545.637 1819.63 553.18 1815.61C560.084 1811.94 567.061 1808.43 574.07 1804.96C575.988 1804.01 577.901 1803.04 579.812 1802.08C587.264 1798.32 594.763 1794.68 602.312 1791.12C610.041 1787.48 617.637 1783.63 625.18 1779.61C632.084 1775.94 639.061 1772.43 646.07 1768.96C647.988 1768.01 649.901 1767.04 651.812 1766.08C660.141 1761.88 668.532 1757.83 676.98 1753.88C681.5 1751.74 685.94 1749.52 690.316 1747.11C691.167 1746.64 692.018 1746.17 692.895 1745.69C694.505 1744.8 696.106 1743.89 697.697 1742.96C704.045 1739.44 707.745 1740.11 714.727 1742.02C716.028 1742.42 717.328 1742.83 718.625 1743.25C719.321 1743.47 720.017 1743.69 720.734 1743.92C726.197 1745.68 731.528 1747.71 736.867 1749.82C742.161 1751.82 747.579 1753.39 753 1755C760.572 1757.28 768.086 1759.57 775.438 1762.5C780.996 1764.7 786.602 1766.41 792.343 1768.05C797.694 1769.59 802.976 1771.28 808.25 1773.06C819.995 1777.02 831.74 1780.55 843.788 1783.46C845.378 1783.85 846.965 1784.25 848.55 1784.67C857.486 1786.98 866.493 1788.8 875.562 1790.5C876.791 1790.73 876.791 1790.73 878.044 1790.97C895.617 1794.22 913.177 1795.89 931 1797C932.013 1797.07 932.013 1797.07 933.047 1797.13C968.776 1799.44 1004.26 1798.98 1040 1797C1040.92 1796.95 1041.84 1796.9 1042.79 1796.85C1066.34 1795.57 1089.42 1792.91 1112.69 1789.03C1118.73 1788.03 1124.8 1787.18 1130.87 1786.38C1138.4 1785.35 1145.7 1783.8 1153.07 1781.96C1156.63 1781.07 1160.2 1780.36 1163.81 1779.69C1180.3 1776.46 1196.7 1772.27 1212.67 1767.05C1215.86 1766.04 1219.05 1765.21 1222.31 1764.44C1227.09 1763.29 1231.59 1761.76 1236.18 1760.03C1239.13 1758.95 1242.11 1758.03 1245.12 1757.12C1255.85 1753.88 1266.48 1750.17 1276.82 1745.86C1278.48 1745.21 1280.16 1744.62 1281.85 1744.07C1285.24 1742.92 1288.47 1741.56 1291.75 1740.12C1295.86 1738.34 1299.96 1736.59 1304.12 1734.94C1316.22 1730.15 1316.22 1730.15 1327.77 1724.19C1331 1722.47 1334.37 1721.21 1337.79 1719.9C1340.37 1718.85 1342.63 1717.47 1345 1716C1346.02 1715.57 1347.04 1715.14 1348.09 1714.7C1352.5 1712.83 1356.71 1710.62 1360.94 1708.38C1361.76 1707.94 1362.59 1707.5 1363.44 1707.06C1369.57 1703.8 1375.65 1700.44 1381.66 1696.96C1385.67 1694.65 1389.72 1692.75 1394 1691C1394 1690.34 1394 1689.68 1394 1689C1394.64 1688.77 1395.28 1688.55 1395.94 1688.31C1404.06 1684.83 1411.46 1679.89 1418.87 1675.12C1420.73 1673.94 1422.58 1672.76 1424.43 1671.57C1425.34 1670.98 1426.26 1670.4 1427.2 1669.79C1429.11 1668.57 1431.02 1667.35 1432.94 1666.14C1437.66 1663.17 1442.29 1660.17 1446.75 1656.81C1450.71 1653.89 1454.66 1651.32 1459 1649C1459 1648.34 1459 1647.68 1459 1647C1459.73 1646.75 1460.45 1646.49 1461.2 1646.23C1464.2 1644.91 1466.3 1643.35 1468.81 1641.25C1474.2 1636.83 1479.61 1632.49 1485.5 1628.75C1486.32 1628.17 1487.15 1627.6 1488 1627C1488 1626.34 1488 1625.68 1488 1625C1488.57 1624.74 1489.13 1624.49 1489.71 1624.22C1492.26 1622.86 1494.32 1621.26 1496.56 1619.44C1497.44 1618.73 1498.31 1618.02 1499.21 1617.29C1500.59 1616.15 1500.59 1616.15 1502 1615C1502.94 1614.24 1503.88 1613.47 1504.85 1612.68C1514 1605.36 1514 1605.36 1522.56 1597.38C1525 1595 1525 1595 1528.06 1593C1531.13 1590.91 1532.71 1588.89 1535 1586C1536.91 1584.25 1538.89 1582.57 1540.86 1580.89C1543 1579 1545 1577.03 1547 1575C1549.56 1572.4 1552.17 1569.94 1554.94 1567.56C1561.16 1562.2 1566.96 1556.49 1572 1550C1574.18 1547.77 1576.4 1545.59 1578.63 1543.41C1582.23 1539.86 1585.62 1536.19 1588.92 1532.36C1591.03 1529.97 1593.19 1527.64 1595.37 1525.31C1605.5 1516.08 1605.5 1516.08 1611 1505C1611.99 1504.67 1612.98 1504.34 1614 1504C1615.53 1502.4 1615.53 1502.4 1616.96 1500.39C1617.52 1499.66 1618.07 1498.92 1618.64 1498.16C1619.21 1497.39 1619.79 1496.61 1620.37 1495.81C1621.51 1494.3 1622.64 1492.78 1623.77 1491.27C1624.32 1490.54 1624.86 1489.81 1625.42 1489.06C1626.85 1487.2 1628.32 1485.41 1629.84 1483.62C1632.11 1481.14 1632.11 1481.14 1633.12 1478.19C1633.41 1477.47 1633.7 1476.74 1634 1476C1634.99 1475.67 1635.98 1475.34 1637 1475C1638.32 1473.53 1638.32 1473.53 1639.49 1471.68C1639.94 1471.01 1640.4 1470.33 1640.87 1469.63C1641.35 1468.91 1641.82 1468.18 1642.31 1467.44C1643.3 1465.97 1644.29 1464.5 1645.27 1463.04C1645.74 1462.33 1646.22 1461.63 1646.7 1460.91C1648.6 1458.12 1650.61 1455.43 1652.68 1452.77C1654.56 1450.25 1656.27 1447.62 1658 1445C1658.63 1444.07 1659.25 1443.14 1659.89 1442.18C1663.77 1436.39 1667.58 1430.58 1671.29 1424.7C1672.41 1422.93 1673.54 1421.16 1674.68 1419.39C1683.04 1406.37 1691.51 1393.03 1698.41 1379.16C1700.07 1375.86 1701.86 1372.65 1703.67 1369.43C1709.52 1358.97 1714.78 1348.31 1719.83 1337.45C1721.46 1334.03 1723.17 1330.65 1724.89 1327.27C1726.35 1324.27 1727.56 1321.21 1728.77 1318.1C1730.45 1313.87 1732.23 1309.69 1734 1305.5C1738.06 1295.89 1741.94 1286.23 1745.57 1276.45C1746.95 1272.76 1748.35 1269.09 1749.8 1265.43C1750.1 1264.66 1750.41 1263.89 1750.72 1263.09C1751.3 1261.64 1751.88 1260.18 1752.46 1258.73C1754.58 1253.38 1756.29 1247.95 1757.96 1242.45C1758.99 1239.02 1760.07 1235.61 1761.15 1232.2C1768.62 1208.53 1774.66 1184.66 1780.2 1160.48C1780.73 1158.16 1781.27 1155.84 1781.82 1153.52C1783.26 1147.43 1784.52 1141.38 1785.44 1135.19C1786.2 1130.05 1787 1124.92 1787.92 1119.81C1790.56 1104.92 1792.34 1090.02 1793.81 1074.97C1794.19 1071.11 1794.58 1067.24 1794.97 1063.38C1797.24 1040.9 1798.19 1018.74 1798.19 996.147C1798.19 993.28 1798.19 990.414 1798.21 987.548C1798.33 960.981 1797.18 934.65 1794 908.25C1793.73 905.946 1793.46 903.643 1793.2 901.339C1793.02 899.86 1792.85 898.381 1792.68 896.902C1792.14 892.31 1791.68 887.717 1791.26 883.112C1790.28 872.458 1788.24 862.027 1786.22 851.527C1785.18 846.055 1784.3 840.575 1783.5 835.062C1782.27 826.78 1780.3 818.76 1778.19 810.664C1777.15 806.649 1776.26 802.629 1775.44 798.562C1774.29 793.039 1772.74 787.745 1771.02 782.375C1769.94 778.815 1769.05 775.242 1768.19 771.625C1763.31 751.474 1756.81 731.436 1749.21 712.145C1747.91 708.764 1746.7 705.357 1745.5 701.938C1743.22 695.52 1740.67 689.262 1738 683C1737.02 680.667 1736.03 678.333 1735.05 675.999C1734.35 674.334 1733.65 672.669 1732.95 671.005C1731.06 666.535 1729.21 662.055 1727.37 657.562C1724.04 649.556 1720.07 641.898 1715.87 634.312C1714.16 631.21 1712.57 628.136 1711.19 624.875C1706.91 614.922 1701.41 605.392 1696.1 595.961C1695.34 594.597 1694.58 593.227 1693.84 591.852C1691.02 586.673 1687.94 581.709 1684.75 576.754C1683.12 574.194 1681.55 571.609 1680 569C1677.38 564.605 1674.67 560.279 1671.91 555.973C1670.57 553.881 1669.23 551.784 1667.91 549.684C1662.91 541.793 1657.63 534.163 1652.15 526.6C1650.45 524.232 1648.79 521.835 1647.12 519.438C1645.36 516.894 1643.58 514.475 1641.62 512.062C1640 510 1640 510 1639 507C1638.34 507 1637.68 507 1637 507C1636.75 506.459 1636.5 505.917 1636.25 505.359C1634.72 502.472 1632.91 499.902 1631 497.25C1630.3 496.265 1629.6 495.28 1628.87 494.266C1628.26 493.518 1627.64 492.77 1627 492C1626.34 492 1625.68 492 1625 492C1624.89 491.403 1624.77 490.806 1624.66 490.191C1623.77 487.223 1621.9 485.38 1619.86 483.105C1617.75 480.712 1615.75 478.238 1613.75 475.75C1609.81 470.911 1605.67 466.309 1601.43 461.727C1598.3 458.22 1595.43 454.543 1592.59 450.801C1591.8 449.909 1591.8 449.909 1591 449C1590.34 449 1589.68 449 1589 449C1588.77 448.452 1588.54 447.904 1588.3 447.34C1586.63 444.338 1584.52 442.083 1582.19 439.562C1580.91 438.172 1580.91 438.172 1579.61 436.754C1577.11 434.121 1574.57 431.561 1572 429C1570.61 427.592 1569.22 426.184 1567.83 424.774C1565.71 422.636 1563.6 420.502 1561.48 418.369C1560.36 417.241 1559.24 416.111 1558.13 414.979C1556.51 413.34 1554.89 411.706 1553.27 410.074C1552.77 409.565 1552.27 409.056 1551.76 408.531C1550.54 407.315 1549.28 406.152 1548 405C1547.34 405 1546.68 405 1546 405C1545.77 404.423 1545.55 403.845 1545.31 403.25C1543.65 400.404 1541.61 399.002 1539 397C1538.13 396.113 1537.27 395.226 1536.37 394.312C1534.15 391.807 1534.15 391.807 1531 391C1530.71 390.406 1530.42 389.811 1530.12 389.199C1528.62 386.249 1526.61 384.845 1524 382.812C1520.2 379.791 1516.52 376.717 1512.94 373.438C1508.93 369.793 1504.81 366.374 1500.55 363.023C1497.9 360.924 1495.29 358.779 1492.69 356.625C1483.99 349.494 1475.02 342.717 1466 336C1465.33 335.452 1464.66 334.904 1463.97 334.34C1461.98 332.719 1461.98 332.719 1459 333C1459 332.34 1459 331.68 1459 331C1457.15 329.639 1455.25 328.361 1453.31 327.125C1449.36 324.586 1445.66 321.948 1442 319C1440.39 318.082 1438.78 317.165 1437.16 316.27C1431.57 312.986 1426.08 309.344 1420.91 305.41C1418.87 303.907 1416.79 302.705 1414.56 301.5C1410.54 299.318 1406.63 296.986 1402.72 294.616C1396.5 290.859 1390.21 287.248 1383.87 283.688C1382.88 283.125 1381.88 282.562 1380.85 281.983C1378.84 280.852 1376.83 279.722 1374.82 278.592C1372.28 277.156 1369.73 275.711 1367.2 274.262C1366.48 273.854 1365.76 273.447 1365.02 273.027C1363.73 272.288 1362.43 271.548 1361.14 270.803C1357.18 268.56 1353.18 266.764 1349 265C1347.32 264.016 1345.63 263.031 1343.96 262.039C1340.84 260.386 1337.56 259.201 1334.27 257.934C1331.67 256.865 1329.41 255.446 1327 254C1324.66 253.005 1322.3 252.086 1319.94 251.164C1312.36 248.16 1304.88 244.895 1297.5 241.437C1291.16 238.523 1284.59 236.29 1278 234C1274.18 232.626 1270.4 231.164 1266.64 229.625C1258.53 226.305 1250.42 223.479 1242 221C1239.46 220.213 1236.92 219.422 1234.37 218.625C1233.71 218.418 1233.05 218.211 1232.36 217.998C1228.68 216.847 1225 215.678 1221.32 214.488C1213.08 211.83 1204.85 209.351 1196.43 207.33C1192.9 206.485 1189.45 205.55 1186 204.437C1181.2 202.946 1176.31 202.074 1171.37 201.195C1166.41 200.3 1161.52 199.203 1156.62 198C1150.18 196.436 1143.74 195.195 1137.2 194.168C1133.18 193.537 1129.18 192.858 1125.19 192.088C1110.92 189.341 1096.63 187.458 1082.19 185.875C1080.44 185.682 1080.44 185.682 1078.65 185.485C1070.77 184.62 1062.89 183.791 1055 183C1054.19 182.918 1053.37 182.837 1052.54 182.753C998.25 177.408 942.812 180.718 888.849 187.408Z" fill="#0E0E0E"/>
<path d="M664 453C664.985 453.339 665.97 453.678 666.984 454.027C680.148 459.026 694.018 466.993 704 477C705.243 478.092 706.493 479.174 707.75 480.25C711.102 483.165 714.283 486.191 717.391 489.363C718.427 490.418 719.479 491.458 720.547 492.481C721.734 493.617 722.873 494.804 724 496C724 496.66 724 497.32 724 498C724.562 498.217 725.124 498.433 725.703 498.656C728.77 500.451 730.527 502.739 732.75 505.5C733.549 506.48 734.348 507.459 735.172 508.469C737 511 737 511 737 513C737.99 513.33 738.98 513.66 740 514C741.662 515.949 743.184 517.874 744.688 519.938C745.103 520.489 745.519 521.04 745.947 521.607C749 525.733 749 525.733 749 528C749.66 528 750.32 528 751 528C752.156 529.441 752.156 529.441 753.5 531.563C754.289 532.787 754.289 532.787 755.094 534.035C755.723 535.014 756.352 535.992 757 537C758.658 539.506 760.33 542.003 762 544.5C762.867 545.802 763.735 547.104 764.602 548.406C766.007 550.515 767.418 552.619 768.836 554.719C771.345 558.437 773.706 562.164 775.891 566.086C777.254 568.438 778.717 570.714 780.188 573C788.684 586.272 797.004 599.875 804 614C807.037 619.742 810.212 625.398 813.5 631C817.379 637.61 821.038 644.326 824.648 651.086C825.503 652.683 825.503 652.683 826.375 654.313C826.959 655.406 827.543 656.499 828.145 657.625C829.717 660.485 831.36 663.287 833.037 666.086C846.498 688.748 850.509 715.177 845 741C843.594 745.462 841.879 749.719 840 754C839.468 755.303 839.468 755.303 838.926 756.633C837.102 761.001 835.113 764.385 832 768C831.319 769.16 831.319 769.16 830.625 770.344C828.965 773.058 827.155 775.356 825.062 777.75C824.059 778.918 824.059 778.918 823.035 780.109C820.883 782.108 819.762 782.356 817 783C816.67 783.99 816.34 784.98 816 786C813.97 787.714 811.949 789.306 809.812 790.875C808.672 791.725 807.533 792.577 806.395 793.43C805.832 793.848 805.27 794.267 804.69 794.698C802.975 796.019 801.338 797.407 799.699 798.82C797 801 797 801 795 801C795 801.66 795 802.32 795 803C793.461 804.332 793.461 804.332 791.375 805.813C784.77 810.454 784.77 810.454 779.312 816.313C778.879 816.869 778.446 817.426 778 818C777.01 818 776.02 818 775 818C774.796 818.527 774.593 819.054 774.383 819.598C772.396 823.049 769.65 825.605 766.875 828.438C760.802 834.801 756.22 841.248 752 849C751.571 849.773 751.141 850.547 750.699 851.344C746.101 860.039 744.338 869.055 746.652 878.727C751.801 893.709 760.323 907.167 769.684 919.824C771.496 922.31 773.275 924.81 775.035 927.332C775.566 928.092 776.097 928.852 776.644 929.634C777.695 931.142 778.743 932.651 779.788 934.163C782.313 937.776 784.858 940.894 788 944C788.33 944.99 788.66 945.98 789 947C790.64 948.693 792.312 950.355 794 952C795.983 954.191 797.898 956.437 799.812 958.688C800.336 959.3 800.859 959.912 801.398 960.543C805.127 964.922 808.749 969.375 812.281 973.914C814.071 976.087 815.999 978.022 818 980C819.731 981.948 821.426 983.924 823.121 985.902C824.5 987.442 825.939 988.927 827.41 990.379C831.045 994.057 834.232 998.06 837.5 1002.06C839.884 1004.86 842.368 1007.43 845 1010C848.45 1013.41 851.754 1016.9 855 1020.5C859.793 1025.8 864.793 1030.85 869.936 1035.81C871.326 1037.17 872.668 1038.58 874 1040C874 1040.66 874 1041.32 874 1042C874.598 1042.27 875.196 1042.54 875.812 1042.81C877.998 1044 879.413 1045.1 881 1047C881 1047.66 881 1048.32 881 1049C881.812 1049.32 881.812 1049.32 882.641 1049.66C885.816 1051.47 888.207 1053.92 890.75 1056.5C891.257 1057 891.763 1057.5 892.285 1058.01C896 1061.75 896 1061.75 896 1064C896.598 1064.27 897.196 1064.54 897.812 1064.81C899.998 1066 901.413 1067.1 903 1069C903 1069.66 903 1070.32 903 1071C903.598 1071.27 904.196 1071.54 904.812 1071.81C906.998 1073 908.413 1074.1 910 1076C910 1076.66 910 1077.32 910 1078C910.588 1078.26 911.176 1078.52 911.781 1078.79C914.155 1080.08 915.646 1081.48 917.5 1083.44C919.431 1085.44 921.198 1087.15 923.438 1088.81C924.211 1089.4 924.211 1089.4 925 1090C925 1090.66 925 1091.32 925 1092C925.598 1092.27 926.196 1092.54 926.812 1092.81C928.998 1094 930.413 1095.1 932 1097C932 1097.66 932 1098.32 932 1099C932.743 1099.23 933.485 1099.45 934.25 1099.69C937 1101 937 1101 938.828 1103.3C941.148 1106.18 943.587 1108.23 946.5 1110.5C950.229 1113.41 953.106 1116.27 956 1120C957.153 1121.12 958.341 1122.21 959.562 1123.25C960.244 1123.84 960.926 1124.42 961.629 1125.03C965.329 1128.11 969.097 1131.1 972.875 1134.08C973.576 1134.72 974.277 1135.35 975 1136C975 1136.66 975 1137.32 975 1138C975.888 1138.41 975.888 1138.41 976.793 1138.83C978.918 1139.96 980.51 1141.14 982.312 1142.71C982.913 1143.24 983.514 1143.76 984.133 1144.29C984.749 1144.84 985.365 1145.38 986 1145.94C987.228 1147.01 988.457 1148.08 989.688 1149.15C990.26 1149.65 990.832 1150.15 991.422 1150.67C992.712 1151.76 994.067 1152.77 995.438 1153.75C995.953 1154.17 996.469 1154.58 997 1155C997 1155.66 997 1156.32 997 1157C997.784 1157.25 998.567 1157.5 999.375 1157.75C1002.46 1159.22 1002.54 1160.07 1004 1163C1004.7 1163.27 1005.4 1163.54 1006.12 1163.81C1009.85 1165.35 1012.28 1167.73 1015.23 1170.44C1016.93 1172.07 1016.93 1172.07 1019 1173C1019 1173.66 1019 1174.32 1019 1175C1019.58 1175.27 1020.15 1175.53 1020.75 1175.81C1023.07 1177.04 1024.99 1178.42 1027.05 1180.05C1027.81 1180.65 1028.57 1181.24 1029.36 1181.86C1030.15 1182.48 1030.94 1183.11 1031.75 1183.75C1048.32 1196.79 1065.23 1209.48 1083.03 1220.8C1085.98 1222.68 1088.88 1224.59 1091.69 1226.69C1102.2 1234.42 1112.85 1238.42 1126 1236.56C1141.67 1232.75 1153.54 1219.19 1163 1207C1163.63 1206.2 1164.26 1205.4 1164.91 1204.58C1166.62 1202.4 1168.31 1200.2 1170 1198C1170.47 1197.4 1170.93 1196.81 1171.41 1196.19C1174.78 1191.82 1177.84 1187.28 1180.88 1182.69C1198.73 1155.8 1198.73 1155.8 1211 1147C1211.66 1147 1212.32 1147 1213 1147C1213 1146.34 1213 1145.68 1213 1145C1214.85 1144.06 1216.71 1143.12 1218.56 1142.19C1219.6 1141.67 1220.63 1141.14 1221.69 1140.61C1223.33 1139.81 1223.33 1139.81 1225 1139C1226.06 1138.48 1227.11 1137.97 1228.2 1137.44C1233.02 1135.41 1238.12 1134.67 1243.25 1133.81C1244.22 1133.64 1245.2 1133.46 1246.2 1133.28C1257.79 1131.28 1268.45 1132 1280 1134C1281.02 1134.16 1282.03 1134.32 1283.08 1134.48C1294.67 1136.68 1307.62 1141.73 1317 1149C1318.36 1149.8 1319.74 1150.57 1321.12 1151.31C1328.48 1155.34 1335.59 1159.68 1342.54 1164.38C1345.39 1166.25 1348.28 1168.03 1351.19 1169.81C1361.14 1175.91 1370.94 1182.1 1380.31 1189.08C1384.08 1191.77 1388.01 1194.17 1391.98 1196.55C1392.65 1197.03 1393.31 1197.51 1394 1198C1394 1198.66 1394 1199.32 1394 1200C1394.8 1200.19 1395.61 1200.37 1396.44 1200.56C1400.39 1202.16 1403.01 1204.19 1406.29 1206.86C1410.15 1209.91 1414.18 1212.72 1418.21 1215.54C1422.69 1218.69 1422.69 1218.69 1424.6 1220.61C1426.01 1222.12 1426.01 1222.12 1428.12 1223.25C1432.38 1225.84 1436.21 1228.97 1440.12 1232.06C1441.73 1233.33 1443.34 1234.59 1444.95 1235.85C1445.65 1236.4 1446.36 1236.96 1447.09 1237.54C1448.68 1238.75 1450.33 1239.89 1452 1241C1452 1241.66 1452 1242.32 1452 1243C1452.72 1243.25 1453.44 1243.49 1454.18 1243.75C1457.33 1245.14 1459.5 1246.84 1462.12 1249.06C1463.08 1249.87 1464.04 1250.67 1465.03 1251.5C1466.01 1252.32 1466.99 1253.15 1468 1254C1469.87 1255.55 1471.75 1257.09 1473.62 1258.63C1474.52 1259.36 1475.42 1260.1 1476.35 1260.86C1479.57 1263.46 1482.83 1265.99 1486.12 1268.49C1488.73 1270.59 1490.95 1272.95 1493.25 1275.38C1495.41 1277.44 1497.38 1279.02 1499.81 1280.69C1500.86 1281.45 1501.92 1282.21 1503 1283C1503 1283.66 1503 1284.32 1503 1285C1503.56 1285.23 1504.12 1285.45 1504.69 1285.68C1512.45 1290.11 1518.28 1299.09 1522 1307C1522.52 1307.99 1522.52 1307.99 1523.04 1309C1532.2 1327.55 1532.11 1347.62 1526 1367C1525.58 1368.41 1525.58 1368.41 1525.16 1369.84C1520.59 1383.85 1512.3 1396.98 1503.69 1408.81C1503.13 1409.58 1502.58 1410.35 1502 1411.14C1500.34 1413.43 1498.67 1415.72 1497 1418C1496.44 1418.77 1495.89 1419.53 1495.31 1420.32C1494.78 1421.04 1494.25 1421.77 1493.71 1422.51C1493 1423.48 1493 1423.48 1492.27 1424.48C1491 1426 1491 1426 1489 1427C1488.57 1427.74 1488.13 1428.49 1487.69 1429.25C1485.79 1432.34 1483.62 1434.5 1481 1437C1478.35 1439.58 1475.87 1442.15 1473.5 1445C1469.41 1449.91 1464.9 1453.92 1460 1458C1458.33 1459.66 1456.66 1461.33 1455 1463C1448.31 1469.42 1441.59 1475.65 1434 1481C1432.1 1482.4 1430.21 1483.79 1428.31 1485.19C1419.03 1492 1419.03 1492 1416 1492C1416 1492.66 1416 1493.32 1416 1494C1414.37 1495.22 1414.37 1495.22 1412.08 1496.57C1411.25 1497.07 1410.41 1497.57 1409.55 1498.09C1408.65 1498.62 1407.74 1499.14 1406.81 1499.69C1405.9 1500.23 1404.99 1500.77 1404.05 1501.32C1385.13 1512.44 1385.13 1512.44 1375.41 1516.08C1373.55 1516.79 1371.72 1517.59 1369.9 1518.41C1365.08 1520.49 1360.05 1521.77 1355 1523.12C1354.04 1523.39 1353.08 1523.65 1352.09 1523.93C1330.32 1529.82 1306.44 1528.97 1285.16 1521.71C1282.25 1520.75 1279.3 1520.06 1276.31 1519.38C1271.7 1518.25 1267.34 1516.71 1262.9 1515.03C1259.7 1513.89 1256.47 1512.97 1253.19 1512.06C1243.43 1509.33 1234.04 1505.93 1224.75 1501.88C1220.06 1499.82 1215.47 1498.15 1210.55 1496.77C1201.79 1494.13 1193.49 1490.35 1185.23 1486.46C1182.12 1485.06 1179 1483.82 1175.81 1482.62C1169.58 1480.29 1163.53 1477.61 1157.46 1474.88C1153.49 1473.09 1149.51 1471.37 1145.44 1469.81C1141.44 1468.26 1137.8 1466.3 1134.09 1464.16C1131.16 1462.54 1128.08 1461.31 1125 1460C1123.23 1459.02 1121.49 1458 1119.75 1456.97C1117.75 1455.82 1117.75 1455.82 1114.5 1454.5C1111.99 1453.42 1109.83 1452.37 1107.5 1451C1104.73 1449.37 1101.91 1448.07 1098.93 1446.84C1092.03 1443.85 1085.44 1440.17 1078.86 1436.54C1075.89 1434.94 1072.89 1433.43 1069.88 1431.94C1064.83 1429.43 1059.89 1426.79 1055 1424C1053.48 1423.14 1053.48 1423.14 1051.93 1422.26C1043.92 1417.71 1035.97 1413.06 1028.04 1408.38C1024.62 1406.36 1021.19 1404.37 1017.75 1402.38C1012.6 1399.38 1007.53 1396.26 1002.46 1393.13C998.596 1390.74 994.706 1388.4 990.812 1386.06C990.164 1385.67 989.516 1385.28 988.848 1384.88C985.473 1382.85 985.473 1382.85 982 1381C982 1380.34 982 1379.68 982 1379C980.896 1378.59 980.896 1378.59 979.77 1378.18C977.14 1377.06 975.029 1375.81 972.688 1374.19C969.923 1372.3 967.158 1370.45 964.312 1368.69C963.68 1368.29 963.047 1367.9 962.395 1367.49C961.026 1366.64 959.657 1365.79 958.287 1364.94C956.353 1363.74 954.426 1362.53 952.5 1361.31C951.864 1360.92 951.227 1360.53 950.572 1360.12C949.013 1359.13 947.501 1358.07 946 1357C946 1356.34 946 1355.68 946 1355C945.196 1354.81 944.391 1354.63 943.562 1354.44C939.526 1352.81 936.784 1350.65 933.426 1347.93C930.271 1345.42 926.976 1343.15 923.652 1340.87C920.043 1338.32 916.527 1335.66 913 1333C911.679 1332.01 910.357 1331.02 909.035 1330.04C901.973 1324.75 894.934 1319.45 888 1314C886.584 1312.89 885.167 1311.79 883.75 1310.69C883.01 1310.11 882.27 1309.54 881.508 1308.94C879.111 1307.09 876.703 1305.24 874.294 1303.4C865.96 1297.02 857.797 1290.46 849.863 1283.58C847.503 1281.58 845.094 1279.64 842.688 1277.69C838.176 1274.01 833.848 1270.19 829.551 1266.27C825.983 1263.1 822.273 1260.12 818.543 1257.14C815.87 1254.89 813.455 1252.49 811 1250C809.021 1248.12 807.012 1246.28 805 1244.44C804.492 1243.97 803.984 1243.5 803.461 1243.02C800.401 1240.21 797.248 1237.58 794 1235C792.333 1233.33 790.667 1231.67 789 1230C787.484 1228.66 785.963 1227.33 784.438 1226C781.252 1223.19 778.567 1220.39 776 1217C773.446 1214.31 770.85 1211.87 768 1209.5C763.335 1205.61 759.387 1201.31 755.473 1196.7C752.753 1193.56 749.927 1190.71 746.625 1188.19C743.676 1185.73 741.312 1183.03 738.844 1180.1C736.666 1177.62 734.338 1175.33 732 1173C726.282 1166.93 720.883 1160.69 715.727 1154.13C713.648 1151.57 711.364 1149.31 709 1147C705.959 1143.7 702.972 1140.36 700 1137C699.442 1136.37 698.884 1135.74 698.309 1135.09C695 1131.25 695 1131.25 695 1129C694.34 1129 693.68 1129 693 1129C691.657 1127.01 690.324 1125.01 689 1123C688.01 1122.34 687.02 1121.68 686 1121C684.986 1119.34 683.989 1117.67 683 1116C682.12 1114.92 681.223 1113.86 680.312 1112.81C678 1110 678 1110 678 1108C677.14 1107.67 677.14 1107.67 676.262 1107.34C673.275 1105.57 671.838 1103.44 669.812 1100.63C669.021 1099.54 668.229 1098.46 667.438 1097.37C666.834 1096.54 666.834 1096.54 666.219 1095.68C659.109 1085.86 659.109 1085.86 651.289 1076.6C650 1075 650 1075 648.613 1072.68C646.783 1069.64 644.715 1066.88 642.562 1064.06C634 1052.83 634 1052.83 634 1050C633.34 1050 632.68 1050 632 1050C630.699 1048.26 629.485 1046.45 628.312 1044.63C625.821 1040.79 623.325 1036.98 620.688 1033.25C620.131 1032.46 619.574 1031.66 619 1030.84C617.888 1029.26 616.775 1027.68 615.656 1026.11C614.16 1023.99 612.673 1021.87 611.188 1019.75C610.707 1019.08 610.226 1018.4 609.731 1017.71C607.085 1013.91 605.217 1010.53 604 1006C603.34 1006 602.68 1006 602 1006C600.531 1003.8 599.19 1001.61 597.875 999.313C597.062 997.925 596.248 996.539 595.434 995.152C595.025 994.452 594.616 993.752 594.195 993.031C592.482 990.12 590.713 987.248 588.938 984.375C588.288 983.322 587.638 982.269 586.969 981.184C585.637 979.029 584.303 976.876 582.969 974.723C571.722 956.533 571.722 956.533 567 947C564.03 941.436 560.839 936.019 557.527 930.652C555.92 927.86 554.491 925.015 553.065 922.127C552.023 920.046 550.943 917.992 549.844 915.941C543.823 904.704 538.23 893.294 532.762 881.777C529.791 875.531 526.713 869.343 523.559 863.188C521.072 858.336 518.935 853.448 516.965 848.367C516.072 846.177 515.084 844.1 514 842C512.108 838.318 510.573 834.551 509.062 830.699C506.049 823.044 502.836 815.492 499.309 808.059C497.76 804.44 496.444 800.761 495.113 797.057C493.176 791.737 491.109 786.467 489.062 781.188C483.699 767.281 478.721 753.295 474.039 739.145C472.728 735.185 471.407 731.229 470.076 727.275C469.169 724.581 468.265 721.886 467.361 719.191C466.916 717.869 466.471 716.547 466.025 715.226C461.938 703.122 461.938 703.122 460.562 697.211C458.93 690.788 456.837 684.467 454.886 678.132C451.557 667.308 448.603 657.017 448.625 645.625C448.626 644.774 448.627 643.922 448.628 643.045C448.788 634.183 450.441 625.758 452.487 617.161C452.936 615.268 453.35 613.367 453.758 611.465C455.1 605.488 457.083 600.189 459.738 594.672C460.988 592.025 462.071 589.355 463.125 586.625C464.477 583.177 466.041 580.151 468 577C468.449 575.925 468.897 574.85 469.359 573.742C473.826 563.178 481.73 550.008 490 542C490.474 541.196 490.949 540.391 491.438 539.563C493.038 536.937 494.836 535.164 497 533C497.536 532.093 498.072 531.185 498.625 530.25C499.079 529.508 499.532 528.765 500 528C500.66 528 501.32 528 502 528C502.289 527.402 502.577 526.804 502.875 526.188C504 524 504 524 506 521C506.66 521 507.32 521 508 521C508.26 520.416 508.519 519.832 508.787 519.23C510.085 516.844 511.493 515.248 513.406 513.328C514.068 512.664 514.729 512 515.41 511.316C516.1 510.635 516.789 509.953 517.5 509.25C518.19 508.553 518.879 507.855 519.59 507.137C520.251 506.478 520.912 505.819 521.594 505.141C522.199 504.538 522.804 503.935 523.428 503.314C525 502 525 502 527 502C527.33 501.01 527.66 500.02 528 499C529.969 497.203 529.969 497.203 532.5 495.25C533.408 494.545 534.315 493.84 535.25 493.113C536.158 492.416 537.065 491.719 538 491C538.763 490.395 539.526 489.791 540.312 489.168C554.468 477.97 570.398 466.228 587.429 459.965C589.859 459.053 592.241 458.061 594.633 457.055C599.907 454.939 605.214 453.558 610.75 452.313C611.656 452.1 612.562 451.888 613.496 451.67C630.423 447.753 647.464 447.063 664 453Z" fill="#0E0E0E"/>
</g>
<defs>
<clipPath id="clip0_3001_740">
<rect width="1979" height="2048" fill="white"/>
</clipPath>
</defs>
</svg>
